{
	"patcher" : 	{
		"fileversion" : 1,
		"rect" : [ 55.0, 75.0, 502.0, 423.0 ],
		"bglocked" : 0,
		"defrect" : [ 55.0, 75.0, 502.0, 423.0 ],
		"openrect" : [ 0.0, 0.0, 0.0, 0.0 ],
		"openinpresentation" : 0,
		"default_fontsize" : 11.0,
		"default_fontface" : 0,
		"default_fontname" : "Verdana",
		"gridonopen" : 0,
		"gridsize" : [ 5.0, 5.0 ],
		"gridsnaponopen" : 0,
		"toolbarvisible" : 1,
		"boxanimatetime" : 200,
		"imprint" : 0,
		"boxes" : [ 			{
				"box" : 				{
					"maxclass" : "ezdac~",
					"numoutlets" : 0,
					"id" : "obj-10",
					"local" : 1,
					"numinlets" : 2,
					"patching_rect" : [ 160.0, 337.0, 40.0, 40.0 ]
				}

			}
, 			{
				"box" : 				{
					"maxclass" : "bpatcher",
					"numoutlets" : 0,
					"id" : "obj-69",
					"name" : "tap.badge.maxpat",
					"args" : [  ],
					"numinlets" : 0,
					"patching_rect" : [ 215.0, 324.0, 225.0, 67.0 ]
				}

			}
, 			{
				"box" : 				{
					"maxclass" : "newobj",
					"text" : "autohelp",
					"numoutlets" : 0,
					"fontsize" : 10.0,
					"hidden" : 1,
					"id" : "obj-52",
					"fontname" : "Verdana",
					"numinlets" : 1,
					"patching_rect" : [ 7.0, 332.0, 54.0, 19.0 ],
					"frozen_object_attributes" : 					{
						"helpfontname" : "Verdana",
						"helpfontsize" : 10.0
					}

				}

			}
, 			{
				"box" : 				{
					"maxclass" : "comment",
					"varname" : "autohelp_see_title",
					"text" : "See Also:",
					"numoutlets" : 0,
					"fontface" : 1,
					"fontsize" : 11.595187,
					"frgb" : [ 0.658824, 0.658824, 0.658824, 1.0 ],
					"id" : "obj-66",
					"fontname" : "Arial",
					"numinlets" : 1,
					"patching_rect" : [ 12.0, 336.0, 100.0, 20.0 ]
				}

			}
, 			{
				"box" : 				{
					"maxclass" : "umenu",
					"varname" : "autohelp_see_menu",
					"numoutlets" : 3,
					"fontsize" : 11.595187,
					"items" : [ "(Objects:)", ",", "line~", ",", "<separator>" ],
					"outlettype" : [ "int", "", "" ],
					"id" : "obj-67",
					"fontname" : "Arial",
					"types" : [  ],
					"numinlets" : 1,
					"patching_rect" : [ 12.0, 356.0, 130.0, 20.0 ]
				}

			}
, 			{
				"box" : 				{
					"maxclass" : "comment",
					"text" : "tap.ramp~ can be used as an alternative to msp's line~ object. The two objects are very similar, though tap.ramp~ has some extra options available.",
					"linecount" : 7,
					"numoutlets" : 0,
					"fontsize" : 10.0,
					"frgb" : [ 0.658824, 0.658824, 0.658824, 1.0 ],
					"id" : "obj-1",
					"fontname" : "Verdana",
					"numinlets" : 1,
					"patching_rect" : [ 287.0, 212.0, 130.0, 92.0 ]
				}

			}
, 			{
				"box" : 				{
					"maxclass" : "message",
					"text" : "0., 1. 10000",
					"numoutlets" : 1,
					"fontsize" : 10.0,
					"outlettype" : [ "" ],
					"id" : "obj-2",
					"fontname" : "Verdana",
					"numinlets" : 2,
					"patching_rect" : [ 147.0, 210.0, 70.0, 17.0 ]
				}

			}
, 			{
				"box" : 				{
					"maxclass" : "message",
					"text" : "-0.5 5000",
					"numoutlets" : 1,
					"fontsize" : 10.0,
					"outlettype" : [ "" ],
					"id" : "obj-3",
					"fontname" : "Verdana",
					"numinlets" : 2,
					"patching_rect" : [ 66.0, 210.0, 58.0, 17.0 ]
				}

			}
, 			{
				"box" : 				{
					"maxclass" : "message",
					"text" : "0.7",
					"numoutlets" : 1,
					"fontsize" : 10.0,
					"outlettype" : [ "" ],
					"id" : "obj-4",
					"fontname" : "Verdana",
					"numinlets" : 2,
					"patching_rect" : [ 17.0, 210.0, 25.0, 17.0 ]
				}

			}
, 			{
				"box" : 				{
					"maxclass" : "scope~",
					"rounded" : 0,
					"bgcolor" : [ 0.129412, 0.129412, 0.129412, 1.0 ],
					"numoutlets" : 0,
					"id" : "obj-5",
					"numinlets" : 2,
					"patching_rect" : [ 156.0, 258.0, 126.0, 50.0 ]
				}

			}
, 			{
				"box" : 				{
					"maxclass" : "newobj",
					"text" : "line~",
					"numoutlets" : 2,
					"fontsize" : 10.0,
					"outlettype" : [ "signal", "bang" ],
					"id" : "obj-6",
					"fontname" : "Verdana",
					"numinlets" : 2,
					"patching_rect" : [ 156.0, 238.0, 34.0, 19.0 ]
				}

			}
, 			{
				"box" : 				{
					"maxclass" : "scope~",
					"rounded" : 0,
					"bgcolor" : [ 0.129412, 0.129412, 0.129412, 1.0 ],
					"numoutlets" : 0,
					"id" : "obj-7",
					"numinlets" : 2,
					"patching_rect" : [ 17.0, 258.0, 126.0, 50.0 ]
				}

			}
, 			{
				"box" : 				{
					"maxclass" : "newobj",
					"text" : "tap.ramp~",
					"numoutlets" : 2,
					"fontsize" : 10.0,
					"outlettype" : [ "signal", "" ],
					"id" : "obj-8",
					"fontname" : "Verdana",
					"numinlets" : 1,
					"patching_rect" : [ 17.0, 238.0, 62.0, 19.0 ]
				}

			}
, 			{
				"box" : 				{
					"maxclass" : "message",
					"text" : "mode vector_accurate",
					"numoutlets" : 1,
					"fontsize" : 10.0,
					"outlettype" : [ "" ],
					"id" : "obj-12",
					"fontname" : "Verdana",
					"numinlets" : 2,
					"patching_rect" : [ 24.0, 142.0, 120.0, 17.0 ]
				}

			}
, 			{
				"box" : 				{
					"maxclass" : "message",
					"text" : "mode sample_accurate",
					"numoutlets" : 1,
					"fontsize" : 10.0,
					"outlettype" : [ "" ],
					"id" : "obj-13",
					"fontname" : "Verdana",
					"numinlets" : 2,
					"patching_rect" : [ 24.0, 163.0, 125.0, 17.0 ]
				}

			}
, 			{
				"box" : 				{
					"maxclass" : "comment",
					"text" : "Type of envelope-following operation to use.",
					"linecount" : 2,
					"numoutlets" : 0,
					"fontsize" : 10.0,
					"frgb" : [ 0.658824, 0.658824, 0.658824, 1.0 ],
					"id" : "obj-16",
					"fontname" : "Verdana",
					"numinlets" : 1,
					"patching_rect" : [ 150.0, 145.0, 146.0, 31.0 ]
				}

			}
, 			{
				"box" : 				{
					"maxclass" : "panel",
					"varname" : "autohelp_see_panel",
					"bgcolor" : [ 0.85, 0.85, 0.85, 0.75 ],
					"numoutlets" : 0,
					"bordercolor" : [ 0.5, 0.5, 0.5, 0.75 ],
					"border" : 2,
					"id" : "obj-68",
					"background" : 1,
					"numinlets" : 1,
					"patching_rect" : [ 7.0, 332.0, 140.0, 50.0 ]
				}

			}
, 			{
				"box" : 				{
					"maxclass" : "comment",
					"varname" : "autohelp_top_title",
					"text" : "tap.ramp~",
					"textcolor" : [ 0.2, 0.2, 0.2, 1.0 ],
					"numoutlets" : 0,
					"fontface" : 3,
					"fontsize" : 20.871338,
					"frgb" : [ 0.2, 0.2, 0.2, 1.0 ],
					"id" : "obj-11",
					"fontname" : "Arial",
					"numinlets" : 1,
					"patching_rect" : [ 10.0, 8.0, 485.0, 30.0 ]
				}

			}
, 			{
				"box" : 				{
					"maxclass" : "comment",
					"varname" : "autohelp_top_digest",
					"text" : "Generate ramping signals",
					"textcolor" : [ 0.2, 0.2, 0.2, 1.0 ],
					"numoutlets" : 0,
					"fontsize" : 12.754705,
					"frgb" : [ 0.2, 0.2, 0.2, 1.0 ],
					"id" : "obj-14",
					"fontname" : "Arial",
					"numinlets" : 1,
					"patching_rect" : [ 10.0, 36.0, 485.0, 21.0 ]
				}

			}
, 			{
				"box" : 				{
					"maxclass" : "comment",
					"varname" : "autohelp_top_description",
					"text" : "The tap.ramp~ object generates a signal that ramps from a starting point to a destination point over a given amount of time, much like the line~ object or the jcom.ramp~ object in Jamoma.",
					"linecount" : 3,
					"numoutlets" : 0,
					"fontsize" : 10.0,
					"frgb" : [ 0.658824, 0.658824, 0.658824, 1.0 ],
					"id" : "obj-15",
					"fontname" : "Verdana",
					"numinlets" : 1,
					"patching_rect" : [ 10.0, 57.0, 469.0, 43.0 ]
				}

			}
, 			{
				"box" : 				{
					"maxclass" : "textbutton",
					"varname" : "autohelp_top_ref",
					"bgcolor" : [ 0.0, 0.0, 0.0, 0.0 ],
					"bgoveroncolor" : [ 0.0, 0.0, 0.0, 0.0 ],
					"underline" : 1,
					"textcolor" : [ 0.283, 0.365, 0.488, 1.0 ],
					"numoutlets" : 3,
					"fontface" : 3,
					"fontsize" : 12.754705,
					"spacing_x" : 0.0,
					"bgoncolor" : [ 0.0, 0.0, 0.0, 0.0 ],
					"outlettype" : [ "", "", "int" ],
					"bordercolor" : [ 0.0, 0.0, 0.0, 0.0 ],
					"spacing_y" : 0.0,
					"textoncolor" : [ 0.27, 0.35, 0.47, 1.0 ],
					"presentation_rect" : [ 0.0, 0.0, 164.300964, 14.666666 ],
					"id" : "obj-18",
					"fontlink" : 1,
					"text" : "open tap.ramp~ reference",
					"textovercolor" : [ 0.4, 0.5, 0.65, 1.0 ],
					"fontname" : "Arial",
					"bgovercolor" : [ 0.0, 0.0, 0.0, 0.0 ],
					"numinlets" : 1,
					"patching_rect" : [ 335.699036, 22.0, 164.300964, 14.666666 ]
				}

			}
, 			{
				"box" : 				{
					"maxclass" : "panel",
					"varname" : "autohelp_top_panel",
					"grad2" : [ 0.9, 0.9, 0.9, 1.0 ],
					"numoutlets" : 0,
					"mode" : 1,
					"id" : "obj-19",
					"background" : 1,
					"grad1" : [ 0.88, 0.98, 0.78, 1.0 ],
					"numinlets" : 1,
					"patching_rect" : [ 5.0, 5.0, 495.0, 52.0 ]
				}

			}
 ],
		"lines" : [ 			{
				"patchline" : 				{
					"source" : [ "obj-6", 0 ],
					"destination" : [ "obj-5", 0 ],
					"hidden" : 0,
					"midpoints" : [  ]
				}

			}
, 			{
				"patchline" : 				{
					"source" : [ "obj-4", 0 ],
					"destination" : [ "obj-6", 0 ],
					"hidden" : 0,
					"midpoints" : [  ]
				}

			}
, 			{
				"patchline" : 				{
					"source" : [ "obj-3", 0 ],
					"destination" : [ "obj-6", 0 ],
					"hidden" : 0,
					"midpoints" : [  ]
				}

			}
, 			{
				"patchline" : 				{
					"source" : [ "obj-2", 0 ],
					"destination" : [ "obj-6", 0 ],
					"hidden" : 0,
					"midpoints" : [  ]
				}

			}
, 			{
				"patchline" : 				{
					"source" : [ "obj-8", 0 ],
					"destination" : [ "obj-7", 0 ],
					"hidden" : 0,
					"midpoints" : [  ]
				}

			}
, 			{
				"patchline" : 				{
					"source" : [ "obj-12", 0 ],
					"destination" : [ "obj-8", 0 ],
					"hidden" : 1,
					"midpoints" : [  ]
				}

			}
, 			{
				"patchline" : 				{
					"source" : [ "obj-13", 0 ],
					"destination" : [ "obj-8", 0 ],
					"hidden" : 1,
					"midpoints" : [  ]
				}

			}
, 			{
				"patchline" : 				{
					"source" : [ "obj-4", 0 ],
					"destination" : [ "obj-8", 0 ],
					"hidden" : 0,
					"midpoints" : [  ]
				}

			}
, 			{
				"patchline" : 				{
					"source" : [ "obj-3", 0 ],
					"destination" : [ "obj-8", 0 ],
					"hidden" : 0,
					"midpoints" : [  ]
				}

			}
, 			{
				"patchline" : 				{
					"source" : [ "obj-2", 0 ],
					"destination" : [ "obj-8", 0 ],
					"hidden" : 0,
					"midpoints" : [  ]
				}

			}
 ]
	}

}
