{
	"patcher" : 	{
		"fileversion" : 1,
		"rect" : [ 59.0, 82.0, 550.0, 420.0 ],
		"bglocked" : 0,
		"defrect" : [ 59.0, 82.0, 550.0, 420.0 ],
		"openrect" : [ 0.0, 0.0, 0.0, 0.0 ],
		"openinpresentation" : 0,
		"default_fontsize" : 11.0,
		"default_fontface" : 0,
		"default_fontname" : "Verdana",
		"gridonopen" : 0,
		"gridsize" : [ 5.0, 5.0 ],
		"gridsnaponopen" : 0,
		"toolbarvisible" : 1,
		"boxanimatetime" : 200,
		"imprint" : 0,
		"boxes" : [ 			{
				"box" : 				{
					"maxclass" : "ezdac~",
					"numoutlets" : 0,
					"id" : "obj-7",
					"local" : 1,
					"numinlets" : 2,
					"patching_rect" : [ 181.0, 339.0, 40.0, 40.0 ]
				}

			}
, 			{
				"box" : 				{
					"maxclass" : "bpatcher",
					"numoutlets" : 0,
					"id" : "obj-69",
					"name" : "tap.badge.maxpat",
					"args" : [  ],
					"numinlets" : 0,
					"patching_rect" : [ 236.0, 326.0, 225.0, 67.0 ]
				}

			}
, 			{
				"box" : 				{
					"maxclass" : "newobj",
					"text" : "autohelp",
					"numoutlets" : 0,
					"fontsize" : 10.0,
					"hidden" : 1,
					"id" : "obj-52",
					"fontname" : "Verdana",
					"numinlets" : 1,
					"patching_rect" : [ 28.0, 334.0, 54.0, 19.0 ],
					"frozen_object_attributes" : 					{
						"helpfontname" : "Verdana",
						"helpfontsize" : 10.0
					}

				}

			}
, 			{
				"box" : 				{
					"maxclass" : "comment",
					"varname" : "autohelp_see_title",
					"text" : "See Also:",
					"numoutlets" : 0,
					"fontface" : 1,
					"fontsize" : 11.595187,
					"frgb" : [ 0.658824, 0.658824, 0.658824, 1.0 ],
					"id" : "obj-66",
					"fontname" : "Arial",
					"numinlets" : 1,
					"patching_rect" : [ 33.0, 338.0, 100.0, 20.0 ]
				}

			}
, 			{
				"box" : 				{
					"maxclass" : "umenu",
					"varname" : "autohelp_see_menu",
					"numoutlets" : 3,
					"fontsize" : 11.595187,
					"items" : [ "(Objects:)", ",", "cos~", ",", "<separator>" ],
					"outlettype" : [ "int", "", "" ],
					"id" : "obj-67",
					"fontname" : "Arial",
					"types" : [  ],
					"numinlets" : 1,
					"patching_rect" : [ 33.0, 358.0, 130.0, 20.0 ]
				}

			}
, 			{
				"box" : 				{
					"maxclass" : "umenu",
					"numoutlets" : 3,
					"fontsize" : 10.0,
					"items" : [ "Hertz", "to", "Radians", ",", "Radians", "to", "Hertz", ",", "Degrees", "to", "Radians", ",", "Radians", "to", "Degrees" ],
					"outlettype" : [ "int", "", "" ],
					"id" : "obj-1",
					"fontname" : "Verdana",
					"types" : [  ],
					"numinlets" : 1,
					"patching_rect" : [ 166.0, 163.0, 115.0, 19.0 ]
				}

			}
, 			{
				"box" : 				{
					"maxclass" : "message",
					"text" : "mode $1",
					"numoutlets" : 1,
					"fontsize" : 10.0,
					"outlettype" : [ "" ],
					"id" : "obj-2",
					"fontname" : "Verdana",
					"numinlets" : 2,
					"patching_rect" : [ 166.0, 181.0, 57.0, 17.0 ]
				}

			}
, 			{
				"box" : 				{
					"maxclass" : "newobj",
					"text" : "tap.radians~",
					"numoutlets" : 3,
					"fontsize" : 10.0,
					"outlettype" : [ "signal", "float", "" ],
					"id" : "obj-3",
					"fontname" : "Verdana",
					"numinlets" : 1,
					"patching_rect" : [ 14.0, 213.0, 73.0, 19.0 ]
				}

			}
, 			{
				"box" : 				{
					"maxclass" : "comment",
					"text" : "The mode attribute determines the type of operation performed by tap.radians~. The default is hertz2radians.",
					"linecount" : 3,
					"numoutlets" : 0,
					"fontsize" : 10.0,
					"frgb" : [ 0.658824, 0.658824, 0.658824, 1.0 ],
					"id" : "obj-4",
					"fontname" : "Verdana",
					"numinlets" : 1,
					"patching_rect" : [ 296.0, 161.0, 216.0, 43.0 ]
				}

			}
, 			{
				"box" : 				{
					"maxclass" : "comment",
					"text" : "tap.decibels~ attributes",
					"numoutlets" : 0,
					"fontsize" : 12.0,
					"frgb" : [ 0.658824, 0.658824, 0.658824, 1.0 ],
					"id" : "obj-9",
					"fontname" : "Verdana",
					"numinlets" : 1,
					"patching_rect" : [ 130.0, 135.0, 253.0, 21.0 ]
				}

			}
, 			{
				"box" : 				{
					"maxclass" : "comment",
					"text" : "The object is also optimized so that if no signals are connected, the object is not added to the ../../../../../Jamoma/Core/DSP/library/build/JamomaDSP.dylib chain, hence it does not use any CPU if it is not connected.",
					"linecount" : 3,
					"numoutlets" : 0,
					"fontsize" : 10.0,
					"frgb" : [ 0.658824, 0.658824, 0.658824, 1.0 ],
					"id" : "obj-11",
					"fontname" : "Verdana",
					"numinlets" : 1,
					"patching_rect" : [ 176.0, 266.0, 293.0, 43.0 ]
				}

			}
, 			{
				"box" : 				{
					"maxclass" : "flonum",
					"numoutlets" : 2,
					"fontsize" : 10.0,
					"outlettype" : [ "float", "bang" ],
					"triscale" : 0.9,
					"id" : "obj-12",

					"fontname" : "Verdana",
					"numinlets" : 1,
					"patching_rect" : [ 31.0, 239.0, 50.0, 19.0 ],
					"htextcolor" : [ 0.870588, 0.870588, 0.870588, 1.0 ]
				}

			}
, 			{
				"box" : 				{
					"maxclass" : "flonum",
					"numoutlets" : 2,
					"fontsize" : 10.0,
					"outlettype" : [ "float", "bang" ],
					"triscale" : 0.9,
					"id" : "obj-13",

					"fontname" : "Verdana",
					"numinlets" : 1,
					"patching_rect" : [ 32.0, 187.0, 59.0, 19.0 ],
					"htextcolor" : [ 0.870588, 0.870588, 0.870588, 1.0 ]
				}

			}
, 			{
				"box" : 				{
					"maxclass" : "number~",
					"numoutlets" : 2,
					"fontsize" : 10.0,
					"outlettype" : [ "signal", "float" ],
					"mode" : 2,
					"sig" : 0.0,
					"id" : "obj-14",
					"interval" : 250.0,
					"fontname" : "Verdana",
					"numinlets" : 2,
					"patching_rect" : [ 14.0, 261.0, 101.0, 19.0 ],
					"htextcolor" : [ 0.870588, 0.870588, 0.870588, 1.0 ]
				}

			}
, 			{
				"box" : 				{
					"maxclass" : "number~",
					"numoutlets" : 2,
					"fontsize" : 10.0,
					"outlettype" : [ "signal", "float" ],
					"mode" : 1,
					"sig" : 0.0,
					"id" : "obj-15",
					"interval" : 250.0,
					"fontname" : "Verdana",
					"numinlets" : 2,
					"patching_rect" : [ 14.0, 167.0, 101.0, 19.0 ],
					"htextcolor" : [ 0.870588, 0.870588, 0.870588, 1.0 ]
				}

			}
, 			{
				"box" : 				{
					"maxclass" : "comment",
					"text" : "The signal processing does not need to be on for the floating point conversion to operate (just like MSP's standard mstosamps~ object).",
					"linecount" : 2,
					"numoutlets" : 0,
					"fontsize" : 10.0,
					"frgb" : [ 0.658824, 0.658824, 0.658824, 1.0 ],
					"id" : "obj-16",
					"fontname" : "Verdana",
					"numinlets" : 1,
					"patching_rect" : [ 176.0, 217.0, 357.0, 31.0 ]
				}

			}
, 			{
				"box" : 				{
					"maxclass" : "comment",
					"text" : "input can be floats or signals",
					"linecount" : 2,
					"numoutlets" : 0,
					"fontsize" : 10.0,
					"frgb" : [ 0.658824, 0.658824, 0.658824, 1.0 ],
					"id" : "obj-17",
					"fontname" : "Verdana",
					"numinlets" : 1,
					"patching_rect" : [ 15.0, 139.0, 98.0, 31.0 ]
				}

			}
, 			{
				"box" : 				{
					"maxclass" : "panel",
					"varname" : "autohelp_see_panel",
					"bgcolor" : [ 0.85, 0.85, 0.85, 0.75 ],
					"numoutlets" : 0,
					"bordercolor" : [ 0.5, 0.5, 0.5, 0.75 ],
					"border" : 2,
					"id" : "obj-68",
					"background" : 1,
					"numinlets" : 1,
					"patching_rect" : [ 28.0, 334.0, 140.0, 50.0 ]
				}

			}
, 			{
				"box" : 				{
					"maxclass" : "comment",
					"varname" : "autohelp_top_title",
					"text" : "tap.radians~",
					"textcolor" : [ 0.2, 0.2, 0.2, 1.0 ],
					"numoutlets" : 0,
					"fontface" : 3,
					"fontsize" : 20.871338,
					"frgb" : [ 0.2, 0.2, 0.2, 1.0 ],
					"id" : "obj-5",
					"fontname" : "Arial",
					"numinlets" : 1,
					"patching_rect" : [ 10.0, 8.0, 485.0, 30.0 ]
				}

			}
, 			{
				"box" : 				{
					"maxclass" : "comment",
					"varname" : "autohelp_top_digest",
					"text" : "Convert to and from radians",
					"textcolor" : [ 0.2, 0.2, 0.2, 1.0 ],
					"numoutlets" : 0,
					"fontsize" : 12.754705,
					"frgb" : [ 0.2, 0.2, 0.2, 1.0 ],
					"id" : "obj-6",
					"fontname" : "Arial",
					"numinlets" : 1,
					"patching_rect" : [ 10.0, 36.0, 485.0, 21.0 ]
				}

			}
, 			{
				"box" : 				{
					"maxclass" : "comment",
					"varname" : "autohelp_top_description",
					"text" : "The tap.radians~ object performs unit conversions for working with trigonometric values in radians. For a thorough treatment of unit conversion, the jcom.dataspace object in Jamoma is recommended.",
					"linecount" : 3,
					"numoutlets" : 0,
					"fontsize" : 10.0,
					"frgb" : [ 0.658824, 0.658824, 0.658824, 1.0 ],
					"id" : "obj-8",
					"fontname" : "Verdana",
					"numinlets" : 1,
					"patching_rect" : [ 10.0, 57.0, 495.0, 43.0 ]
				}

			}
, 			{
				"box" : 				{
					"maxclass" : "textbutton",
					"varname" : "autohelp_top_ref",
					"bgcolor" : [ 0.0, 0.0, 0.0, 0.0 ],
					"bgoveroncolor" : [ 0.0, 0.0, 0.0, 0.0 ],
					"underline" : 1,
					"textcolor" : [ 0.296, 0.38, 0.506, 1.0 ],
					"numoutlets" : 3,
					"fontface" : 3,
					"fontsize" : 12.754705,
					"spacing_x" : 0.0,
					"bgoncolor" : [ 0.0, 0.0, 0.0, 0.0 ],
					"outlettype" : [ "", "", "int" ],
					"bordercolor" : [ 0.0, 0.0, 0.0, 0.0 ],
					"spacing_y" : 0.0,
					"textoncolor" : [ 0.27, 0.35, 0.47, 1.0 ],
					"presentation_rect" : [ 0.0, 0.0, 178.481842, 14.666666 ],
					"id" : "obj-10",
					"fontlink" : 1,
					"text" : "open tap.radians~ reference",
					"textovercolor" : [ 0.4, 0.5, 0.65, 1.0 ],
					"fontname" : "Arial",
					"bgovercolor" : [ 0.0, 0.0, 0.0, 0.0 ],
					"numinlets" : 1,
					"patching_rect" : [ 321.518158, 22.0, 178.481842, 14.666666 ]
				}

			}
, 			{
				"box" : 				{
					"maxclass" : "panel",
					"varname" : "autohelp_top_panel",
					"grad2" : [ 0.9, 0.9, 0.9, 1.0 ],
					"numoutlets" : 0,
					"mode" : 1,
					"id" : "obj-18",
					"background" : 1,
					"grad1" : [ 0.88, 0.98, 0.78, 1.0 ],
					"numinlets" : 1,
					"patching_rect" : [ 5.0, 5.0, 495.0, 52.0 ]
				}

			}
 ],
		"lines" : [ 			{
				"patchline" : 				{
					"source" : [ "obj-1", 0 ],
					"destination" : [ "obj-2", 0 ],
					"hidden" : 0,
					"midpoints" : [  ]
				}

			}
, 			{
				"patchline" : 				{
					"source" : [ "obj-3", 1 ],
					"destination" : [ "obj-12", 0 ],
					"hidden" : 0,
					"midpoints" : [ 50.5, 234.0, 40.5, 234.0 ]
				}

			}
, 			{
				"patchline" : 				{
					"source" : [ "obj-3", 0 ],
					"destination" : [ "obj-14", 0 ],
					"hidden" : 0,
					"midpoints" : [  ]
				}

			}
, 			{
				"patchline" : 				{
					"source" : [ "obj-15", 0 ],
					"destination" : [ "obj-3", 0 ],
					"hidden" : 0,
					"midpoints" : [  ]
				}

			}
, 			{
				"patchline" : 				{
					"source" : [ "obj-13", 0 ],
					"destination" : [ "obj-3", 0 ],
					"hidden" : 0,
					"midpoints" : [  ]
				}

			}
, 			{
				"patchline" : 				{
					"source" : [ "obj-2", 0 ],
					"destination" : [ "obj-3", 0 ],
					"hidden" : 1,
					"midpoints" : [  ]
				}

			}
 ]
	}

}
