{
	"patcher" : 	{
		"fileversion" : 1,
		"rect" : [ 55.0, 76.0, 571.0, 446.0 ],
		"bglocked" : 0,
		"defrect" : [ 55.0, 76.0, 571.0, 446.0 ],
		"openrect" : [ 0.0, 0.0, 0.0, 0.0 ],
		"openinpresentation" : 0,
		"default_fontsize" : 11.0,
		"default_fontface" : 0,
		"default_fontname" : "Verdana",
		"gridonopen" : 0,
		"gridsize" : [ 5.0, 5.0 ],
		"gridsnaponopen" : 0,
		"toolbarvisible" : 1,
		"boxanimatetime" : 200,
		"imprint" : 0,
		"boxes" : [ 			{
				"box" : 				{
					"maxclass" : "ezdac~",
					"numoutlets" : 0,
					"id" : "obj-7",
					"local" : 1,
					"numinlets" : 2,
					"patching_rect" : [ 189.0, 376.0, 40.0, 40.0 ]
				}

			}
, 			{
				"box" : 				{
					"maxclass" : "bpatcher",
					"numoutlets" : 0,
					"id" : "obj-69",
					"name" : "tap.badge.maxpat",
					"args" : [  ],
					"numinlets" : 0,
					"patching_rect" : [ 244.0, 363.0, 225.0, 67.0 ]
				}

			}
, 			{
				"box" : 				{
					"maxclass" : "newobj",
					"text" : "autohelp",
					"numoutlets" : 0,
					"fontsize" : 10.0,
					"hidden" : 1,
					"id" : "obj-52",
					"fontname" : "Verdana",
					"numinlets" : 1,
					"patching_rect" : [ 36.0, 371.0, 54.0, 19.0 ],
					"frozen_object_attributes" : 					{
						"helpfontname" : "Verdana",
						"helpfontsize" : 10.0
					}

				}

			}
, 			{
				"box" : 				{
					"maxclass" : "comment",
					"varname" : "autohelp_see_title",
					"text" : "See Also:",
					"textcolor" : [ 0.0, 0.0, 0.0, 1.0 ],
					"numoutlets" : 0,
					"fontface" : 1,
					"fontsize" : 11.595187,
					"frgb" : [ 0.0, 0.0, 0.0, 1.0 ],
					"id" : "obj-66",
					"fontname" : "Arial",
					"numinlets" : 1,
					"patching_rect" : [ 41.0, 375.0, 100.0, 20.0 ]
				}

			}
, 			{
				"box" : 				{
					"maxclass" : "umenu",
					"varname" : "autohelp_see_menu",
					"numoutlets" : 3,
					"fontsize" : 11.595187,
					"items" : [ "(Objects:)", ",", "round", ",", "<separator>" ],
					"outlettype" : [ "int", "", "" ],
					"id" : "obj-67",
					"fontname" : "Arial",
					"types" : [  ],
					"numinlets" : 1,
					"patching_rect" : [ 41.0, 395.0, 130.0, 20.0 ]
				}

			}
, 			{
				"box" : 				{
					"maxclass" : "button",
					"numoutlets" : 1,
					"outlettype" : [ "bang" ],
					"id" : "obj-9",
					"numinlets" : 1,
					"patching_rect" : [ 318.0, 332.0, 23.0, 23.0 ]
				}

			}
, 			{
				"box" : 				{
					"maxclass" : "newobj",
					"text" : "edge~",
					"numoutlets" : 2,
					"fontsize" : 10.0,
					"outlettype" : [ "bang", "bang" ],
					"id" : "obj-10",
					"fontname" : "Verdana",
					"numinlets" : 1,
					"patching_rect" : [ 318.0, 311.0, 42.0, 19.0 ]
				}

			}
, 			{
				"box" : 				{
					"maxclass" : "number~",
					"numoutlets" : 2,
					"fontsize" : 10.0,
					"outlettype" : [ "signal", "float" ],
					"mode" : 2,
					"sig" : 0.0,
					"id" : "obj-11",
					"interval" : 250.0,
					"fontname" : "Verdana",
					"numinlets" : 2,
					"patching_rect" : [ 327.0, 284.0, 39.0, 19.0 ],
					"htextcolor" : [ 0.870588, 0.870588, 0.870588, 1.0 ]
				}

			}
, 			{
				"box" : 				{
					"maxclass" : "newobj",
					"text" : "==~ 80",
					"numoutlets" : 1,
					"fontsize" : 10.0,
					"outlettype" : [ "signal" ],
					"id" : "obj-12",
					"fontname" : "Verdana",
					"numinlets" : 2,
					"patching_rect" : [ 318.0, 262.0, 49.0, 19.0 ]
				}

			}
, 			{
				"box" : 				{
					"maxclass" : "button",
					"numoutlets" : 1,
					"outlettype" : [ "bang" ],
					"id" : "obj-13",
					"numinlets" : 1,
					"patching_rect" : [ 263.0, 332.0, 23.0, 23.0 ]
				}

			}
, 			{
				"box" : 				{
					"maxclass" : "newobj",
					"text" : "edge~",
					"numoutlets" : 2,
					"fontsize" : 10.0,
					"outlettype" : [ "bang", "bang" ],
					"id" : "obj-14",
					"fontname" : "Verdana",
					"numinlets" : 1,
					"patching_rect" : [ 263.0, 311.0, 42.0, 19.0 ]
				}

			}
, 			{
				"box" : 				{
					"maxclass" : "number~",
					"numoutlets" : 2,
					"fontsize" : 10.0,
					"outlettype" : [ "signal", "float" ],
					"mode" : 2,
					"sig" : 0.0,
					"id" : "obj-15",
					"interval" : 250.0,
					"fontname" : "Verdana",
					"numinlets" : 2,
					"patching_rect" : [ 272.0, 284.0, 39.0, 19.0 ],
					"htextcolor" : [ 0.870588, 0.870588, 0.870588, 1.0 ]
				}

			}
, 			{
				"box" : 				{
					"maxclass" : "newobj",
					"text" : "==~ 70",
					"numoutlets" : 1,
					"fontsize" : 10.0,
					"outlettype" : [ "signal" ],
					"id" : "obj-16",
					"fontname" : "Verdana",
					"numinlets" : 2,
					"patching_rect" : [ 263.0, 262.0, 49.0, 19.0 ]
				}

			}
, 			{
				"box" : 				{
					"maxclass" : "number~",
					"numoutlets" : 2,
					"fontsize" : 10.0,
					"outlettype" : [ "signal", "float" ],
					"mode" : 2,
					"sig" : 0.0,
					"id" : "obj-17",
					"interval" : 250.0,
					"fontname" : "Verdana",
					"numinlets" : 2,
					"patching_rect" : [ 398.0, 227.0, 105.0, 19.0 ],
					"htextcolor" : [ 0.870588, 0.870588, 0.870588, 1.0 ]
				}

			}
, 			{
				"box" : 				{
					"maxclass" : "newobj",
					"text" : "tap.quantize~ 1000",
					"numoutlets" : 2,
					"fontsize" : 12.0,
					"outlettype" : [ "signal", "" ],
					"id" : "obj-18",
					"fontname" : "Verdana",
					"color" : [ 0.4, 0.4, 0.8, 1.0 ],
					"numinlets" : 1,
					"patching_rect" : [ 398.0, 185.0, 128.0, 21.0 ]
				}

			}
, 			{
				"box" : 				{
					"maxclass" : "comment",
					"text" : "Quantize~ was originally developed to implement a way to trigger events at audio rate from a buffer that was stored on disk with a virtual \"click track\" read by the index~ object.",
					"linecount" : 7,
					"numoutlets" : 0,
					"fontsize" : 10.0,
					"frgb" : [ 0.333333, 0.333333, 0.333333, 1.0 ],
					"id" : "obj-19",
					"fontname" : "Verdana",
					"numinlets" : 1,
					"patching_rect" : [ 4.0, 132.0, 143.0, 92.0 ]
				}

			}
, 			{
				"box" : 				{
					"maxclass" : "number~",
					"numoutlets" : 2,
					"fontsize" : 10.0,
					"outlettype" : [ "signal", "float" ],
					"mode" : 2,
					"sig" : 0.0,
					"id" : "obj-20",
					"interval" : 250.0,
					"fontname" : "Verdana",
					"numinlets" : 2,
					"patching_rect" : [ 150.0, 227.0, 87.0, 19.0 ],
					"htextcolor" : [ 0.870588, 0.870588, 0.870588, 1.0 ]
				}

			}
, 			{
				"box" : 				{
					"maxclass" : "newobj",
					"text" : "tap.quantize~ 10",
					"numoutlets" : 2,
					"fontsize" : 12.0,
					"outlettype" : [ "signal", "" ],
					"id" : "obj-21",
					"fontname" : "Verdana",
					"color" : [ 0.290196, 0.611765, 0.380392, 1.0 ],
					"numinlets" : 1,
					"patching_rect" : [ 150.0, 185.0, 113.0, 21.0 ]
				}

			}
, 			{
				"box" : 				{
					"maxclass" : "button",
					"numoutlets" : 1,
					"outlettype" : [ "bang" ],
					"id" : "obj-22",
					"numinlets" : 1,
					"patching_rect" : [ 208.0, 332.0, 23.0, 23.0 ]
				}

			}
, 			{
				"box" : 				{
					"maxclass" : "newobj",
					"text" : "edge~",
					"numoutlets" : 2,
					"fontsize" : 10.0,
					"outlettype" : [ "bang", "bang" ],
					"id" : "obj-23",
					"fontname" : "Verdana",
					"numinlets" : 1,
					"patching_rect" : [ 208.0, 311.0, 42.0, 19.0 ]
				}

			}
, 			{
				"box" : 				{
					"maxclass" : "number~",
					"numoutlets" : 2,
					"fontsize" : 10.0,
					"outlettype" : [ "signal", "float" ],
					"mode" : 2,
					"sig" : 0.0,
					"id" : "obj-24",
					"interval" : 250.0,
					"fontname" : "Verdana",
					"numinlets" : 2,
					"patching_rect" : [ 217.0, 284.0, 39.0, 19.0 ],
					"htextcolor" : [ 0.870588, 0.870588, 0.870588, 1.0 ]
				}

			}
, 			{
				"box" : 				{
					"maxclass" : "newobj",
					"text" : "==~ -80",
					"numoutlets" : 1,
					"fontsize" : 10.0,
					"outlettype" : [ "signal" ],
					"id" : "obj-25",
					"fontname" : "Verdana",
					"numinlets" : 2,
					"patching_rect" : [ 208.0, 262.0, 54.0, 19.0 ]
				}

			}
, 			{
				"box" : 				{
					"maxclass" : "number~",
					"numoutlets" : 2,
					"fontsize" : 10.0,
					"outlettype" : [ "signal", "float" ],
					"mode" : 2,
					"sig" : 0.0,
					"id" : "obj-26",
					"interval" : 250.0,
					"fontname" : "Verdana",
					"numinlets" : 2,
					"patching_rect" : [ 279.0, 227.0, 88.0, 19.0 ],
					"htextcolor" : [ 0.870588, 0.870588, 0.870588, 1.0 ]
				}

			}
, 			{
				"box" : 				{
					"maxclass" : "button",
					"numoutlets" : 1,
					"outlettype" : [ "bang" ],
					"id" : "obj-27",
					"numinlets" : 1,
					"patching_rect" : [ 153.0, 332.0, 23.0, 23.0 ]
				}

			}
, 			{
				"box" : 				{
					"maxclass" : "newobj",
					"text" : "edge~",
					"numoutlets" : 2,
					"fontsize" : 10.0,
					"outlettype" : [ "bang", "bang" ],
					"id" : "obj-28",
					"fontname" : "Verdana",
					"numinlets" : 1,
					"patching_rect" : [ 153.0, 311.0, 42.0, 19.0 ]
				}

			}
, 			{
				"box" : 				{
					"maxclass" : "number~",
					"numoutlets" : 2,
					"fontsize" : 10.0,
					"outlettype" : [ "signal", "float" ],
					"mode" : 2,
					"sig" : 0.0,
					"id" : "obj-29",
					"interval" : 250.0,
					"fontname" : "Verdana",
					"numinlets" : 2,
					"patching_rect" : [ 162.0, 284.0, 39.0, 19.0 ],
					"htextcolor" : [ 0.870588, 0.870588, 0.870588, 1.0 ]
				}

			}
, 			{
				"box" : 				{
					"maxclass" : "newobj",
					"text" : "==~ -70",
					"numoutlets" : 1,
					"fontsize" : 10.0,
					"outlettype" : [ "signal" ],
					"id" : "obj-30",
					"fontname" : "Verdana",
					"numinlets" : 2,
					"patching_rect" : [ 153.0, 262.0, 54.0, 19.0 ]
				}

			}
, 			{
				"box" : 				{
					"maxclass" : "newobj",
					"text" : "loadbang",
					"numoutlets" : 1,
					"fontsize" : 10.0,
					"hidden" : 1,
					"outlettype" : [ "bang" ],
					"id" : "obj-31",
					"fontname" : "Verdana",
					"numinlets" : 1,
					"patching_rect" : [ 234.0, 135.0, 58.0, 19.0 ]
				}

			}
, 			{
				"box" : 				{
					"maxclass" : "newobj",
					"text" : "sig~",
					"numoutlets" : 1,
					"fontsize" : 10.0,
					"outlettype" : [ "signal" ],
					"id" : "obj-33",
					"fontname" : "Verdana",
					"numinlets" : 1,
					"patching_rect" : [ 150.0, 155.0, 40.0, 19.0 ]
				}

			}
, 			{
				"box" : 				{
					"maxclass" : "message",
					"text" : "0.579994",
					"numoutlets" : 1,
					"fontsize" : 10.0,
					"hidden" : 1,
					"outlettype" : [ "" ],
					"id" : "obj-34",
					"fontname" : "Verdana",
					"numinlets" : 2,
					"patching_rect" : [ 234.0, 155.0, 75.0, 17.0 ]
				}

			}
, 			{
				"box" : 				{
					"maxclass" : "flonum",
					"numoutlets" : 2,
					"fontsize" : 10.0,
					"outlettype" : [ "float", "bang" ],
					"triscale" : 0.9,
					"id" : "obj-35",

					"fontname" : "Verdana",
					"numinlets" : 1,
					"patching_rect" : [ 150.0, 134.0, 81.0, 19.0 ],
					"htextcolor" : [ 0.870588, 0.870588, 0.870588, 1.0 ]
				}

			}
, 			{
				"box" : 				{
					"maxclass" : "newobj",
					"text" : "tap.quantize~ 100",
					"numoutlets" : 2,
					"fontsize" : 12.0,
					"outlettype" : [ "signal", "" ],
					"id" : "obj-36",
					"fontname" : "Verdana",
					"color" : [ 1.0, 0.890196, 0.090196, 1.0 ],
					"numinlets" : 1,
					"patching_rect" : [ 270.0, 185.0, 120.0, 21.0 ]
				}

			}
, 			{
				"box" : 				{
					"maxclass" : "comment",
					"text" : "Quantize~ was created to deal with accuracy issues created by storing floating point numbers for use as a control source.",
					"linecount" : 3,
					"numoutlets" : 0,
					"fontsize" : 10.0,
					"frgb" : [ 0.333333, 0.333333, 0.333333, 1.0 ],
					"id" : "obj-37",
					"fontname" : "Verdana",
					"numinlets" : 1,
					"patching_rect" : [ 262.0, 133.0, 239.0, 43.0 ]
				}

			}
, 			{
				"box" : 				{
					"maxclass" : "comment",
					"text" : "The output signal is the input signal multiplied by an argument and rounded (+ 0.5 and truncated). This yields signals that are more usable as a control source for triggering events.",
					"linecount" : 6,
					"numoutlets" : 0,
					"fontsize" : 10.0,
					"frgb" : [ 0.333333, 0.333333, 0.333333, 1.0 ],
					"id" : "obj-38",
					"fontname" : "Verdana",
					"numinlets" : 1,
					"patching_rect" : [ 378.0, 250.0, 180.0, 79.0 ]
				}

			}
, 			{
				"box" : 				{
					"maxclass" : "panel",
					"varname" : "autohelp_see_panel",
					"bgcolor" : [ 0.85, 0.85, 0.85, 0.75 ],
					"numoutlets" : 0,
					"bordercolor" : [ 0.5, 0.5, 0.5, 0.75 ],
					"border" : 2,
					"id" : "obj-68",
					"background" : 1,
					"numinlets" : 1,
					"patching_rect" : [ 36.0, 371.0, 140.0, 50.0 ]
				}

			}
, 			{
				"box" : 				{
					"maxclass" : "comment",
					"varname" : "autohelp_top_title",
					"text" : "tap.quantize~",
					"textcolor" : [ 0.2, 0.2, 0.2, 1.0 ],
					"numoutlets" : 0,
					"fontface" : 3,
					"fontsize" : 20.871338,
					"frgb" : [ 0.2, 0.2, 0.2, 1.0 ],
					"id" : "obj-2",
					"fontname" : "Arial",
					"numinlets" : 1,
					"patching_rect" : [ 10.0, 8.0, 485.0, 30.0 ]
				}

			}
, 			{
				"box" : 				{
					"maxclass" : "comment",
					"varname" : "autohelp_top_digest",
					"text" : "Multiply and round off a signal",
					"textcolor" : [ 0.2, 0.2, 0.2, 1.0 ],
					"numoutlets" : 0,
					"fontsize" : 12.754705,
					"frgb" : [ 0.2, 0.2, 0.2, 1.0 ],
					"id" : "obj-3",
					"fontname" : "Arial",
					"numinlets" : 1,
					"patching_rect" : [ 10.0, 36.0, 485.0, 21.0 ]
				}

			}
, 			{
				"box" : 				{
					"maxclass" : "comment",
					"varname" : "autohelp_top_description",
					"text" : "The tap.quantize~ object is one way to try and make floating-point numbers in the signal domain more suitable for equality testing.",
					"linecount" : 2,
					"numoutlets" : 0,
					"fontsize" : 10.0,
					"frgb" : [ 0.333333, 0.333333, 0.333333, 1.0 ],
					"id" : "obj-4",
					"fontname" : "Verdana",
					"numinlets" : 1,
					"patching_rect" : [ 10.0, 57.0, 472.0, 31.0 ]
				}

			}
, 			{
				"box" : 				{
					"maxclass" : "textbutton",
					"varname" : "autohelp_top_ref",
					"bgcolor" : [ 0.0, 0.0, 0.0, 0.0 ],
					"bgoveroncolor" : [ 0.0, 0.0, 0.0, 0.0 ],
					"underline" : 1,
					"textcolor" : [ 0.27, 0.35, 0.47, 1.0 ],
					"numoutlets" : 3,
					"fontface" : 3,
					"fontsize" : 12.754705,
					"spacing_x" : 0.0,
					"bgoncolor" : [ 0.0, 0.0, 0.0, 0.0 ],
					"outlettype" : [ "", "", "int" ],
					"bordercolor" : [ 0.0, 0.0, 0.0, 0.0 ],
					"spacing_y" : 0.0,
					"textoncolor" : [ 0.27, 0.35, 0.47, 1.0 ],
					"presentation_rect" : [ 0.0, 0.0, 184.840515, 14.666666 ],
					"id" : "obj-5",
					"fontlink" : 1,
					"text" : "open tap.quantize~ reference",
					"textovercolor" : [ 0.4, 0.5, 0.65, 1.0 ],
					"fontname" : "Arial",
					"bgovercolor" : [ 0.0, 0.0, 0.0, 0.0 ],
					"numinlets" : 1,
					"patching_rect" : [ 315.159485, 22.0, 184.840515, 14.666666 ]
				}

			}
, 			{
				"box" : 				{
					"maxclass" : "panel",
					"varname" : "autohelp_top_panel",
					"grad2" : [ 0.9, 0.9, 0.9, 1.0 ],
					"numoutlets" : 0,
					"mode" : 1,
					"id" : "obj-6",
					"background" : 1,
					"grad1" : [ 0.88, 0.98, 0.78, 1.0 ],
					"numinlets" : 1,
					"patching_rect" : [ 5.0, 5.0, 495.0, 52.0 ]
				}

			}
 ],
		"lines" : [ 			{
				"patchline" : 				{
					"source" : [ "obj-18", 0 ],
					"destination" : [ "obj-17", 0 ],
					"hidden" : 0,
					"midpoints" : [  ]
				}

			}
, 			{
				"patchline" : 				{
					"source" : [ "obj-33", 0 ],
					"destination" : [ "obj-18", 0 ],
					"hidden" : 0,
					"midpoints" : [ 159.5, 176.0, 407.5, 176.0 ]
				}

			}
, 			{
				"patchline" : 				{
					"source" : [ "obj-12", 0 ],
					"destination" : [ "obj-11", 0 ],
					"hidden" : 0,
					"midpoints" : [  ]
				}

			}
, 			{
				"patchline" : 				{
					"source" : [ "obj-10", 0 ],
					"destination" : [ "obj-9", 0 ],
					"hidden" : 0,
					"midpoints" : [  ]
				}

			}
, 			{
				"patchline" : 				{
					"source" : [ "obj-12", 0 ],
					"destination" : [ "obj-10", 0 ],
					"hidden" : 0,
					"midpoints" : [  ]
				}

			}
, 			{
				"patchline" : 				{
					"source" : [ "obj-36", 0 ],
					"destination" : [ "obj-12", 0 ],
					"hidden" : 0,
					"midpoints" : [ 279.5, 251.0, 327.5, 251.0 ]
				}

			}
, 			{
				"patchline" : 				{
					"source" : [ "obj-36", 0 ],
					"destination" : [ "obj-26", 0 ],
					"hidden" : 0,
					"midpoints" : [  ]
				}

			}
, 			{
				"patchline" : 				{
					"source" : [ "obj-16", 0 ],
					"destination" : [ "obj-15", 0 ],
					"hidden" : 0,
					"midpoints" : [  ]
				}

			}
, 			{
				"patchline" : 				{
					"source" : [ "obj-33", 0 ],
					"destination" : [ "obj-36", 0 ],
					"hidden" : 0,
					"midpoints" : [ 159.5, 180.0, 279.5, 180.0 ]
				}

			}
, 			{
				"patchline" : 				{
					"source" : [ "obj-14", 0 ],
					"destination" : [ "obj-13", 0 ],
					"hidden" : 0,
					"midpoints" : [  ]
				}

			}
, 			{
				"patchline" : 				{
					"source" : [ "obj-16", 0 ],
					"destination" : [ "obj-14", 0 ],
					"hidden" : 0,
					"midpoints" : [  ]
				}

			}
, 			{
				"patchline" : 				{
					"source" : [ "obj-36", 0 ],
					"destination" : [ "obj-16", 0 ],
					"hidden" : 0,
					"midpoints" : [ 279.5, 251.0, 272.5, 251.0 ]
				}

			}
, 			{
				"patchline" : 				{
					"source" : [ "obj-31", 0 ],
					"destination" : [ "obj-34", 0 ],
					"hidden" : 1,
					"midpoints" : [  ]
				}

			}
, 			{
				"patchline" : 				{
					"source" : [ "obj-25", 0 ],
					"destination" : [ "obj-24", 0 ],
					"hidden" : 0,
					"midpoints" : [  ]
				}

			}
, 			{
				"patchline" : 				{
					"source" : [ "obj-23", 0 ],
					"destination" : [ "obj-22", 0 ],
					"hidden" : 0,
					"midpoints" : [  ]
				}

			}
, 			{
				"patchline" : 				{
					"source" : [ "obj-25", 0 ],
					"destination" : [ "obj-23", 0 ],
					"hidden" : 0,
					"midpoints" : [  ]
				}

			}
, 			{
				"patchline" : 				{
					"source" : [ "obj-36", 0 ],
					"destination" : [ "obj-25", 0 ],
					"hidden" : 0,
					"midpoints" : [ 279.5, 251.0, 217.5, 251.0 ]
				}

			}
, 			{
				"patchline" : 				{
					"source" : [ "obj-30", 0 ],
					"destination" : [ "obj-29", 0 ],
					"hidden" : 0,
					"midpoints" : [  ]
				}

			}
, 			{
				"patchline" : 				{
					"source" : [ "obj-28", 0 ],
					"destination" : [ "obj-27", 0 ],
					"hidden" : 0,
					"midpoints" : [  ]
				}

			}
, 			{
				"patchline" : 				{
					"source" : [ "obj-30", 0 ],
					"destination" : [ "obj-28", 0 ],
					"hidden" : 0,
					"midpoints" : [  ]
				}

			}
, 			{
				"patchline" : 				{
					"source" : [ "obj-36", 0 ],
					"destination" : [ "obj-30", 0 ],
					"hidden" : 0,
					"midpoints" : [ 279.5, 251.0, 162.5, 251.0 ]
				}

			}
, 			{
				"patchline" : 				{
					"source" : [ "obj-21", 0 ],
					"destination" : [ "obj-20", 0 ],
					"hidden" : 0,
					"midpoints" : [  ]
				}

			}
, 			{
				"patchline" : 				{
					"source" : [ "obj-33", 0 ],
					"destination" : [ "obj-21", 0 ],
					"hidden" : 0,
					"midpoints" : [  ]
				}

			}
, 			{
				"patchline" : 				{
					"source" : [ "obj-35", 0 ],
					"destination" : [ "obj-33", 0 ],
					"hidden" : 0,
					"midpoints" : [  ]
				}

			}
, 			{
				"patchline" : 				{
					"source" : [ "obj-34", 0 ],
					"destination" : [ "obj-35", 0 ],
					"hidden" : 1,
					"midpoints" : [  ]
				}

			}
 ]
	}

}
