{
	"patcher" : 	{
		"fileversion" : 1,
		"rect" : [ 148.0, 118.0, 513.0, 351.0 ],
		"bglocked" : 0,
		"defrect" : [ 148.0, 118.0, 513.0, 351.0 ],
		"openrect" : [ 0.0, 0.0, 0.0, 0.0 ],
		"openinpresentation" : 0,
		"default_fontsize" : 11.0,
		"default_fontface" : 0,
		"default_fontname" : "Verdana",
		"gridonopen" : 0,
		"gridsize" : [ 5.0, 5.0 ],
		"gridsnaponopen" : 0,
		"toolbarvisible" : 1,
		"boxanimatetime" : 200,
		"imprint" : 0,
		"boxes" : [ 			{
				"box" : 				{
					"maxclass" : "ezdac~",
					"numoutlets" : 0,
					"id" : "obj-8",
					"local" : 1,
					"numinlets" : 2,
					"patching_rect" : [ 187.0, 284.0, 40.0, 40.0 ]
				}

			}
, 			{
				"box" : 				{
					"maxclass" : "bpatcher",
					"numoutlets" : 0,
					"id" : "obj-69",
					"name" : "tap.badge.maxpat",
					"args" : [  ],
					"numinlets" : 0,
					"patching_rect" : [ 240.0, 271.0, 225.0, 67.0 ]
				}

			}
, 			{
				"box" : 				{
					"maxclass" : "newobj",
					"text" : "autohelp",
					"numoutlets" : 0,
					"fontsize" : 10.0,
					"hidden" : 1,
					"id" : "obj-52",
					"fontname" : "Verdana",
					"numinlets" : 1,
					"patching_rect" : [ 32.0, 279.0, 54.0, 19.0 ],
					"frozen_object_attributes" : 					{
						"helpfontname" : "Verdana",
						"helpfontsize" : 10.0
					}

				}

			}
, 			{
				"box" : 				{
					"maxclass" : "comment",
					"varname" : "autohelp_see_title",
					"text" : "See Also:",
					"textcolor" : [ 0.0, 0.0, 0.0, 1.0 ],
					"numoutlets" : 0,
					"fontface" : 1,
					"fontsize" : 11.595187,
					"frgb" : [ 0.0, 0.0, 0.0, 1.0 ],
					"id" : "obj-66",
					"fontname" : "Arial",
					"numinlets" : 1,
					"patching_rect" : [ 37.0, 283.0, 100.0, 20.0 ]
				}

			}
, 			{
				"box" : 				{
					"maxclass" : "umenu",
					"varname" : "autohelp_see_menu",
					"numoutlets" : 3,
					"fontsize" : 11.595187,
					"items" : [ "(Objects:)", ",", "average~", ",", "<separator>" ],
					"outlettype" : [ "int", "", "" ],
					"id" : "obj-67",
					"fontname" : "Arial",
					"types" : [  ],
					"numinlets" : 1,
					"patching_rect" : [ 37.0, 303.0, 130.0, 20.0 ]
				}

			}
, 			{
				"box" : 				{
					"maxclass" : "comment",
					"text" : "A higher responsiveness setting makes the output smoother.",
					"linecount" : 2,
					"numoutlets" : 0,
					"fontsize" : 10.0,
					"frgb" : [ 0.333333, 0.333333, 0.333333, 1.0 ],
					"id" : "obj-1",
					"fontname" : "Verdana",
					"numinlets" : 1,
					"patching_rect" : [ 325.0, 171.0, 186.0, 31.0 ]
				}

			}
, 			{
				"box" : 				{
					"maxclass" : "message",
					"text" : "0.9",
					"numoutlets" : 1,
					"fontsize" : 10.0,
					"outlettype" : [ "" ],
					"id" : "obj-2",
					"fontname" : "Verdana",
					"numinlets" : 2,
					"patching_rect" : [ 137.0, 159.0, 25.0, 17.0 ]
				}

			}
, 			{
				"box" : 				{
					"maxclass" : "message",
					"text" : "0.999",
					"numoutlets" : 1,
					"fontsize" : 10.0,
					"outlettype" : [ "" ],
					"id" : "obj-3",
					"fontname" : "Verdana",
					"numinlets" : 2,
					"patching_rect" : [ 161.0, 159.0, 41.0, 17.0 ]
				}

			}
, 			{
				"box" : 				{
					"maxclass" : "flonum",
					"numoutlets" : 2,
					"fontsize" : 10.0,
					"outlettype" : [ "float", "bang" ],
					"triscale" : 0.9,
					"id" : "obj-4",

					"fontname" : "Verdana",
					"numinlets" : 1,
					"patching_rect" : [ 137.0, 183.0, 90.0, 19.0 ],
					"htextcolor" : [ 0.870588, 0.870588, 0.870588, 1.0 ]
				}

			}
, 			{
				"box" : 				{
					"maxclass" : "comment",
					"text" : "responsiveness",
					"numoutlets" : 0,
					"fontsize" : 10.0,
					"frgb" : [ 0.333333, 0.333333, 0.333333, 1.0 ],
					"id" : "obj-5",
					"fontname" : "Verdana",
					"numinlets" : 1,
					"patching_rect" : [ 206.0, 169.0, 105.0, 19.0 ]
				}

			}
, 			{
				"box" : 				{
					"maxclass" : "message",
					"text" : "feedback_coefficient $1",
					"numoutlets" : 1,
					"fontsize" : 10.0,
					"outlettype" : [ "" ],
					"id" : "obj-6",
					"fontname" : "Verdana",
					"numinlets" : 2,
					"patching_rect" : [ 137.0, 201.0, 127.0, 17.0 ]
				}

			}
, 			{
				"box" : 				{
					"maxclass" : "comment",
					"text" : "Attributes",
					"numoutlets" : 0,
					"fontsize" : 12.0,
					"frgb" : [ 0.333333, 0.333333, 0.333333, 1.0 ],
					"id" : "obj-7",
					"fontname" : "Verdana",
					"numinlets" : 1,
					"patching_rect" : [ 130.0, 135.0, 253.0, 21.0 ]
				}

			}
, 			{
				"box" : 				{
					"maxclass" : "newobj",
					"text" : "cycle~ 1000",
					"numoutlets" : 1,
					"fontsize" : 10.0,
					"outlettype" : [ "signal" ],
					"id" : "obj-19",
					"fontname" : "Verdana",
					"numinlets" : 2,
					"patching_rect" : [ 22.0, 135.0, 78.0, 19.0 ]
				}

			}
, 			{
				"box" : 				{
					"maxclass" : "number~",
					"numoutlets" : 2,
					"fontsize" : 10.0,
					"outlettype" : [ "signal", "float" ],
					"mode" : 2,
					"sig" : 0.0,
					"sigoutmode" : 0,
					"id" : "obj-20",
					"fontname" : "Verdana",
					"numinlets" : 2,
					"patching_rect" : [ 21.0, 242.0, 67.0, 19.0 ],
					"htextcolor" : [ 0.870588, 0.870588, 0.870588, 1.0 ]
				}

			}
, 			{
				"box" : 				{
					"maxclass" : "gain~",
					"numoutlets" : 2,
					"orientation" : 2,
					"outlettype" : [ "signal", "int" ],
					"id" : "obj-21",
					"numinlets" : 2,
					"patching_rect" : [ 22.0, 157.0, 33.0, 58.0 ]
				}

			}
, 			{
				"box" : 				{
					"maxclass" : "newobj",
					"text" : "tap.rms~",
					"numoutlets" : 2,
					"fontsize" : 10.0,
					"outlettype" : [ "signal", "" ],
					"id" : "obj-22",
					"fontname" : "Verdana",
					"numinlets" : 1,
					"patching_rect" : [ 21.0, 221.0, 64.0, 19.0 ]
				}

			}
, 			{
				"box" : 				{
					"maxclass" : "panel",
					"varname" : "autohelp_see_panel",
					"bgcolor" : [ 0.85, 0.85, 0.85, 0.75 ],
					"numoutlets" : 0,
					"bordercolor" : [ 0.5, 0.5, 0.5, 0.75 ],
					"border" : 2,
					"id" : "obj-68",
					"background" : 1,
					"numinlets" : 1,
					"patching_rect" : [ 32.0, 279.0, 140.0, 50.0 ]
				}

			}
, 			{
				"box" : 				{
					"maxclass" : "comment",
					"varname" : "autohelp_top_title",
					"text" : "tap.rms~",
					"textcolor" : [ 0.2, 0.2, 0.2, 1.0 ],
					"numoutlets" : 0,
					"fontface" : 3,
					"fontsize" : 20.871338,
					"frgb" : [ 0.2, 0.2, 0.2, 1.0 ],
					"id" : "obj-10",
					"fontname" : "Arial",
					"numinlets" : 1,
					"patching_rect" : [ 10.0, 8.0, 485.0, 30.0 ]
				}

			}
, 			{
				"box" : 				{
					"maxclass" : "comment",
					"varname" : "autohelp_top_digest",
					"text" : "Root-mean-square of a signal",
					"textcolor" : [ 0.2, 0.2, 0.2, 1.0 ],
					"numoutlets" : 0,
					"fontsize" : 12.754705,
					"frgb" : [ 0.2, 0.2, 0.2, 1.0 ],
					"id" : "obj-11",
					"fontname" : "Arial",
					"numinlets" : 1,
					"patching_rect" : [ 10.0, 36.0, 485.0, 21.0 ]
				}

			}
, 			{
				"box" : 				{
					"maxclass" : "comment",
					"varname" : "autohelp_top_description",
					"text" : "The tap.rms~ object outputs the power of an input signal. This is useful for a number of analysis and envelope-following applications.",
					"linecount" : 2,
					"numoutlets" : 0,
					"fontsize" : 10.0,
					"frgb" : [ 0.333333, 0.333333, 0.333333, 1.0 ],
					"id" : "obj-12",
					"fontname" : "Verdana",
					"numinlets" : 1,
					"patching_rect" : [ 10.0, 57.0, 462.0, 31.0 ]
				}

			}
, 			{
				"box" : 				{
					"maxclass" : "textbutton",
					"varname" : "autohelp_top_ref",
					"bgcolor" : [ 0.0, 0.0, 0.0, 0.0 ],
					"bgoveroncolor" : [ 0.0, 0.0, 0.0, 0.0 ],
					"underline" : 1,
					"textcolor" : [ 0.4, 0.5, 0.65, 1.0 ],
					"numoutlets" : 3,
					"fontface" : 3,
					"fontsize" : 12.754705,
					"spacing_x" : 0.0,
					"bgoncolor" : [ 0.0, 0.0, 0.0, 0.0 ],
					"outlettype" : [ "", "", "int" ],
					"bordercolor" : [ 0.0, 0.0, 0.0, 0.0 ],
					"spacing_y" : 0.0,
					"textoncolor" : [ 0.27, 0.35, 0.47, 1.0 ],
					"presentation_rect" : [ 0.0, 0.0, 156.509888, 14.666666 ],
					"id" : "obj-13",
					"fontlink" : 1,
					"text" : "open tap.rms~ reference",
					"textovercolor" : [ 0.4, 0.5, 0.65, 1.0 ],
					"fontname" : "Arial",
					"bgovercolor" : [ 0.0, 0.0, 0.0, 0.0 ],
					"numinlets" : 1,
					"patching_rect" : [ 343.490112, 22.0, 156.509888, 14.666666 ]
				}

			}
, 			{
				"box" : 				{
					"maxclass" : "panel",
					"varname" : "autohelp_top_panel",
					"grad2" : [ 0.9, 0.9, 0.9, 1.0 ],
					"numoutlets" : 0,
					"mode" : 1,
					"id" : "obj-14",
					"background" : 1,
					"grad1" : [ 0.88, 0.98, 0.78, 1.0 ],
					"numinlets" : 1,
					"patching_rect" : [ 5.0, 5.0, 495.0, 52.0 ]
				}

			}
 ],
		"lines" : [ 			{
				"patchline" : 				{
					"source" : [ "obj-19", 0 ],
					"destination" : [ "obj-21", 0 ],
					"hidden" : 0,
					"midpoints" : [  ]
				}

			}
, 			{
				"patchline" : 				{
					"source" : [ "obj-6", 0 ],
					"destination" : [ "obj-22", 0 ],
					"hidden" : 1,
					"midpoints" : [  ]
				}

			}
, 			{
				"patchline" : 				{
					"source" : [ "obj-21", 0 ],
					"destination" : [ "obj-22", 0 ],
					"hidden" : 0,
					"midpoints" : [  ]
				}

			}
, 			{
				"patchline" : 				{
					"source" : [ "obj-22", 0 ],
					"destination" : [ "obj-20", 0 ],
					"hidden" : 0,
					"midpoints" : [  ]
				}

			}
, 			{
				"patchline" : 				{
					"source" : [ "obj-3", 0 ],
					"destination" : [ "obj-4", 0 ],
					"hidden" : 0,
					"midpoints" : [  ]
				}

			}
, 			{
				"patchline" : 				{
					"source" : [ "obj-2", 0 ],
					"destination" : [ "obj-4", 0 ],
					"hidden" : 0,
					"midpoints" : [  ]
				}

			}
, 			{
				"patchline" : 				{
					"source" : [ "obj-4", 0 ],
					"destination" : [ "obj-6", 0 ],
					"hidden" : 0,
					"midpoints" : [  ]
				}

			}
 ]
	}

}
