{
	"patcher" : 	{
		"rect" : [ 332.0, 99.0, 547.0, 427.0 ],
		"bglocked" : 0,
		"defrect" : [ 332.0, 99.0, 547.0, 427.0 ],
		"openrect" : [ 0.0, 0.0, 0.0, 0.0 ],
		"openinpresentation" : 0,
		"default_fontsize" : 9.0,
		"default_fontface" : 0,
		"default_fontname" : "Verdana",
		"gridonopen" : 0,
		"gridsize" : [ 10.0, 5.0 ],
		"gridsnaponopen" : 0,
		"toolbarvisible" : 1,
		"boxanimatetime" : 200,
		"imprint" : 0,
		"metadata" : [  ],
		"boxes" : [ 			{
				"box" : 				{
					"maxclass" : "comment",
					"text" : "another approach to the same problem is to use tap.limi~ with a very high preamp value.",
					"linecount" : 2,
					"fontsize" : 10.533333,
					"numinlets" : 1,
					"patching_rect" : [ 148.0, 291.0, 292.0, 35.0 ],
					"numoutlets" : 0,
					"fontname" : "Arial",
					"frgb" : [ 0.658824, 0.658824, 0.658824, 1.0 ],
					"id" : "obj-1"
				}

			}
, 			{
				"box" : 				{
					"maxclass" : "comment",
					"text" : "keep a signal hot",
					"fontsize" : 10.533333,
					"numinlets" : 1,
					"patching_rect" : [ 133.0, 34.0, 309.0, 21.0 ],
					"numoutlets" : 0,
					"fontname" : "Arial",
					"frgb" : [ 0.87451, 0.87451, 0.87451, 1.0 ],
					"id" : "obj-2",
					"textcolor" : [ 0.87451, 0.87451, 0.87451, 1.0 ]
				}

			}
, 			{
				"box" : 				{
					"maxclass" : "comment",
					"text" : "tap.normalizer~",
					"fontsize" : 21.066666,
					"numinlets" : 1,
					"patching_rect" : [ 133.0, 5.0, 309.0, 35.0 ],
					"numoutlets" : 0,
					"fontname" : "Arial",
					"frgb" : [ 0.87451, 0.87451, 0.87451, 1.0 ],
					"id" : "obj-3",
					"textcolor" : [ 0.87451, 0.87451, 0.87451, 1.0 ]
				}

			}
, 			{
				"box" : 				{
					"maxclass" : "message",
					"text" : "set 500",
					"fontsize" : 7.9,
					"numinlets" : 2,
					"patching_rect" : [ 466.0, 97.0, 44.0, 15.0 ],
					"numoutlets" : 1,
					"fontname" : "Arial",
					"outlettype" : [ "" ],
					"hidden" : 1,
					"id" : "obj-4"
				}

			}
, 			{
				"box" : 				{
					"maxclass" : "message",
					"text" : "set -6",
					"fontsize" : 7.9,
					"numinlets" : 2,
					"patching_rect" : [ 426.0, 97.0, 35.0, 15.0 ],
					"numoutlets" : 1,
					"fontname" : "Arial",
					"outlettype" : [ "" ],
					"hidden" : 1,
					"id" : "obj-5"
				}

			}
, 			{
				"box" : 				{
					"maxclass" : "message",
					"text" : "set 100",
					"fontsize" : 7.9,
					"numinlets" : 2,
					"patching_rect" : [ 404.0, 97.0, 44.0, 15.0 ],
					"numoutlets" : 1,
					"fontname" : "Arial",
					"outlettype" : [ "" ],
					"hidden" : 1,
					"id" : "obj-6"
				}

			}
, 			{
				"box" : 				{
					"maxclass" : "message",
					"text" : "set 50",
					"fontsize" : 7.9,
					"numinlets" : 2,
					"patching_rect" : [ 380.0, 97.0, 38.0, 15.0 ],
					"numoutlets" : 1,
					"fontname" : "Arial",
					"outlettype" : [ "" ],
					"hidden" : 1,
					"id" : "obj-7"
				}

			}
, 			{
				"box" : 				{
					"maxclass" : "newobj",
					"text" : "loadbang",
					"fontsize" : 7.9,
					"numinlets" : 1,
					"patching_rect" : [ 441.0, 55.0, 53.0, 17.0 ],
					"numoutlets" : 1,
					"fontname" : "Arial",
					"outlettype" : [ "bang" ],
					"hidden" : 1,
					"id" : "obj-8"
				}

			}
, 			{
				"box" : 				{
					"maxclass" : "message",
					"text" : "startwindow",
					"fontsize" : 7.9,
					"numinlets" : 2,
					"patching_rect" : [ 169.0, 354.0, 79.0, 15.0 ],
					"numoutlets" : 1,
					"fontname" : "Arial",
					"outlettype" : [ "" ],
					"id" : "obj-9"
				}

			}
, 			{
				"box" : 				{
					"maxclass" : "gain~",
					"orientation" : 2,
					"numinlets" : 2,
					"patching_rect" : [ 120.0, 211.0, 22.0, 122.0 ],
					"numoutlets" : 2,
					"outlettype" : [ "signal", "int" ],
					"id" : "obj-10"
				}

			}
, 			{
				"box" : 				{
					"maxclass" : "ezdac~",
					"numinlets" : 2,
					"patching_rect" : [ 119.0, 347.0, 33.0, 33.0 ],
					"numoutlets" : 0,
					"id" : "obj-11"
				}

			}
, 			{
				"box" : 				{
					"maxclass" : "message",
					"text" : "open",
					"fontsize" : 7.9,
					"numinlets" : 2,
					"patching_rect" : [ 136.0, 140.0, 44.0, 15.0 ],
					"numoutlets" : 1,
					"fontname" : "Arial",
					"outlettype" : [ "" ],
					"id" : "obj-12"
				}

			}
, 			{
				"box" : 				{
					"maxclass" : "toggle",
					"numinlets" : 1,
					"patching_rect" : [ 119.0, 140.0, 15.0, 15.0 ],
					"numoutlets" : 1,
					"outlettype" : [ "int" ],
					"id" : "obj-13"
				}

			}
, 			{
				"box" : 				{
					"maxclass" : "newobj",
					"text" : "sfplay~",
					"fontsize" : 7.9,
					"numinlets" : 2,
					"patching_rect" : [ 119.0, 162.0, 59.0, 17.0 ],
					"numoutlets" : 2,
					"fontname" : "Arial",
					"outlettype" : [ "signal", "bang" ],
					"id" : "obj-14",
					"save" : [ "#N", "sfplay~", "", 1, 16384, 0, "", ";" ]
				}

			}
, 			{
				"box" : 				{
					"maxclass" : "newobj",
					"text" : "tap.normalizer~ 10000",
					"fontsize" : 10.533333,
					"numinlets" : 1,
					"patching_rect" : [ 119.0, 186.0, 169.0, 21.0 ],
					"numoutlets" : 1,
					"fontname" : "Arial",
					"outlettype" : [ "signal" ],
					"id" : "obj-15"
				}

			}
, 			{
				"box" : 				{
					"maxclass" : "comment",
					"text" : "Keeps a signal hot without clipping by crossfading between reseting normalize~ processes. The required argument sets the interval (in ms) of the normalization reset.",
					"linecount" : 4,
					"fontsize" : 10.533333,
					"numinlets" : 1,
					"patching_rect" : [ 147.0, 219.0, 292.0, 63.0 ],
					"numoutlets" : 0,
					"fontname" : "Arial",
					"frgb" : [ 0.658824, 0.658824, 0.658824, 1.0 ],
					"id" : "obj-16"
				}

			}
, 			{
				"box" : 				{
					"maxclass" : "fpic",
					"background" : 1,
					"numinlets" : 1,
					"pic" : "ttblue_icon.bmp",
					"patching_rect" : [ -1.0, -1.0, 130.0, 130.0 ],
					"numoutlets" : 0,
					"id" : "obj-17"
				}

			}
, 			{
				"box" : 				{
					"maxclass" : "newobj",
					"text" : "b 1",
					"fontsize" : 7.9,
					"background" : 1,
					"numinlets" : 1,
					"patching_rect" : [ 262.0, 60.0, 22.0, 17.0 ],
					"numoutlets" : 1,
					"fontname" : "Arial",
					"outlettype" : [ "bang" ],
					"hidden" : 1,
					"id" : "obj-18"
				}

			}
, 			{
				"box" : 				{
					"maxclass" : "message",
					"text" : ";\rmax launch_browser www.electrotap.com",
					"linecount" : 3,
					"fontsize" : 7.9,
					"background" : 1,
					"numinlets" : 2,
					"patching_rect" : [ 262.0, 86.0, 108.0, 36.0 ],
					"numoutlets" : 1,
					"fontname" : "Arial",
					"outlettype" : [ "" ],
					"hidden" : 1,
					"id" : "obj-19"
				}

			}
, 			{
				"box" : 				{
					"maxclass" : "umenu",
					"bgcolor" : [ 0.866667, 0.866667, 0.866667, 1.0 ],
					"menumode" : 2,
					"labelclick" : 1,
					"fontsize" : 10.533333,
					"background" : 1,
					"numinlets" : 1,
					"items" : "electrotap.com",
					"arrowlink" : 1,
					"patching_rect" : [ 133.0, 106.0, 126.0, 21.0 ],
					"numoutlets" : 3,
					"types" : [  ],
					"fontname" : "Arial",
					"outlettype" : [ "int", "", "" ],
					"id" : "obj-20",
					"textcolor" : [ 0.0, 0.0, 0.0, 1.0 ]
				}

			}
, 			{
				"box" : 				{
					"maxclass" : "comment",
					"text" : "by timothy place",
					"fontsize" : 12.288889,
					"background" : 1,
					"numinlets" : 1,
					"patching_rect" : [ 133.0, 87.0, 125.0, 23.0 ],
					"numoutlets" : 0,
					"fontname" : "Arial",
					"frgb" : [ 0.658824, 0.658824, 0.658824, 1.0 ],
					"id" : "obj-21"
				}

			}
, 			{
				"box" : 				{
					"maxclass" : "panel",
					"bgcolor" : [ 0.388235, 0.388235, 0.388235, 1.0 ],
					"background" : 1,
					"numinlets" : 1,
					"patching_rect" : [ 128.0, 0.0, 402.0, 128.0 ],
					"numoutlets" : 0,
					"rounded" : 0,
					"id" : "obj-22"
				}

			}
 ],
		"lines" : [ 			{
				"patchline" : 				{
					"source" : [ "obj-8", 0 ],
					"destination" : [ "obj-4", 0 ],
					"hidden" : 1
				}

			}
, 			{
				"patchline" : 				{
					"source" : [ "obj-8", 0 ],
					"destination" : [ "obj-5", 0 ],
					"hidden" : 1
				}

			}
, 			{
				"patchline" : 				{
					"source" : [ "obj-8", 0 ],
					"destination" : [ "obj-6", 0 ],
					"hidden" : 1
				}

			}
, 			{
				"patchline" : 				{
					"source" : [ "obj-8", 0 ],
					"destination" : [ "obj-7", 0 ],
					"hidden" : 1
				}

			}
, 			{
				"patchline" : 				{
					"source" : [ "obj-18", 0 ],
					"destination" : [ "obj-19", 0 ],
					"hidden" : 1
				}

			}
, 			{
				"patchline" : 				{
					"source" : [ "obj-20", 0 ],
					"destination" : [ "obj-18", 0 ],
					"hidden" : 1
				}

			}
, 			{
				"patchline" : 				{
					"source" : [ "obj-10", 0 ],
					"destination" : [ "obj-11", 1 ],
					"hidden" : 0
				}

			}
, 			{
				"patchline" : 				{
					"source" : [ "obj-9", 0 ],
					"destination" : [ "obj-11", 0 ],
					"hidden" : 1
				}

			}
, 			{
				"patchline" : 				{
					"source" : [ "obj-10", 0 ],
					"destination" : [ "obj-11", 0 ],
					"hidden" : 0
				}

			}
, 			{
				"patchline" : 				{
					"source" : [ "obj-15", 0 ],
					"destination" : [ "obj-10", 0 ],
					"hidden" : 0
				}

			}
, 			{
				"patchline" : 				{
					"source" : [ "obj-14", 0 ],
					"destination" : [ "obj-15", 0 ],
					"hidden" : 0
				}

			}
, 			{
				"patchline" : 				{
					"source" : [ "obj-13", 0 ],
					"destination" : [ "obj-14", 0 ],
					"hidden" : 0
				}

			}
, 			{
				"patchline" : 				{
					"source" : [ "obj-12", 0 ],
					"destination" : [ "obj-14", 0 ],
					"hidden" : 0
				}

			}
 ]
	}

}
