{
	"patcher" : 	{
		"rect" : [ 68.0, 46.0, 466.0, 220.0 ],
		"bgcolor" : [ 0.1, 0.1, 0.1, 1.0 ],
		"bglocked" : 0,
		"defrect" : [ 68.0, 46.0, 466.0, 220.0 ],
		"openrect" : [ 0.0, 0.0, 0.0, 0.0 ],
		"openinpresentation" : 0,
		"default_fontsize" : 9.0,
		"default_fontface" : 0,
		"default_fontname" : "Verdana",
		"gridonopen" : 0,
		"gridsize" : [ 10.0, 5.0 ],
		"gridsnaponopen" : 0,
		"toolbarvisible" : 1,
		"boxanimatetime" : 200,
		"imprint" : 0,
		"metadata" : [  ],
		"boxes" : [ 			{
				"box" : 				{
					"maxclass" : "newobj",
					"text" : "loadbang",
					"fontsize" : 7.9,
					"numinlets" : 1,
					"patching_rect" : [ 27.0, 43.0, 45.0, 17.0 ],
					"numoutlets" : 1,
					"fontname" : "Geneva",
					"outlettype" : [ "bang" ],
					"id" : "obj-1"
				}

			}
, 			{
				"box" : 				{
					"maxclass" : "message",
					"text" : "QAll $1",
					"fontsize" : 7.9,
					"numinlets" : 2,
					"patching_rect" : [ 365.0, 79.0, 42.0, 15.0 ],
					"numoutlets" : 1,
					"fontname" : "Geneva",
					"outlettype" : [ "" ],
					"id" : "obj-2"
				}

			}
, 			{
				"box" : 				{
					"maxclass" : "message",
					"text" : "freq 0 20 27 36 49 66 89 121 163 220 297 402 542 732 989 1335 1803 2434 3286 4436 5989 8085 10915 14735 19893",
					"linecount" : 2,
					"fontsize" : 7.9,
					"numinlets" : 2,
					"patching_rect" : [ 27.0, 63.0, 294.0, 26.0 ],
					"numoutlets" : 1,
					"fontname" : "Geneva",
					"outlettype" : [ "" ],
					"id" : "obj-3"
				}

			}
, 			{
				"box" : 				{
					"maxclass" : "newobj",
					"text" : "fffb~ 24",
					"fontsize" : 7.9,
					"numinlets" : 1,
					"patching_rect" : [ 11.0, 109.0, 428.0, 17.0 ],
					"numoutlets" : 24,
					"fontname" : "Geneva",
					"outlettype" : [ "signal", "signal", "signal", "signal", "signal", "signal", "signal", "signal", "signal", "signal", "signal", "signal", "signal", "signal", "signal", "signal", "signal", "signal", "signal", "signal", "signal", "signal", "signal", "signal" ],
					"id" : "obj-4"
				}

			}
, 			{
				"box" : 				{
					"maxclass" : "inlet",
					"numinlets" : 0,
					"patching_rect" : [ 365.0, 45.0, 15.0, 15.0 ],
					"numoutlets" : 1,
					"outlettype" : [ "" ],
					"id" : "obj-5",
					"comment" : "Q"
				}

			}
, 			{
				"box" : 				{
					"maxclass" : "outlet",
					"numinlets" : 1,
					"patching_rect" : [ 335.0, 140.0, 13.0, 13.0 ],
					"numoutlets" : 0,
					"id" : "obj-6",
					"comment" : ""
				}

			}
, 			{
				"box" : 				{
					"maxclass" : "outlet",
					"numinlets" : 1,
					"patching_rect" : [ 353.0, 140.0, 13.0, 13.0 ],
					"numoutlets" : 0,
					"id" : "obj-7",
					"comment" : ""
				}

			}
, 			{
				"box" : 				{
					"maxclass" : "outlet",
					"numinlets" : 1,
					"patching_rect" : [ 371.0, 140.0, 13.0, 13.0 ],
					"numoutlets" : 0,
					"id" : "obj-8",
					"comment" : ""
				}

			}
, 			{
				"box" : 				{
					"maxclass" : "outlet",
					"numinlets" : 1,
					"patching_rect" : [ 389.0, 140.0, 13.0, 13.0 ],
					"numoutlets" : 0,
					"id" : "obj-9",
					"comment" : ""
				}

			}
, 			{
				"box" : 				{
					"maxclass" : "outlet",
					"numinlets" : 1,
					"patching_rect" : [ 407.0, 140.0, 13.0, 13.0 ],
					"numoutlets" : 0,
					"id" : "obj-10",
					"comment" : ""
				}

			}
, 			{
				"box" : 				{
					"maxclass" : "outlet",
					"numinlets" : 1,
					"patching_rect" : [ 425.0, 140.0, 13.0, 13.0 ],
					"numoutlets" : 0,
					"id" : "obj-11",
					"comment" : ""
				}

			}
, 			{
				"box" : 				{
					"maxclass" : "outlet",
					"numinlets" : 1,
					"patching_rect" : [ 191.0, 140.0, 13.0, 13.0 ],
					"numoutlets" : 0,
					"id" : "obj-12",
					"comment" : ""
				}

			}
, 			{
				"box" : 				{
					"maxclass" : "outlet",
					"numinlets" : 1,
					"patching_rect" : [ 209.0, 140.0, 13.0, 13.0 ],
					"numoutlets" : 0,
					"id" : "obj-13",
					"comment" : ""
				}

			}
, 			{
				"box" : 				{
					"maxclass" : "outlet",
					"numinlets" : 1,
					"patching_rect" : [ 227.0, 140.0, 13.0, 13.0 ],
					"numoutlets" : 0,
					"id" : "obj-14",
					"comment" : ""
				}

			}
, 			{
				"box" : 				{
					"maxclass" : "outlet",
					"numinlets" : 1,
					"patching_rect" : [ 245.0, 140.0, 13.0, 13.0 ],
					"numoutlets" : 0,
					"id" : "obj-15",
					"comment" : ""
				}

			}
, 			{
				"box" : 				{
					"maxclass" : "outlet",
					"numinlets" : 1,
					"patching_rect" : [ 263.0, 140.0, 13.0, 13.0 ],
					"numoutlets" : 0,
					"id" : "obj-16",
					"comment" : ""
				}

			}
, 			{
				"box" : 				{
					"maxclass" : "outlet",
					"numinlets" : 1,
					"patching_rect" : [ 281.0, 140.0, 13.0, 13.0 ],
					"numoutlets" : 0,
					"id" : "obj-17",
					"comment" : ""
				}

			}
, 			{
				"box" : 				{
					"maxclass" : "outlet",
					"numinlets" : 1,
					"patching_rect" : [ 299.0, 140.0, 13.0, 13.0 ],
					"numoutlets" : 0,
					"id" : "obj-18",
					"comment" : ""
				}

			}
, 			{
				"box" : 				{
					"maxclass" : "outlet",
					"numinlets" : 1,
					"patching_rect" : [ 317.0, 140.0, 13.0, 13.0 ],
					"numoutlets" : 0,
					"id" : "obj-19",
					"comment" : ""
				}

			}
, 			{
				"box" : 				{
					"maxclass" : "outlet",
					"numinlets" : 1,
					"patching_rect" : [ 173.0, 140.0, 13.0, 13.0 ],
					"numoutlets" : 0,
					"id" : "obj-20",
					"comment" : ""
				}

			}
, 			{
				"box" : 				{
					"maxclass" : "outlet",
					"numinlets" : 1,
					"patching_rect" : [ 29.0, 140.0, 13.0, 13.0 ],
					"numoutlets" : 0,
					"id" : "obj-21",
					"comment" : ""
				}

			}
, 			{
				"box" : 				{
					"maxclass" : "outlet",
					"numinlets" : 1,
					"patching_rect" : [ 47.0, 140.0, 13.0, 13.0 ],
					"numoutlets" : 0,
					"id" : "obj-22",
					"comment" : ""
				}

			}
, 			{
				"box" : 				{
					"maxclass" : "outlet",
					"numinlets" : 1,
					"patching_rect" : [ 65.0, 140.0, 13.0, 13.0 ],
					"numoutlets" : 0,
					"id" : "obj-23",
					"comment" : ""
				}

			}
, 			{
				"box" : 				{
					"maxclass" : "outlet",
					"numinlets" : 1,
					"patching_rect" : [ 83.0, 140.0, 13.0, 13.0 ],
					"numoutlets" : 0,
					"id" : "obj-24",
					"comment" : ""
				}

			}
, 			{
				"box" : 				{
					"maxclass" : "outlet",
					"numinlets" : 1,
					"patching_rect" : [ 101.0, 140.0, 13.0, 13.0 ],
					"numoutlets" : 0,
					"id" : "obj-25",
					"comment" : ""
				}

			}
, 			{
				"box" : 				{
					"maxclass" : "outlet",
					"numinlets" : 1,
					"patching_rect" : [ 119.0, 140.0, 13.0, 13.0 ],
					"numoutlets" : 0,
					"id" : "obj-26",
					"comment" : ""
				}

			}
, 			{
				"box" : 				{
					"maxclass" : "outlet",
					"numinlets" : 1,
					"patching_rect" : [ 137.0, 140.0, 13.0, 13.0 ],
					"numoutlets" : 0,
					"id" : "obj-27",
					"comment" : ""
				}

			}
, 			{
				"box" : 				{
					"maxclass" : "outlet",
					"numinlets" : 1,
					"patching_rect" : [ 155.0, 140.0, 13.0, 13.0 ],
					"numoutlets" : 0,
					"id" : "obj-28",
					"comment" : ""
				}

			}
, 			{
				"box" : 				{
					"maxclass" : "outlet",
					"numinlets" : 1,
					"patching_rect" : [ 11.0, 140.0, 13.0, 13.0 ],
					"numoutlets" : 0,
					"id" : "obj-29",
					"comment" : ""
				}

			}
, 			{
				"box" : 				{
					"maxclass" : "inlet",
					"numinlets" : 0,
					"patching_rect" : [ 11.0, 21.0, 15.0, 15.0 ],
					"numoutlets" : 1,
					"outlettype" : [ "" ],
					"id" : "obj-30",
					"comment" : "Input"
				}

			}
 ],
		"lines" : [ 			{
				"patchline" : 				{
					"source" : [ "obj-4", 23 ],
					"destination" : [ "obj-11", 0 ],
					"hidden" : 0
				}

			}
, 			{
				"patchline" : 				{
					"source" : [ "obj-4", 22 ],
					"destination" : [ "obj-10", 0 ],
					"hidden" : 0
				}

			}
, 			{
				"patchline" : 				{
					"source" : [ "obj-4", 21 ],
					"destination" : [ "obj-9", 0 ],
					"hidden" : 0
				}

			}
, 			{
				"patchline" : 				{
					"source" : [ "obj-4", 20 ],
					"destination" : [ "obj-8", 0 ],
					"hidden" : 0
				}

			}
, 			{
				"patchline" : 				{
					"source" : [ "obj-5", 0 ],
					"destination" : [ "obj-2", 0 ],
					"hidden" : 0
				}

			}
, 			{
				"patchline" : 				{
					"source" : [ "obj-4", 19 ],
					"destination" : [ "obj-7", 0 ],
					"hidden" : 0
				}

			}
, 			{
				"patchline" : 				{
					"source" : [ "obj-4", 18 ],
					"destination" : [ "obj-6", 0 ],
					"hidden" : 0
				}

			}
, 			{
				"patchline" : 				{
					"source" : [ "obj-4", 17 ],
					"destination" : [ "obj-19", 0 ],
					"hidden" : 0
				}

			}
, 			{
				"patchline" : 				{
					"source" : [ "obj-4", 16 ],
					"destination" : [ "obj-18", 0 ],
					"hidden" : 0
				}

			}
, 			{
				"patchline" : 				{
					"source" : [ "obj-4", 15 ],
					"destination" : [ "obj-17", 0 ],
					"hidden" : 0
				}

			}
, 			{
				"patchline" : 				{
					"source" : [ "obj-4", 14 ],
					"destination" : [ "obj-16", 0 ],
					"hidden" : 0
				}

			}
, 			{
				"patchline" : 				{
					"source" : [ "obj-4", 13 ],
					"destination" : [ "obj-15", 0 ],
					"hidden" : 0
				}

			}
, 			{
				"patchline" : 				{
					"source" : [ "obj-4", 12 ],
					"destination" : [ "obj-14", 0 ],
					"hidden" : 0
				}

			}
, 			{
				"patchline" : 				{
					"source" : [ "obj-4", 11 ],
					"destination" : [ "obj-13", 0 ],
					"hidden" : 0
				}

			}
, 			{
				"patchline" : 				{
					"source" : [ "obj-4", 10 ],
					"destination" : [ "obj-12", 0 ],
					"hidden" : 0
				}

			}
, 			{
				"patchline" : 				{
					"source" : [ "obj-4", 9 ],
					"destination" : [ "obj-20", 0 ],
					"hidden" : 0
				}

			}
, 			{
				"patchline" : 				{
					"source" : [ "obj-4", 8 ],
					"destination" : [ "obj-28", 0 ],
					"hidden" : 0
				}

			}
, 			{
				"patchline" : 				{
					"source" : [ "obj-4", 7 ],
					"destination" : [ "obj-27", 0 ],
					"hidden" : 0
				}

			}
, 			{
				"patchline" : 				{
					"source" : [ "obj-4", 6 ],
					"destination" : [ "obj-26", 0 ],
					"hidden" : 0
				}

			}
, 			{
				"patchline" : 				{
					"source" : [ "obj-4", 5 ],
					"destination" : [ "obj-25", 0 ],
					"hidden" : 0
				}

			}
, 			{
				"patchline" : 				{
					"source" : [ "obj-4", 4 ],
					"destination" : [ "obj-24", 0 ],
					"hidden" : 0
				}

			}
, 			{
				"patchline" : 				{
					"source" : [ "obj-4", 3 ],
					"destination" : [ "obj-23", 0 ],
					"hidden" : 0
				}

			}
, 			{
				"patchline" : 				{
					"source" : [ "obj-4", 2 ],
					"destination" : [ "obj-22", 0 ],
					"hidden" : 0
				}

			}
, 			{
				"patchline" : 				{
					"source" : [ "obj-4", 1 ],
					"destination" : [ "obj-21", 0 ],
					"hidden" : 0
				}

			}
, 			{
				"patchline" : 				{
					"source" : [ "obj-1", 0 ],
					"destination" : [ "obj-3", 0 ],
					"hidden" : 0
				}

			}
, 			{
				"patchline" : 				{
					"source" : [ "obj-4", 0 ],
					"destination" : [ "obj-29", 0 ],
					"hidden" : 0
				}

			}
, 			{
				"patchline" : 				{
					"source" : [ "obj-2", 0 ],
					"destination" : [ "obj-4", 0 ],
					"hidden" : 0
				}

			}
, 			{
				"patchline" : 				{
					"source" : [ "obj-3", 0 ],
					"destination" : [ "obj-4", 0 ],
					"hidden" : 0
				}

			}
, 			{
				"patchline" : 				{
					"source" : [ "obj-30", 0 ],
					"destination" : [ "obj-4", 0 ],
					"hidden" : 0
				}

			}
 ]
	}

}
