{
	"patcher" : 	{
		"fileversion" : 1,
		"rect" : [ 229.0, 201.0, 640.0, 480.0 ],
		"bglocked" : 0,
		"defrect" : [ 229.0, 201.0, 640.0, 480.0 ],
		"openrect" : [ 0.0, 0.0, 0.0, 0.0 ],
		"openinpresentation" : 0,
		"default_fontsize" : 11.595187,
		"default_fontface" : 0,
		"default_fontname" : "Arial",
		"gridonopen" : 0,
		"gridsize" : [ 10.0, 5.0 ],
		"gridsnaponopen" : 0,
		"toolbarvisible" : 1,
		"boxanimatetime" : 200,
		"imprint" : 0,
		"metadata" : [  ],
		"boxes" : [ 			{
				"box" : 				{
					"maxclass" : "message",
					"text" : "3 70",
					"numinlets" : 2,
					"patching_rect" : [ 350.0, 185.0, 33.0, 18.0 ],
					"id" : "obj-13",
					"fontname" : "Arial",
					"numoutlets" : 1,
					"outlettype" : [ "" ],
					"fontsize" : 11.595187,
					"presentation_rect" : [ 341.0, 206.0, 0.0, 0.0 ]
				}

			}
, 			{
				"box" : 				{
					"maxclass" : "message",
					"text" : "3 70 5",
					"numinlets" : 2,
					"patching_rect" : [ 300.0, 185.0, 43.0, 18.0 ],
					"id" : "obj-12",
					"fontname" : "Arial",
					"numoutlets" : 1,
					"outlettype" : [ "" ],
					"fontsize" : 11.595187
				}

			}
, 			{
				"box" : 				{
					"maxclass" : "button",
					"numinlets" : 1,
					"patching_rect" : [ 162.0, 185.0, 20.0, 20.0 ],
					"id" : "obj-11",
					"numoutlets" : 1,
					"outlettype" : [ "bang" ]
				}

			}
, 			{
				"box" : 				{
					"maxclass" : "message",
					"text" : "mode -",
					"numinlets" : 2,
					"patching_rect" : [ 40.0, 200.0, 44.0, 17.0 ],
					"id" : "obj-9",
					"fontname" : "Verdana",
					"numoutlets" : 1,
					"outlettype" : [ "" ],
					"fontsize" : 10.0
				}

			}
, 			{
				"box" : 				{
					"maxclass" : "flonum",
					"numinlets" : 1,
					"patching_rect" : [ 200.0, 185.0, 51.0, 19.0 ],
					"id" : "obj-8",
					"fontname" : "Verdana",
					"numoutlets" : 2,
					"outlettype" : [ "float", "bang" ],
					"fontsize" : 10.0
				}

			}
, 			{
				"box" : 				{
					"maxclass" : "number",
					"numinlets" : 1,
					"patching_rect" : [ 80.0, 280.0, 51.0, 19.0 ],
					"id" : "obj-7",
					"fontname" : "Verdana",
					"numoutlets" : 2,
					"outlettype" : [ "int", "bang" ],
					"fontsize" : 10.0
				}

			}
, 			{
				"box" : 				{
					"maxclass" : "flonum",
					"numinlets" : 1,
					"patching_rect" : [ 140.0, 280.0, 51.0, 19.0 ],
					"id" : "obj-6",
					"fontname" : "Verdana",
					"numoutlets" : 2,
					"outlettype" : [ "float", "bang" ],
					"fontsize" : 10.0
				}

			}
, 			{
				"box" : 				{
					"maxclass" : "flonum",
					"numinlets" : 1,
					"patching_rect" : [ 140.0, 155.0, 51.0, 19.0 ],
					"id" : "obj-5",
					"fontname" : "Verdana",
					"numoutlets" : 2,
					"outlettype" : [ "float", "bang" ],
					"fontsize" : 10.0
				}

			}
, 			{
				"box" : 				{
					"maxclass" : "number",
					"numinlets" : 1,
					"patching_rect" : [ 80.0, 155.0, 51.0, 19.0 ],
					"id" : "obj-4",
					"fontname" : "Verdana",
					"numoutlets" : 2,
					"outlettype" : [ "int", "bang" ],
					"fontsize" : 10.0
				}

			}
, 			{
				"box" : 				{
					"maxclass" : "newobj",
					"text" : "dr.op @mode +",
					"numinlets" : 2,
					"patching_rect" : [ 272.0, 307.0, 89.0, 19.0 ],
					"id" : "obj-3",
					"fontname" : "Verdana",
					"numoutlets" : 2,
					"outlettype" : [ "", "" ],
					"fontsize" : 10.0
				}

			}
, 			{
				"box" : 				{
					"maxclass" : "newobj",
					"text" : "dr.op * 20.",
					"numinlets" : 2,
					"patching_rect" : [ 140.0, 235.0, 79.0, 19.0 ],
					"id" : "obj-2",
					"fontname" : "Verdana",
					"numoutlets" : 2,
					"outlettype" : [ "", "" ],
					"fontsize" : 10.0
				}

			}
, 			{
				"box" : 				{
					"maxclass" : "newobj",
					"text" : "dr.op",
					"numinlets" : 2,
					"patching_rect" : [ 282.0, 122.0, 56.0, 19.0 ],
					"id" : "obj-1",
					"fontname" : "Verdana",
					"numoutlets" : 2,
					"outlettype" : [ "", "" ],
					"fontsize" : 10.0
				}

			}
 ],
		"lines" : [ 			{
				"patchline" : 				{
					"source" : [ "obj-9", 0 ],
					"destination" : [ "obj-2", 0 ],
					"hidden" : 0,
					"midpoints" : [ 49.5, 227.0, 149.5, 227.0 ]
				}

			}
, 			{
				"patchline" : 				{
					"source" : [ "obj-4", 0 ],
					"destination" : [ "obj-2", 0 ],
					"hidden" : 0,
					"midpoints" : [  ]
				}

			}
, 			{
				"patchline" : 				{
					"source" : [ "obj-5", 0 ],
					"destination" : [ "obj-2", 0 ],
					"hidden" : 0,
					"midpoints" : [  ]
				}

			}
, 			{
				"patchline" : 				{
					"source" : [ "obj-11", 0 ],
					"destination" : [ "obj-2", 0 ],
					"hidden" : 0,
					"midpoints" : [  ]
				}

			}
, 			{
				"patchline" : 				{
					"source" : [ "obj-8", 0 ],
					"destination" : [ "obj-2", 1 ],
					"hidden" : 0,
					"midpoints" : [  ]
				}

			}
, 			{
				"patchline" : 				{
					"source" : [ "obj-2", 0 ],
					"destination" : [ "obj-7", 0 ],
					"hidden" : 0,
					"midpoints" : [  ]
				}

			}
, 			{
				"patchline" : 				{
					"source" : [ "obj-2", 0 ],
					"destination" : [ "obj-6", 0 ],
					"hidden" : 0,
					"midpoints" : [  ]
				}

			}
, 			{
				"patchline" : 				{
					"source" : [ "obj-12", 0 ],
					"destination" : [ "obj-2", 0 ],
					"hidden" : 0,
					"midpoints" : [  ]
				}

			}
, 			{
				"patchline" : 				{
					"source" : [ "obj-13", 0 ],
					"destination" : [ "obj-2", 0 ],
					"hidden" : 0,
					"midpoints" : [  ]
				}

			}
 ]
	}

}
