{
	"patcher" : 	{
		"rect" : [ 426.0, 98.0, 547.0, 476.0 ],
		"bglocked" : 0,
		"defrect" : [ 426.0, 98.0, 547.0, 476.0 ],
		"openrect" : [ 0.0, 0.0, 0.0, 0.0 ],
		"openinpresentation" : 0,
		"default_fontsize" : 9.0,
		"default_fontface" : 0,
		"default_fontname" : "Verdana",
		"gridonopen" : 0,
		"gridsize" : [ 10.0, 5.0 ],
		"gridsnaponopen" : 0,
		"toolbarvisible" : 1,
		"boxanimatetime" : 200,
		"imprint" : 0,
		"metadata" : [  ],
		"boxes" : [ 			{
				"box" : 				{
					"maxclass" : "comment",
					"text" : "The default buffer contains a simple sine wave.",
					"fontsize" : 7.9,
					"numinlets" : 1,
					"patching_rect" : [ 132.0, 212.0, 391.0, 17.0 ],
					"numoutlets" : 0,
					"fontname" : "Arial",
					"frgb" : [ 0.658824, 0.658824, 0.658824, 1.0 ],
					"id" : "obj-1"
				}

			}
, 			{
				"box" : 				{
					"maxclass" : "message",
					"text" : "gain $1",
					"fontsize" : 7.9,
					"numinlets" : 2,
					"patching_rect" : [ 139.0, 273.0, 42.0, 15.0 ],
					"numoutlets" : 1,
					"fontname" : "Arial",
					"outlettype" : [ "" ],
					"id" : "obj-2"
				}

			}
, 			{
				"box" : 				{
					"maxclass" : "flonum",
					"htextcolor" : [ 0.870588, 0.870588, 0.870588, 1.0 ],
					"bgcolor" : [ 0.866667, 0.866667, 0.866667, 1.0 ],
					"fontsize" : 7.9,
					"numinlets" : 1,
					"patching_rect" : [ 139.0, 256.0, 48.0, 17.0 ],
					"triangle" : 0,
					"transparent" : 1,
					"numoutlets" : 2,
					"fontname" : "Arial",
					"outlettype" : [ "float", "bang" ],
					"id" : "obj-3",
					"triscale" : 0.9,
					"textcolor" : [ 0.0, 0.0, 0.0, 1.0 ]
				}

			}
, 			{
				"box" : 				{
					"maxclass" : "comment",
					"text" : "Specify the gain of the object's output in decibels.",
					"linecount" : 2,
					"fontsize" : 7.9,
					"numinlets" : 1,
					"patching_rect" : [ 245.0, 260.0, 138.0, 28.0 ],
					"numoutlets" : 0,
					"fontname" : "Arial",
					"frgb" : [ 0.658824, 0.658824, 0.658824, 1.0 ],
					"id" : "obj-4"
				}

			}
, 			{
				"box" : 				{
					"maxclass" : "comment",
					"text" : "Attributes",
					"fontsize" : 10.533333,
					"numinlets" : 1,
					"patching_rect" : [ 130.0, 234.0, 253.0, 21.0 ],
					"numoutlets" : 0,
					"fontname" : "Arial",
					"frgb" : [ 0.658824, 0.658824, 0.658824, 1.0 ],
					"id" : "obj-5"
				}

			}
, 			{
				"box" : 				{
					"maxclass" : "panel",
					"bgcolor" : [ 0.501961, 0.54902, 0.733333, 1.0 ],
					"numinlets" : 1,
					"patching_rect" : [ 128.0, 232.0, 402.0, 20.0 ],
					"numoutlets" : 0,
					"rounded" : 0,
					"id" : "obj-6"
				}

			}
, 			{
				"box" : 				{
					"maxclass" : "panel",
					"bgcolor" : [ 0.807843, 0.807843, 0.807843, 1.0 ],
					"numinlets" : 1,
					"patching_rect" : [ 128.0, 254.0, 402.0, 36.0 ],
					"numoutlets" : 0,
					"rounded" : 0,
					"id" : "obj-7"
				}

			}
, 			{
				"box" : 				{
					"maxclass" : "number",
					"htextcolor" : [ 0.870588, 0.870588, 0.870588, 1.0 ],
					"bgcolor" : [ 0.866667, 0.866667, 0.866667, 1.0 ],
					"fontsize" : 7.9,
					"numinlets" : 1,
					"patching_rect" : [ 77.0, 247.0, 35.0, 17.0 ],
					"numoutlets" : 2,
					"fontname" : "Arial",
					"outlettype" : [ "int", "bang" ],
					"id" : "obj-8",
					"triscale" : 0.9,
					"textcolor" : [ 0.0, 0.0, 0.0, 1.0 ]
				}

			}
, 			{
				"box" : 				{
					"maxclass" : "number",
					"htextcolor" : [ 0.870588, 0.870588, 0.870588, 1.0 ],
					"bgcolor" : [ 0.866667, 0.866667, 0.866667, 1.0 ],
					"fontsize" : 7.9,
					"numinlets" : 1,
					"patching_rect" : [ 27.0, 247.0, 35.0, 17.0 ],
					"numoutlets" : 2,
					"fontname" : "Arial",
					"outlettype" : [ "int", "bang" ],
					"id" : "obj-9",
					"triscale" : 0.9,
					"textcolor" : [ 0.0, 0.0, 0.0, 1.0 ]
				}

			}
, 			{
				"box" : 				{
					"maxclass" : "flonum",
					"htextcolor" : [ 0.870588, 0.870588, 0.870588, 1.0 ],
					"bgcolor" : [ 0.866667, 0.866667, 0.866667, 1.0 ],
					"fontsize" : 7.9,
					"numinlets" : 1,
					"patching_rect" : [ 25.0, 179.0, 52.0, 17.0 ],
					"numoutlets" : 2,
					"fontname" : "Arial",
					"outlettype" : [ "float", "bang" ],
					"id" : "obj-10",
					"triscale" : 0.9,
					"textcolor" : [ 0.0, 0.0, 0.0, 1.0 ]
				}

			}
, 			{
				"box" : 				{
					"maxclass" : "newobj",
					"text" : "*~",
					"fontsize" : 7.9,
					"numinlets" : 2,
					"patching_rect" : [ 8.0, 197.0, 27.0, 17.0 ],
					"numoutlets" : 1,
					"fontname" : "Arial",
					"outlettype" : [ "signal" ],
					"id" : "obj-11"
				}

			}
, 			{
				"box" : 				{
					"maxclass" : "umenu",
					"labelclick" : 1,
					"fontsize" : 7.9,
					"numinlets" : 1,
					"items" : [ "normalized", ",", "samples", ",", "ms" ],
					"arrowlink" : 1,
					"patching_rect" : [ 140.0, 291.0, 100.0, 17.0 ],
					"numoutlets" : 3,
					"types" : [  ],
					"fontname" : "Arial",
					"outlettype" : [ "int", "", "" ],
					"id" : "obj-12"
				}

			}
, 			{
				"box" : 				{
					"maxclass" : "newobj",
					"text" : "prepend mode",
					"fontsize" : 7.9,
					"numinlets" : 1,
					"patching_rect" : [ 140.0, 310.0, 70.0, 17.0 ],
					"numoutlets" : 1,
					"fontname" : "Arial",
					"outlettype" : [ "" ],
					"id" : "obj-13"
				}

			}
, 			{
				"box" : 				{
					"maxclass" : "flonum",
					"htextcolor" : [ 0.870588, 0.870588, 0.870588, 1.0 ],
					"bgcolor" : [ 0.866667, 0.866667, 0.866667, 1.0 ],
					"fontsize" : 7.9,
					"numinlets" : 1,
					"patching_rect" : [ 8.0, 137.0, 44.0, 17.0 ],
					"numoutlets" : 2,
					"fontname" : "Arial",
					"outlettype" : [ "float", "bang" ],
					"id" : "obj-14",
					"triscale" : 0.9,
					"textcolor" : [ 0.0, 0.0, 0.0, 1.0 ]
				}

			}
, 			{
				"box" : 				{
					"maxclass" : "newobj",
					"text" : "phasor~",
					"fontsize" : 7.9,
					"numinlets" : 2,
					"patching_rect" : [ 8.0, 155.0, 45.0, 17.0 ],
					"numoutlets" : 1,
					"fontname" : "Arial",
					"outlettype" : [ "signal" ],
					"id" : "obj-15"
				}

			}
, 			{
				"box" : 				{
					"maxclass" : "scope~",
					"bgcolor" : [ 0.129412, 0.129412, 0.129412, 1.0 ],
					"numinlets" : 2,
					"patching_rect" : [ 21.0, 266.0, 100.0, 50.0 ],
					"numoutlets" : 0,
					"rounded" : 0,
					"id" : "obj-16"
				}

			}
, 			{
				"box" : 				{
					"maxclass" : "newobj",
					"text" : "tap.wave~",
					"fontsize" : 7.9,
					"numinlets" : 1,
					"patching_rect" : [ 8.0, 217.0, 55.0, 17.0 ],
					"numoutlets" : 2,
					"fontname" : "Arial",
					"outlettype" : [ "signal", "" ],
					"id" : "obj-17"
				}

			}
, 			{
				"box" : 				{
					"maxclass" : "gain~",
					"orientation" : 2,
					"numinlets" : 2,
					"patching_rect" : [ 9.0, 325.0, 20.0, 61.0 ],
					"numoutlets" : 2,
					"outlettype" : [ "signal", "int" ],
					"id" : "obj-18"
				}

			}
, 			{
				"box" : 				{
					"maxclass" : "message",
					"text" : "startwindow",
					"fontsize" : 7.9,
					"numinlets" : 2,
					"patching_rect" : [ 55.0, 399.0, 65.0, 15.0 ],
					"numoutlets" : 1,
					"fontname" : "Arial",
					"outlettype" : [ "" ],
					"id" : "obj-19"
				}

			}
, 			{
				"box" : 				{
					"maxclass" : "ezdac~",
					"numinlets" : 2,
					"patching_rect" : [ 8.0, 395.0, 33.0, 33.0 ],
					"numoutlets" : 0,
					"id" : "obj-20"
				}

			}
, 			{
				"box" : 				{
					"maxclass" : "comment",
					"text" : "Tap.Tools Blue is a library of ../../../../../Jamoma/Core/DSP/library/build/JamomaDSP.dylib objects written in C++. The library features a number of components including its own type of audio buffer. This object references a Tap.Tools Blue buffer in the same way that MSP's wave~ object references MSP's buffer~ object.",
					"linecount" : 3,
					"fontsize" : 7.9,
					"numinlets" : 1,
					"patching_rect" : [ 132.0, 159.0, 391.0, 38.0 ],
					"numoutlets" : 0,
					"fontname" : "Arial",
					"frgb" : [ 0.658824, 0.658824, 0.658824, 1.0 ],
					"id" : "obj-21"
				}

			}
, 			{
				"box" : 				{
					"maxclass" : "comment",
					"text" : "The position in the buffer is driven by the signal input. This attribute determines how the value of that signal is evaluated when positioning the play head in the buffer.",
					"linecount" : 3,
					"fontsize" : 7.9,
					"numinlets" : 1,
					"patching_rect" : [ 244.0, 291.0, 278.0, 38.0 ],
					"numoutlets" : 0,
					"fontname" : "Arial",
					"frgb" : [ 0.658824, 0.658824, 0.658824, 1.0 ],
					"id" : "obj-22"
				}

			}
, 			{
				"box" : 				{
					"maxclass" : "comment",
					"text" : "Description",
					"fontsize" : 10.533333,
					"numinlets" : 1,
					"patching_rect" : [ 130.0, 135.0, 253.0, 21.0 ],
					"numoutlets" : 0,
					"fontname" : "Arial",
					"frgb" : [ 0.658824, 0.658824, 0.658824, 1.0 ],
					"id" : "obj-23"
				}

			}
, 			{
				"box" : 				{
					"maxclass" : "comment",
					"text" : "buffer playback",
					"fontsize" : 10.533333,
					"numinlets" : 1,
					"patching_rect" : [ 133.0, 34.0, 309.0, 21.0 ],
					"numoutlets" : 0,
					"fontname" : "Arial",
					"frgb" : [ 0.87451, 0.87451, 0.87451, 1.0 ],
					"id" : "obj-24",
					"textcolor" : [ 0.87451, 0.87451, 0.87451, 1.0 ]
				}

			}
, 			{
				"box" : 				{
					"maxclass" : "comment",
					"text" : "tap.wave~",
					"fontsize" : 21.066666,
					"numinlets" : 1,
					"patching_rect" : [ 133.0, 5.0, 309.0, 35.0 ],
					"numoutlets" : 0,
					"fontname" : "Arial",
					"frgb" : [ 0.87451, 0.87451, 0.87451, 1.0 ],
					"id" : "obj-25",
					"textcolor" : [ 0.87451, 0.87451, 0.87451, 1.0 ]
				}

			}
, 			{
				"box" : 				{
					"maxclass" : "message",
					"text" : "set 500",
					"fontsize" : 7.9,
					"numinlets" : 2,
					"patching_rect" : [ 466.0, 97.0, 44.0, 15.0 ],
					"numoutlets" : 1,
					"fontname" : "Arial",
					"outlettype" : [ "" ],
					"hidden" : 1,
					"id" : "obj-26"
				}

			}
, 			{
				"box" : 				{
					"maxclass" : "message",
					"text" : "set -6",
					"fontsize" : 7.9,
					"numinlets" : 2,
					"patching_rect" : [ 426.0, 97.0, 35.0, 15.0 ],
					"numoutlets" : 1,
					"fontname" : "Arial",
					"outlettype" : [ "" ],
					"hidden" : 1,
					"id" : "obj-27"
				}

			}
, 			{
				"box" : 				{
					"maxclass" : "message",
					"text" : "set 100",
					"fontsize" : 7.9,
					"numinlets" : 2,
					"patching_rect" : [ 404.0, 97.0, 44.0, 15.0 ],
					"numoutlets" : 1,
					"fontname" : "Arial",
					"outlettype" : [ "" ],
					"hidden" : 1,
					"id" : "obj-28"
				}

			}
, 			{
				"box" : 				{
					"maxclass" : "message",
					"text" : "set 50",
					"fontsize" : 7.9,
					"numinlets" : 2,
					"patching_rect" : [ 380.0, 97.0, 38.0, 15.0 ],
					"numoutlets" : 1,
					"fontname" : "Arial",
					"outlettype" : [ "" ],
					"hidden" : 1,
					"id" : "obj-29"
				}

			}
, 			{
				"box" : 				{
					"maxclass" : "newobj",
					"text" : "loadbang",
					"fontsize" : 7.9,
					"numinlets" : 1,
					"patching_rect" : [ 441.0, 55.0, 53.0, 17.0 ],
					"numoutlets" : 1,
					"fontname" : "Arial",
					"outlettype" : [ "bang" ],
					"hidden" : 1,
					"id" : "obj-30"
				}

			}
, 			{
				"box" : 				{
					"maxclass" : "panel",
					"bgcolor" : [ 0.501961, 0.54902, 0.733333, 1.0 ],
					"numinlets" : 1,
					"patching_rect" : [ 128.0, 133.0, 402.0, 20.0 ],
					"numoutlets" : 0,
					"rounded" : 0,
					"id" : "obj-31"
				}

			}
, 			{
				"box" : 				{
					"maxclass" : "panel",
					"bgcolor" : [ 0.807843, 0.807843, 0.807843, 1.0 ],
					"numinlets" : 1,
					"patching_rect" : [ 128.0, 291.0, 402.0, 36.0 ],
					"numoutlets" : 0,
					"rounded" : 0,
					"id" : "obj-32"
				}

			}
, 			{
				"box" : 				{
					"maxclass" : "panel",
					"bgcolor" : [ 0.807843, 0.807843, 0.807843, 1.0 ],
					"numinlets" : 1,
					"patching_rect" : [ 128.0, 155.0, 402.0, 73.0 ],
					"numoutlets" : 0,
					"rounded" : 0,
					"id" : "obj-33"
				}

			}
, 			{
				"box" : 				{
					"maxclass" : "fpic",
					"background" : 1,
					"numinlets" : 1,
					"pic" : "ttblue_icon.bmp",
					"patching_rect" : [ -1.0, -1.0, 130.0, 130.0 ],
					"numoutlets" : 0,
					"id" : "obj-34"
				}

			}
, 			{
				"box" : 				{
					"maxclass" : "newobj",
					"text" : "b 1",
					"fontsize" : 7.9,
					"background" : 1,
					"numinlets" : 1,
					"patching_rect" : [ 262.0, 60.0, 22.0, 17.0 ],
					"numoutlets" : 1,
					"fontname" : "Arial",
					"outlettype" : [ "bang" ],
					"hidden" : 1,
					"id" : "obj-35"
				}

			}
, 			{
				"box" : 				{
					"maxclass" : "message",
					"text" : ";\rmax launch_browser www.electrotap.com",
					"linecount" : 3,
					"fontsize" : 7.9,
					"background" : 1,
					"numinlets" : 2,
					"patching_rect" : [ 262.0, 86.0, 108.0, 36.0 ],
					"numoutlets" : 1,
					"fontname" : "Arial",
					"outlettype" : [ "" ],
					"hidden" : 1,
					"id" : "obj-36"
				}

			}
, 			{
				"box" : 				{
					"maxclass" : "umenu",
					"bgcolor" : [ 0.866667, 0.866667, 0.866667, 1.0 ],
					"menumode" : 2,
					"labelclick" : 1,
					"fontsize" : 10.533333,
					"background" : 1,
					"numinlets" : 1,
					"items" : "electrotap.com",
					"arrowlink" : 1,
					"patching_rect" : [ 133.0, 106.0, 126.0, 21.0 ],
					"numoutlets" : 3,
					"types" : [  ],
					"fontname" : "Arial",
					"outlettype" : [ "int", "", "" ],
					"id" : "obj-37",
					"textcolor" : [ 0.0, 0.0, 0.0, 1.0 ]
				}

			}
, 			{
				"box" : 				{
					"maxclass" : "comment",
					"text" : "by timothy place",
					"fontsize" : 12.288889,
					"background" : 1,
					"numinlets" : 1,
					"patching_rect" : [ 133.0, 87.0, 125.0, 23.0 ],
					"numoutlets" : 0,
					"fontname" : "Arial",
					"frgb" : [ 0.658824, 0.658824, 0.658824, 1.0 ],
					"id" : "obj-38"
				}

			}
, 			{
				"box" : 				{
					"maxclass" : "panel",
					"bgcolor" : [ 0.388235, 0.388235, 0.388235, 1.0 ],
					"background" : 1,
					"numinlets" : 1,
					"patching_rect" : [ 128.0, 0.0, 402.0, 128.0 ],
					"numoutlets" : 0,
					"rounded" : 0,
					"id" : "obj-39"
				}

			}
 ],
		"lines" : [ 			{
				"patchline" : 				{
					"source" : [ "obj-30", 0 ],
					"destination" : [ "obj-26", 0 ],
					"hidden" : 1
				}

			}
, 			{
				"patchline" : 				{
					"source" : [ "obj-30", 0 ],
					"destination" : [ "obj-27", 0 ],
					"hidden" : 1
				}

			}
, 			{
				"patchline" : 				{
					"source" : [ "obj-30", 0 ],
					"destination" : [ "obj-28", 0 ],
					"hidden" : 1
				}

			}
, 			{
				"patchline" : 				{
					"source" : [ "obj-30", 0 ],
					"destination" : [ "obj-29", 0 ],
					"hidden" : 1
				}

			}
, 			{
				"patchline" : 				{
					"source" : [ "obj-35", 0 ],
					"destination" : [ "obj-36", 0 ],
					"hidden" : 1
				}

			}
, 			{
				"patchline" : 				{
					"source" : [ "obj-37", 0 ],
					"destination" : [ "obj-35", 0 ],
					"hidden" : 1
				}

			}
, 			{
				"patchline" : 				{
					"source" : [ "obj-12", 1 ],
					"destination" : [ "obj-13", 0 ],
					"hidden" : 0,
					"midpoints" : [ 190.0, 308.0, 149.5, 308.0 ]
				}

			}
, 			{
				"patchline" : 				{
					"source" : [ "obj-3", 0 ],
					"destination" : [ "obj-2", 0 ],
					"hidden" : 0
				}

			}
, 			{
				"patchline" : 				{
					"source" : [ "obj-8", 0 ],
					"destination" : [ "obj-16", 1 ],
					"hidden" : 0
				}

			}
, 			{
				"patchline" : 				{
					"source" : [ "obj-18", 0 ],
					"destination" : [ "obj-20", 1 ],
					"hidden" : 0,
					"midpoints" : [ 17.0, 390.0, 31.5, 390.0 ]
				}

			}
, 			{
				"patchline" : 				{
					"source" : [ "obj-10", 0 ],
					"destination" : [ "obj-11", 1 ],
					"hidden" : 0
				}

			}
, 			{
				"patchline" : 				{
					"source" : [ "obj-9", 0 ],
					"destination" : [ "obj-16", 0 ],
					"hidden" : 0
				}

			}
, 			{
				"patchline" : 				{
					"source" : [ "obj-17", 0 ],
					"destination" : [ "obj-16", 0 ],
					"hidden" : 0
				}

			}
, 			{
				"patchline" : 				{
					"source" : [ "obj-19", 0 ],
					"destination" : [ "obj-20", 0 ],
					"hidden" : 1
				}

			}
, 			{
				"patchline" : 				{
					"source" : [ "obj-18", 0 ],
					"destination" : [ "obj-20", 0 ],
					"hidden" : 0
				}

			}
, 			{
				"patchline" : 				{
					"source" : [ "obj-17", 0 ],
					"destination" : [ "obj-18", 0 ],
					"hidden" : 0
				}

			}
, 			{
				"patchline" : 				{
					"source" : [ "obj-11", 0 ],
					"destination" : [ "obj-17", 0 ],
					"hidden" : 0
				}

			}
, 			{
				"patchline" : 				{
					"source" : [ "obj-13", 0 ],
					"destination" : [ "obj-17", 0 ],
					"hidden" : 1
				}

			}
, 			{
				"patchline" : 				{
					"source" : [ "obj-2", 0 ],
					"destination" : [ "obj-17", 0 ],
					"hidden" : 1
				}

			}
, 			{
				"patchline" : 				{
					"source" : [ "obj-15", 0 ],
					"destination" : [ "obj-11", 0 ],
					"hidden" : 0
				}

			}
, 			{
				"patchline" : 				{
					"source" : [ "obj-14", 0 ],
					"destination" : [ "obj-15", 0 ],
					"hidden" : 0
				}

			}
 ]
	}

}
