{
	"patcher" : 	{
		"rect" : [ 59.0, 61.0, 547.0, 515.0 ],
		"bgcolor" : [ 0.1, 0.1, 0.1, 1.0 ],
		"bglocked" : 0,
		"defrect" : [ 59.0, 61.0, 547.0, 515.0 ],
		"openrect" : [ 0.0, 0.0, 0.0, 0.0 ],
		"openinpresentation" : 0,
		"default_fontsize" : 9.0,
		"default_fontface" : 0,
		"default_fontname" : "Verdana",
		"gridonopen" : 0,
		"gridsize" : [ 10.0, 5.0 ],
		"gridsnaponopen" : 0,
		"toolbarvisible" : 1,
		"boxanimatetime" : 200,
		"imprint" : 0,
		"metadata" : [  ],
		"boxes" : [ 			{
				"box" : 				{
					"maxclass" : "ezadc~",
					"numinlets" : 1,
					"patching_rect" : [ 41.0, 208.0, 33.0, 33.0 ],
					"numoutlets" : 2,
					"outlettype" : [ "signal", "signal" ],
					"id" : "obj-1"
				}

			}
, 			{
				"box" : 				{
					"maxclass" : "message",
					"text" : "startwindow",
					"fontsize" : 7.9,
					"numinlets" : 2,
					"patching_rect" : [ 89.0, 217.0, 78.0, 15.0 ],
					"numoutlets" : 1,
					"fontname" : "Arial",
					"outlettype" : [ "" ],
					"id" : "obj-2"
				}

			}
, 			{
				"box" : 				{
					"maxclass" : "meter~",
					"warmcolor" : [ 0.85098, 0.85098, 0.0, 1.0 ],
					"bgcolor" : [ 0.407843, 0.407843, 0.407843, 1.0 ],
					"numinlets" : 1,
					"patching_rect" : [ 455.0, 274.0, 13.0, 126.0 ],
					"tepidcolor" : [ 0.6, 0.729412, 0.0, 1.0 ],
					"numoutlets" : 1,
					"outlettype" : [ "float" ],
					"interval" : 100,
					"id" : "obj-3",
					"coldcolor" : [ 0.0, 0.658824, 0.0, 1.0 ]
				}

			}
, 			{
				"box" : 				{
					"maxclass" : "meter~",
					"warmcolor" : [ 0.85098, 0.85098, 0.0, 1.0 ],
					"bgcolor" : [ 0.407843, 0.407843, 0.407843, 1.0 ],
					"numinlets" : 1,
					"patching_rect" : [ 437.0, 274.0, 13.0, 126.0 ],
					"tepidcolor" : [ 0.6, 0.729412, 0.0, 1.0 ],
					"numoutlets" : 1,
					"outlettype" : [ "float" ],
					"interval" : 100,
					"id" : "obj-4",
					"coldcolor" : [ 0.0, 0.658824, 0.0, 1.0 ]
				}

			}
, 			{
				"box" : 				{
					"maxclass" : "meter~",
					"warmcolor" : [ 0.85098, 0.85098, 0.0, 1.0 ],
					"bgcolor" : [ 0.407843, 0.407843, 0.407843, 1.0 ],
					"numinlets" : 1,
					"patching_rect" : [ 419.0, 274.0, 13.0, 126.0 ],
					"tepidcolor" : [ 0.6, 0.729412, 0.0, 1.0 ],
					"numoutlets" : 1,
					"outlettype" : [ "float" ],
					"interval" : 100,
					"id" : "obj-5",
					"coldcolor" : [ 0.0, 0.658824, 0.0, 1.0 ]
				}

			}
, 			{
				"box" : 				{
					"maxclass" : "meter~",
					"warmcolor" : [ 0.85098, 0.85098, 0.0, 1.0 ],
					"bgcolor" : [ 0.407843, 0.407843, 0.407843, 1.0 ],
					"numinlets" : 1,
					"patching_rect" : [ 401.0, 274.0, 13.0, 126.0 ],
					"tepidcolor" : [ 0.6, 0.729412, 0.0, 1.0 ],
					"numoutlets" : 1,
					"outlettype" : [ "float" ],
					"interval" : 100,
					"id" : "obj-6",
					"coldcolor" : [ 0.0, 0.658824, 0.0, 1.0 ]
				}

			}
, 			{
				"box" : 				{
					"maxclass" : "meter~",
					"warmcolor" : [ 0.85098, 0.85098, 0.0, 1.0 ],
					"bgcolor" : [ 0.407843, 0.407843, 0.407843, 1.0 ],
					"numinlets" : 1,
					"patching_rect" : [ 383.0, 274.0, 13.0, 126.0 ],
					"tepidcolor" : [ 0.6, 0.729412, 0.0, 1.0 ],
					"numoutlets" : 1,
					"outlettype" : [ "float" ],
					"interval" : 100,
					"id" : "obj-7",
					"coldcolor" : [ 0.0, 0.658824, 0.0, 1.0 ]
				}

			}
, 			{
				"box" : 				{
					"maxclass" : "meter~",
					"warmcolor" : [ 0.85098, 0.85098, 0.0, 1.0 ],
					"bgcolor" : [ 0.407843, 0.407843, 0.407843, 1.0 ],
					"numinlets" : 1,
					"patching_rect" : [ 365.0, 274.0, 13.0, 126.0 ],
					"tepidcolor" : [ 0.6, 0.729412, 0.0, 1.0 ],
					"numoutlets" : 1,
					"outlettype" : [ "float" ],
					"interval" : 100,
					"id" : "obj-8",
					"coldcolor" : [ 0.0, 0.658824, 0.0, 1.0 ]
				}

			}
, 			{
				"box" : 				{
					"maxclass" : "meter~",
					"warmcolor" : [ 0.85098, 0.85098, 0.0, 1.0 ],
					"bgcolor" : [ 0.407843, 0.407843, 0.407843, 1.0 ],
					"numinlets" : 1,
					"patching_rect" : [ 347.0, 274.0, 13.0, 126.0 ],
					"tepidcolor" : [ 0.6, 0.729412, 0.0, 1.0 ],
					"numoutlets" : 1,
					"outlettype" : [ "float" ],
					"interval" : 100,
					"id" : "obj-9",
					"coldcolor" : [ 0.0, 0.658824, 0.0, 1.0 ]
				}

			}
, 			{
				"box" : 				{
					"maxclass" : "meter~",
					"warmcolor" : [ 0.85098, 0.85098, 0.0, 1.0 ],
					"bgcolor" : [ 0.407843, 0.407843, 0.407843, 1.0 ],
					"numinlets" : 1,
					"patching_rect" : [ 329.0, 274.0, 13.0, 126.0 ],
					"tepidcolor" : [ 0.6, 0.729412, 0.0, 1.0 ],
					"numoutlets" : 1,
					"outlettype" : [ "float" ],
					"interval" : 100,
					"id" : "obj-10",
					"coldcolor" : [ 0.0, 0.658824, 0.0, 1.0 ]
				}

			}
, 			{
				"box" : 				{
					"maxclass" : "meter~",
					"warmcolor" : [ 0.85098, 0.85098, 0.0, 1.0 ],
					"bgcolor" : [ 0.407843, 0.407843, 0.407843, 1.0 ],
					"numinlets" : 1,
					"patching_rect" : [ 311.0, 274.0, 13.0, 126.0 ],
					"tepidcolor" : [ 0.6, 0.729412, 0.0, 1.0 ],
					"numoutlets" : 1,
					"outlettype" : [ "float" ],
					"interval" : 100,
					"id" : "obj-11",
					"coldcolor" : [ 0.0, 0.658824, 0.0, 1.0 ]
				}

			}
, 			{
				"box" : 				{
					"maxclass" : "meter~",
					"warmcolor" : [ 0.85098, 0.85098, 0.0, 1.0 ],
					"bgcolor" : [ 0.407843, 0.407843, 0.407843, 1.0 ],
					"numinlets" : 1,
					"patching_rect" : [ 293.0, 274.0, 13.0, 126.0 ],
					"tepidcolor" : [ 0.6, 0.729412, 0.0, 1.0 ],
					"numoutlets" : 1,
					"outlettype" : [ "float" ],
					"interval" : 100,
					"id" : "obj-12",
					"coldcolor" : [ 0.0, 0.658824, 0.0, 1.0 ]
				}

			}
, 			{
				"box" : 				{
					"maxclass" : "meter~",
					"warmcolor" : [ 0.85098, 0.85098, 0.0, 1.0 ],
					"bgcolor" : [ 0.407843, 0.407843, 0.407843, 1.0 ],
					"numinlets" : 1,
					"patching_rect" : [ 275.0, 274.0, 13.0, 126.0 ],
					"tepidcolor" : [ 0.6, 0.729412, 0.0, 1.0 ],
					"numoutlets" : 1,
					"outlettype" : [ "float" ],
					"interval" : 100,
					"id" : "obj-13",
					"coldcolor" : [ 0.0, 0.658824, 0.0, 1.0 ]
				}

			}
, 			{
				"box" : 				{
					"maxclass" : "meter~",
					"warmcolor" : [ 0.85098, 0.85098, 0.0, 1.0 ],
					"bgcolor" : [ 0.407843, 0.407843, 0.407843, 1.0 ],
					"numinlets" : 1,
					"patching_rect" : [ 257.0, 274.0, 13.0, 126.0 ],
					"tepidcolor" : [ 0.6, 0.729412, 0.0, 1.0 ],
					"numoutlets" : 1,
					"outlettype" : [ "float" ],
					"interval" : 100,
					"id" : "obj-14",
					"coldcolor" : [ 0.0, 0.658824, 0.0, 1.0 ]
				}

			}
, 			{
				"box" : 				{
					"maxclass" : "meter~",
					"warmcolor" : [ 0.85098, 0.85098, 0.0, 1.0 ],
					"bgcolor" : [ 0.407843, 0.407843, 0.407843, 1.0 ],
					"numinlets" : 1,
					"patching_rect" : [ 239.0, 274.0, 13.0, 126.0 ],
					"tepidcolor" : [ 0.6, 0.729412, 0.0, 1.0 ],
					"numoutlets" : 1,
					"outlettype" : [ "float" ],
					"interval" : 100,
					"id" : "obj-15",
					"coldcolor" : [ 0.0, 0.658824, 0.0, 1.0 ]
				}

			}
, 			{
				"box" : 				{
					"maxclass" : "meter~",
					"warmcolor" : [ 0.85098, 0.85098, 0.0, 1.0 ],
					"bgcolor" : [ 0.407843, 0.407843, 0.407843, 1.0 ],
					"numinlets" : 1,
					"patching_rect" : [ 221.0, 274.0, 13.0, 126.0 ],
					"tepidcolor" : [ 0.6, 0.729412, 0.0, 1.0 ],
					"numoutlets" : 1,
					"outlettype" : [ "float" ],
					"interval" : 100,
					"id" : "obj-16",
					"coldcolor" : [ 0.0, 0.658824, 0.0, 1.0 ]
				}

			}
, 			{
				"box" : 				{
					"maxclass" : "meter~",
					"warmcolor" : [ 0.85098, 0.85098, 0.0, 1.0 ],
					"bgcolor" : [ 0.407843, 0.407843, 0.407843, 1.0 ],
					"numinlets" : 1,
					"patching_rect" : [ 203.0, 274.0, 13.0, 126.0 ],
					"tepidcolor" : [ 0.6, 0.729412, 0.0, 1.0 ],
					"numoutlets" : 1,
					"outlettype" : [ "float" ],
					"interval" : 100,
					"id" : "obj-17",
					"coldcolor" : [ 0.0, 0.658824, 0.0, 1.0 ]
				}

			}
, 			{
				"box" : 				{
					"maxclass" : "meter~",
					"warmcolor" : [ 0.85098, 0.85098, 0.0, 1.0 ],
					"bgcolor" : [ 0.407843, 0.407843, 0.407843, 1.0 ],
					"numinlets" : 1,
					"patching_rect" : [ 185.0, 274.0, 13.0, 126.0 ],
					"tepidcolor" : [ 0.6, 0.729412, 0.0, 1.0 ],
					"numoutlets" : 1,
					"outlettype" : [ "float" ],
					"interval" : 100,
					"id" : "obj-18",
					"coldcolor" : [ 0.0, 0.658824, 0.0, 1.0 ]
				}

			}
, 			{
				"box" : 				{
					"maxclass" : "meter~",
					"warmcolor" : [ 0.85098, 0.85098, 0.0, 1.0 ],
					"bgcolor" : [ 0.407843, 0.407843, 0.407843, 1.0 ],
					"numinlets" : 1,
					"patching_rect" : [ 167.0, 274.0, 13.0, 126.0 ],
					"tepidcolor" : [ 0.6, 0.729412, 0.0, 1.0 ],
					"numoutlets" : 1,
					"outlettype" : [ "float" ],
					"interval" : 100,
					"id" : "obj-19",
					"coldcolor" : [ 0.0, 0.658824, 0.0, 1.0 ]
				}

			}
, 			{
				"box" : 				{
					"maxclass" : "meter~",
					"warmcolor" : [ 0.85098, 0.85098, 0.0, 1.0 ],
					"bgcolor" : [ 0.407843, 0.407843, 0.407843, 1.0 ],
					"numinlets" : 1,
					"patching_rect" : [ 149.0, 274.0, 13.0, 126.0 ],
					"tepidcolor" : [ 0.6, 0.729412, 0.0, 1.0 ],
					"numoutlets" : 1,
					"outlettype" : [ "float" ],
					"interval" : 100,
					"id" : "obj-20",
					"coldcolor" : [ 0.0, 0.658824, 0.0, 1.0 ]
				}

			}
, 			{
				"box" : 				{
					"maxclass" : "meter~",
					"warmcolor" : [ 0.85098, 0.85098, 0.0, 1.0 ],
					"bgcolor" : [ 0.407843, 0.407843, 0.407843, 1.0 ],
					"numinlets" : 1,
					"patching_rect" : [ 131.0, 274.0, 13.0, 126.0 ],
					"tepidcolor" : [ 0.6, 0.729412, 0.0, 1.0 ],
					"numoutlets" : 1,
					"outlettype" : [ "float" ],
					"interval" : 100,
					"id" : "obj-21",
					"coldcolor" : [ 0.0, 0.658824, 0.0, 1.0 ]
				}

			}
, 			{
				"box" : 				{
					"maxclass" : "meter~",
					"warmcolor" : [ 0.85098, 0.85098, 0.0, 1.0 ],
					"bgcolor" : [ 0.407843, 0.407843, 0.407843, 1.0 ],
					"numinlets" : 1,
					"patching_rect" : [ 113.0, 274.0, 13.0, 126.0 ],
					"tepidcolor" : [ 0.6, 0.729412, 0.0, 1.0 ],
					"numoutlets" : 1,
					"outlettype" : [ "float" ],
					"interval" : 100,
					"id" : "obj-22",
					"coldcolor" : [ 0.0, 0.658824, 0.0, 1.0 ]
				}

			}
, 			{
				"box" : 				{
					"maxclass" : "meter~",
					"warmcolor" : [ 0.85098, 0.85098, 0.0, 1.0 ],
					"bgcolor" : [ 0.407843, 0.407843, 0.407843, 1.0 ],
					"numinlets" : 1,
					"patching_rect" : [ 95.0, 274.0, 13.0, 126.0 ],
					"tepidcolor" : [ 0.6, 0.729412, 0.0, 1.0 ],
					"numoutlets" : 1,
					"outlettype" : [ "float" ],
					"interval" : 100,
					"id" : "obj-23",
					"coldcolor" : [ 0.0, 0.658824, 0.0, 1.0 ]
				}

			}
, 			{
				"box" : 				{
					"maxclass" : "meter~",
					"warmcolor" : [ 0.85098, 0.85098, 0.0, 1.0 ],
					"bgcolor" : [ 0.407843, 0.407843, 0.407843, 1.0 ],
					"numinlets" : 1,
					"patching_rect" : [ 77.0, 274.0, 13.0, 126.0 ],
					"tepidcolor" : [ 0.6, 0.729412, 0.0, 1.0 ],
					"numoutlets" : 1,
					"outlettype" : [ "float" ],
					"interval" : 100,
					"id" : "obj-24",
					"coldcolor" : [ 0.0, 0.658824, 0.0, 1.0 ]
				}

			}
, 			{
				"box" : 				{
					"maxclass" : "meter~",
					"warmcolor" : [ 0.85098, 0.85098, 0.0, 1.0 ],
					"bgcolor" : [ 0.407843, 0.407843, 0.407843, 1.0 ],
					"numinlets" : 1,
					"patching_rect" : [ 59.0, 274.0, 13.0, 126.0 ],
					"tepidcolor" : [ 0.6, 0.729412, 0.0, 1.0 ],
					"numoutlets" : 1,
					"outlettype" : [ "float" ],
					"interval" : 100,
					"id" : "obj-25",
					"coldcolor" : [ 0.0, 0.658824, 0.0, 1.0 ]
				}

			}
, 			{
				"box" : 				{
					"maxclass" : "meter~",
					"warmcolor" : [ 0.85098, 0.85098, 0.0, 1.0 ],
					"bgcolor" : [ 0.407843, 0.407843, 0.407843, 1.0 ],
					"numinlets" : 1,
					"patching_rect" : [ 41.0, 274.0, 13.0, 126.0 ],
					"tepidcolor" : [ 0.6, 0.729412, 0.0, 1.0 ],
					"numoutlets" : 1,
					"outlettype" : [ "float" ],
					"interval" : 100,
					"id" : "obj-26",
					"coldcolor" : [ 0.0, 0.658824, 0.0, 1.0 ]
				}

			}
, 			{
				"box" : 				{
					"maxclass" : "newobj",
					"text" : "tap.filterbank~",
					"fontsize" : 7.9,
					"numinlets" : 2,
					"patching_rect" : [ 41.0, 251.0, 432.0, 17.0 ],
					"numoutlets" : 24,
					"fontname" : "Arial",
					"outlettype" : [ "signal", "signal", "signal", "signal", "signal", "signal", "signal", "signal", "signal", "signal", "signal", "signal", "signal", "signal", "signal", "signal", "signal", "signal", "signal", "signal", "signal", "signal", "signal", "signal" ],
					"id" : "obj-27"
				}

			}
, 			{
				"box" : 				{
					"maxclass" : "comment",
					"text" : "split up the spectrum to utilize different portions of it in various ways.",
					"linecount" : 3,
					"fontsize" : 10.533333,
					"numinlets" : 1,
					"patching_rect" : [ 43.0, 415.0, 174.0, 49.0 ],
					"numoutlets" : 0,
					"fontname" : "Arial",
					"frgb" : [ 0.658824, 0.658824, 0.658824, 1.0 ],
					"id" : "obj-28"
				}

			}
, 			{
				"box" : 				{
					"maxclass" : "comment",
					"text" : "Originally this was many bandpass filters configured into a filterbank. Now in Max\/MSP 4 the fffb~ object far exceeds the ability of the original abstraction. This abstraction has been rewritten as a simple wrapper around the fffb~ object for backwards compatibility...",
					"linecount" : 4,
					"fontsize" : 10.533333,
					"numinlets" : 1,
					"patching_rect" : [ 28.0, 137.0, 455.0, 63.0 ],
					"numoutlets" : 0,
					"fontname" : "Arial",
					"frgb" : [ 0.658824, 0.658824, 0.658824, 1.0 ],
					"id" : "obj-29"
				}

			}
, 			{
				"box" : 				{
					"maxclass" : "comment",
					"text" : "Q",
					"fontsize" : 7.9,
					"numinlets" : 1,
					"patching_rect" : [ 463.0, 236.0, 18.0, 17.0 ],
					"numoutlets" : 0,
					"fontname" : "Arial",
					"frgb" : [ 0.658824, 0.658824, 0.658824, 1.0 ],
					"id" : "obj-30"
				}

			}
, 			{
				"box" : 				{
					"maxclass" : "comment",
					"text" : "24-band bank of bandpass filters",
					"fontsize" : 10.533333,
					"numinlets" : 1,
					"patching_rect" : [ 133.0, 34.0, 309.0, 21.0 ],
					"numoutlets" : 0,
					"fontname" : "Arial",
					"frgb" : [ 0.87451, 0.87451, 0.87451, 1.0 ],
					"id" : "obj-31",
					"textcolor" : [ 0.87451, 0.87451, 0.87451, 1.0 ]
				}

			}
, 			{
				"box" : 				{
					"maxclass" : "comment",
					"text" : "tap.filterbank~",
					"fontsize" : 21.066666,
					"numinlets" : 1,
					"patching_rect" : [ 133.0, 5.0, 309.0, 35.0 ],
					"numoutlets" : 0,
					"fontname" : "Arial",
					"frgb" : [ 0.87451, 0.87451, 0.87451, 1.0 ],
					"id" : "obj-32",
					"textcolor" : [ 0.87451, 0.87451, 0.87451, 1.0 ]
				}

			}
, 			{
				"box" : 				{
					"maxclass" : "message",
					"text" : "set 500",
					"fontsize" : 7.9,
					"numinlets" : 2,
					"patching_rect" : [ 466.0, 97.0, 44.0, 15.0 ],
					"numoutlets" : 1,
					"fontname" : "Arial",
					"outlettype" : [ "" ],
					"hidden" : 1,
					"id" : "obj-33"
				}

			}
, 			{
				"box" : 				{
					"maxclass" : "message",
					"text" : "set -6",
					"fontsize" : 7.9,
					"numinlets" : 2,
					"patching_rect" : [ 426.0, 97.0, 35.0, 15.0 ],
					"numoutlets" : 1,
					"fontname" : "Arial",
					"outlettype" : [ "" ],
					"hidden" : 1,
					"id" : "obj-34"
				}

			}
, 			{
				"box" : 				{
					"maxclass" : "message",
					"text" : "set 100",
					"fontsize" : 7.9,
					"numinlets" : 2,
					"patching_rect" : [ 404.0, 97.0, 44.0, 15.0 ],
					"numoutlets" : 1,
					"fontname" : "Arial",
					"outlettype" : [ "" ],
					"hidden" : 1,
					"id" : "obj-35"
				}

			}
, 			{
				"box" : 				{
					"maxclass" : "message",
					"text" : "set 50",
					"fontsize" : 7.9,
					"numinlets" : 2,
					"patching_rect" : [ 380.0, 97.0, 38.0, 15.0 ],
					"numoutlets" : 1,
					"fontname" : "Arial",
					"outlettype" : [ "" ],
					"hidden" : 1,
					"id" : "obj-36"
				}

			}
, 			{
				"box" : 				{
					"maxclass" : "newobj",
					"text" : "loadbang",
					"fontsize" : 7.9,
					"numinlets" : 1,
					"patching_rect" : [ 441.0, 55.0, 53.0, 17.0 ],
					"numoutlets" : 1,
					"fontname" : "Arial",
					"outlettype" : [ "bang" ],
					"hidden" : 1,
					"id" : "obj-37"
				}

			}
, 			{
				"box" : 				{
					"maxclass" : "fpic",
					"background" : 1,
					"numinlets" : 1,
					"pic" : "ttblue_icon.bmp",
					"patching_rect" : [ -1.0, -1.0, 130.0, 130.0 ],
					"numoutlets" : 0,
					"id" : "obj-38"
				}

			}
, 			{
				"box" : 				{
					"maxclass" : "newobj",
					"text" : "b 1",
					"fontsize" : 7.9,
					"background" : 1,
					"numinlets" : 1,
					"patching_rect" : [ 262.0, 60.0, 22.0, 17.0 ],
					"numoutlets" : 1,
					"fontname" : "Arial",
					"outlettype" : [ "bang" ],
					"hidden" : 1,
					"id" : "obj-39"
				}

			}
, 			{
				"box" : 				{
					"maxclass" : "message",
					"text" : ";\rmax launch_browser www.electrotap.com",
					"linecount" : 3,
					"fontsize" : 7.9,
					"background" : 1,
					"numinlets" : 2,
					"patching_rect" : [ 262.0, 86.0, 108.0, 36.0 ],
					"numoutlets" : 1,
					"fontname" : "Arial",
					"outlettype" : [ "" ],
					"hidden" : 1,
					"id" : "obj-40"
				}

			}
, 			{
				"box" : 				{
					"maxclass" : "umenu",
					"bgcolor" : [ 0.866667, 0.866667, 0.866667, 1.0 ],
					"menumode" : 2,
					"labelclick" : 1,
					"fontsize" : 10.533333,
					"background" : 1,
					"numinlets" : 1,
					"items" : "electrotap.com",
					"arrowlink" : 1,
					"patching_rect" : [ 133.0, 106.0, 126.0, 21.0 ],
					"numoutlets" : 3,
					"types" : [  ],
					"fontname" : "Arial",
					"outlettype" : [ "int", "", "" ],
					"id" : "obj-41",
					"textcolor" : [ 0.0, 0.0, 0.0, 1.0 ]
				}

			}
, 			{
				"box" : 				{
					"maxclass" : "comment",
					"text" : "by timothy place",
					"fontsize" : 12.288889,
					"background" : 1,
					"numinlets" : 1,
					"patching_rect" : [ 133.0, 87.0, 125.0, 23.0 ],
					"numoutlets" : 0,
					"fontname" : "Arial",
					"frgb" : [ 0.658824, 0.658824, 0.658824, 1.0 ],
					"id" : "obj-42"
				}

			}
, 			{
				"box" : 				{
					"maxclass" : "panel",
					"bgcolor" : [ 0.388235, 0.388235, 0.388235, 1.0 ],
					"background" : 1,
					"numinlets" : 1,
					"patching_rect" : [ 128.0, 0.0, 402.0, 128.0 ],
					"numoutlets" : 0,
					"rounded" : 0,
					"id" : "obj-43"
				}

			}
 ],
		"lines" : [ 			{
				"patchline" : 				{
					"source" : [ "obj-37", 0 ],
					"destination" : [ "obj-33", 0 ],
					"hidden" : 1
				}

			}
, 			{
				"patchline" : 				{
					"source" : [ "obj-27", 23 ],
					"destination" : [ "obj-3", 0 ],
					"hidden" : 0
				}

			}
, 			{
				"patchline" : 				{
					"source" : [ "obj-27", 22 ],
					"destination" : [ "obj-4", 0 ],
					"hidden" : 0
				}

			}
, 			{
				"patchline" : 				{
					"source" : [ "obj-37", 0 ],
					"destination" : [ "obj-34", 0 ],
					"hidden" : 1
				}

			}
, 			{
				"patchline" : 				{
					"source" : [ "obj-27", 21 ],
					"destination" : [ "obj-5", 0 ],
					"hidden" : 0
				}

			}
, 			{
				"patchline" : 				{
					"source" : [ "obj-37", 0 ],
					"destination" : [ "obj-35", 0 ],
					"hidden" : 1
				}

			}
, 			{
				"patchline" : 				{
					"source" : [ "obj-27", 20 ],
					"destination" : [ "obj-6", 0 ],
					"hidden" : 0
				}

			}
, 			{
				"patchline" : 				{
					"source" : [ "obj-27", 19 ],
					"destination" : [ "obj-7", 0 ],
					"hidden" : 0
				}

			}
, 			{
				"patchline" : 				{
					"source" : [ "obj-37", 0 ],
					"destination" : [ "obj-36", 0 ],
					"hidden" : 1
				}

			}
, 			{
				"patchline" : 				{
					"source" : [ "obj-27", 18 ],
					"destination" : [ "obj-8", 0 ],
					"hidden" : 0
				}

			}
, 			{
				"patchline" : 				{
					"source" : [ "obj-27", 17 ],
					"destination" : [ "obj-9", 0 ],
					"hidden" : 0
				}

			}
, 			{
				"patchline" : 				{
					"source" : [ "obj-27", 16 ],
					"destination" : [ "obj-10", 0 ],
					"hidden" : 0
				}

			}
, 			{
				"patchline" : 				{
					"source" : [ "obj-27", 15 ],
					"destination" : [ "obj-11", 0 ],
					"hidden" : 0
				}

			}
, 			{
				"patchline" : 				{
					"source" : [ "obj-27", 14 ],
					"destination" : [ "obj-12", 0 ],
					"hidden" : 0
				}

			}
, 			{
				"patchline" : 				{
					"source" : [ "obj-27", 13 ],
					"destination" : [ "obj-13", 0 ],
					"hidden" : 0
				}

			}
, 			{
				"patchline" : 				{
					"source" : [ "obj-39", 0 ],
					"destination" : [ "obj-40", 0 ],
					"hidden" : 1
				}

			}
, 			{
				"patchline" : 				{
					"source" : [ "obj-41", 0 ],
					"destination" : [ "obj-39", 0 ],
					"hidden" : 1
				}

			}
, 			{
				"patchline" : 				{
					"source" : [ "obj-27", 12 ],
					"destination" : [ "obj-14", 0 ],
					"hidden" : 0
				}

			}
, 			{
				"patchline" : 				{
					"source" : [ "obj-27", 11 ],
					"destination" : [ "obj-15", 0 ],
					"hidden" : 0
				}

			}
, 			{
				"patchline" : 				{
					"source" : [ "obj-27", 10 ],
					"destination" : [ "obj-16", 0 ],
					"hidden" : 0
				}

			}
, 			{
				"patchline" : 				{
					"source" : [ "obj-27", 9 ],
					"destination" : [ "obj-17", 0 ],
					"hidden" : 0
				}

			}
, 			{
				"patchline" : 				{
					"source" : [ "obj-27", 8 ],
					"destination" : [ "obj-18", 0 ],
					"hidden" : 0
				}

			}
, 			{
				"patchline" : 				{
					"source" : [ "obj-27", 7 ],
					"destination" : [ "obj-19", 0 ],
					"hidden" : 0
				}

			}
, 			{
				"patchline" : 				{
					"source" : [ "obj-27", 6 ],
					"destination" : [ "obj-20", 0 ],
					"hidden" : 0
				}

			}
, 			{
				"patchline" : 				{
					"source" : [ "obj-27", 5 ],
					"destination" : [ "obj-21", 0 ],
					"hidden" : 0
				}

			}
, 			{
				"patchline" : 				{
					"source" : [ "obj-27", 4 ],
					"destination" : [ "obj-22", 0 ],
					"hidden" : 0
				}

			}
, 			{
				"patchline" : 				{
					"source" : [ "obj-27", 3 ],
					"destination" : [ "obj-23", 0 ],
					"hidden" : 0
				}

			}
, 			{
				"patchline" : 				{
					"source" : [ "obj-27", 2 ],
					"destination" : [ "obj-24", 0 ],
					"hidden" : 0
				}

			}
, 			{
				"patchline" : 				{
					"source" : [ "obj-27", 1 ],
					"destination" : [ "obj-25", 0 ],
					"hidden" : 0
				}

			}
, 			{
				"patchline" : 				{
					"source" : [ "obj-27", 0 ],
					"destination" : [ "obj-26", 0 ],
					"hidden" : 0
				}

			}
, 			{
				"patchline" : 				{
					"source" : [ "obj-1", 0 ],
					"destination" : [ "obj-27", 0 ],
					"hidden" : 0
				}

			}
, 			{
				"patchline" : 				{
					"source" : [ "obj-2", 0 ],
					"destination" : [ "obj-1", 0 ],
					"hidden" : 1
				}

			}
 ]
	}

}
