{
	"patcher" : 	{
		"rect" : [ 112.0, 102.0, 547.0, 437.0 ],
		"bgcolor" : [ 0.1, 0.1, 0.1, 1.0 ],
		"bglocked" : 0,
		"defrect" : [ 112.0, 102.0, 547.0, 437.0 ],
		"openrect" : [ 0.0, 0.0, 0.0, 0.0 ],
		"openinpresentation" : 0,
		"default_fontsize" : 9.0,
		"default_fontface" : 0,
		"default_fontname" : "Verdana",
		"gridonopen" : 0,
		"gridsize" : [ 10.0, 5.0 ],
		"gridsnaponopen" : 0,
		"toolbarvisible" : 1,
		"boxanimatetime" : 200,
		"imprint" : 0,
		"metadata" : [  ],
		"boxes" : [ 			{
				"box" : 				{
					"maxclass" : "umenu",
					"labelclick" : 1,
					"fontsize" : 7.9,
					"numinlets" : 1,
					"items" : [ "atoi", ",", "itoa" ],
					"arrowlink" : 1,
					"patching_rect" : [ 139.0, 155.0, 71.0, 17.0 ],
					"numoutlets" : 3,
					"types" : [  ],
					"fontname" : "Arial",
					"outlettype" : [ "int", "", "" ],
					"id" : "obj-1"
				}

			}
, 			{
				"box" : 				{
					"maxclass" : "newobj",
					"text" : "prepend mode",
					"fontsize" : 7.9,
					"numinlets" : 1,
					"patching_rect" : [ 139.0, 174.0, 70.0, 17.0 ],
					"numoutlets" : 1,
					"fontname" : "Arial",
					"outlettype" : [ "" ],
					"id" : "obj-2"
				}

			}
, 			{
				"box" : 				{
					"maxclass" : "comment",
					"text" : "When in atoi mode the object expects a symbol to convert. When in itoa mode the object expects a list of integers to convert.",
					"linecount" : 2,
					"fontsize" : 7.9,
					"numinlets" : 1,
					"patching_rect" : [ 134.0, 223.0, 391.0, 28.0 ],
					"numoutlets" : 0,
					"fontname" : "Arial",
					"frgb" : [ 0.658824, 0.658824, 0.658824, 1.0 ],
					"id" : "obj-3"
				}

			}
, 			{
				"box" : 				{
					"maxclass" : "comment",
					"text" : "Messages",
					"fontsize" : 10.533333,
					"numinlets" : 1,
					"patching_rect" : [ 130.0, 198.0, 253.0, 21.0 ],
					"numoutlets" : 0,
					"fontname" : "Arial",
					"frgb" : [ 0.658824, 0.658824, 0.658824, 1.0 ],
					"id" : "obj-4"
				}

			}
, 			{
				"box" : 				{
					"maxclass" : "panel",
					"bgcolor" : [ 0.501961, 0.54902, 0.733333, 1.0 ],
					"numinlets" : 1,
					"patching_rect" : [ 128.0, 196.0, 402.0, 20.0 ],
					"numoutlets" : 0,
					"rounded" : 0,
					"id" : "obj-5"
				}

			}
, 			{
				"box" : 				{
					"maxclass" : "panel",
					"bgcolor" : [ 0.807843, 0.807843, 0.807843, 1.0 ],
					"numinlets" : 1,
					"patching_rect" : [ 128.0, 218.0, 402.0, 36.0 ],
					"numoutlets" : 0,
					"rounded" : 0,
					"id" : "obj-6"
				}

			}
, 			{
				"box" : 				{
					"maxclass" : "comment",
					"text" : "The mode attribute switches between ascii-to-integer conversion and integer-to-ascii conversion",
					"linecount" : 2,
					"fontsize" : 7.9,
					"numinlets" : 1,
					"patching_rect" : [ 227.0, 158.0, 303.0, 28.0 ],
					"numoutlets" : 0,
					"fontname" : "Arial",
					"frgb" : [ 0.658824, 0.658824, 0.658824, 1.0 ],
					"id" : "obj-7"
				}

			}
, 			{
				"box" : 				{
					"maxclass" : "comment",
					"text" : "Attributes",
					"fontsize" : 10.533333,
					"numinlets" : 1,
					"patching_rect" : [ 130.0, 135.0, 253.0, 21.0 ],
					"numoutlets" : 0,
					"fontname" : "Arial",
					"frgb" : [ 0.658824, 0.658824, 0.658824, 1.0 ],
					"id" : "obj-8"
				}

			}
, 			{
				"box" : 				{
					"maxclass" : "comment",
					"text" : "ascii to integer conversion",
					"fontsize" : 10.533333,
					"numinlets" : 1,
					"patching_rect" : [ 133.0, 34.0, 309.0, 21.0 ],
					"numoutlets" : 0,
					"fontname" : "Arial",
					"frgb" : [ 0.87451, 0.87451, 0.87451, 1.0 ],
					"id" : "obj-9",
					"textcolor" : [ 0.87451, 0.87451, 0.87451, 1.0 ]
				}

			}
, 			{
				"box" : 				{
					"maxclass" : "comment",
					"text" : "tap.ascii",
					"fontsize" : 21.066666,
					"numinlets" : 1,
					"patching_rect" : [ 133.0, 5.0, 309.0, 35.0 ],
					"numoutlets" : 0,
					"fontname" : "Arial",
					"frgb" : [ 0.87451, 0.87451, 0.87451, 1.0 ],
					"id" : "obj-10",
					"textcolor" : [ 0.87451, 0.87451, 0.87451, 1.0 ]
				}

			}
, 			{
				"box" : 				{
					"maxclass" : "message",
					"text" : "set 500",
					"fontsize" : 7.9,
					"numinlets" : 2,
					"patching_rect" : [ 466.0, 97.0, 44.0, 15.0 ],
					"numoutlets" : 1,
					"fontname" : "Arial",
					"outlettype" : [ "" ],
					"hidden" : 1,
					"id" : "obj-11"
				}

			}
, 			{
				"box" : 				{
					"maxclass" : "message",
					"text" : "set -6",
					"fontsize" : 7.9,
					"numinlets" : 2,
					"patching_rect" : [ 426.0, 97.0, 35.0, 15.0 ],
					"numoutlets" : 1,
					"fontname" : "Arial",
					"outlettype" : [ "" ],
					"hidden" : 1,
					"id" : "obj-12"
				}

			}
, 			{
				"box" : 				{
					"maxclass" : "message",
					"text" : "set 100",
					"fontsize" : 7.9,
					"numinlets" : 2,
					"patching_rect" : [ 404.0, 97.0, 44.0, 15.0 ],
					"numoutlets" : 1,
					"fontname" : "Arial",
					"outlettype" : [ "" ],
					"hidden" : 1,
					"id" : "obj-13"
				}

			}
, 			{
				"box" : 				{
					"maxclass" : "message",
					"text" : "set 50",
					"fontsize" : 7.9,
					"numinlets" : 2,
					"patching_rect" : [ 380.0, 97.0, 38.0, 15.0 ],
					"numoutlets" : 1,
					"fontname" : "Arial",
					"outlettype" : [ "" ],
					"hidden" : 1,
					"id" : "obj-14"
				}

			}
, 			{
				"box" : 				{
					"maxclass" : "newobj",
					"text" : "loadbang",
					"fontsize" : 7.9,
					"numinlets" : 1,
					"patching_rect" : [ 441.0, 55.0, 53.0, 17.0 ],
					"numoutlets" : 1,
					"fontname" : "Arial",
					"outlettype" : [ "bang" ],
					"hidden" : 1,
					"id" : "obj-15"
				}

			}
, 			{
				"box" : 				{
					"maxclass" : "panel",
					"bgcolor" : [ 0.501961, 0.54902, 0.733333, 1.0 ],
					"numinlets" : 1,
					"patching_rect" : [ 128.0, 133.0, 402.0, 20.0 ],
					"numoutlets" : 0,
					"rounded" : 0,
					"id" : "obj-16"
				}

			}
, 			{
				"box" : 				{
					"maxclass" : "panel",
					"bgcolor" : [ 0.807843, 0.807843, 0.807843, 1.0 ],
					"numinlets" : 1,
					"patching_rect" : [ 128.0, 155.0, 402.0, 36.0 ],
					"numoutlets" : 0,
					"rounded" : 0,
					"id" : "obj-17"
				}

			}
, 			{
				"box" : 				{
					"maxclass" : "comment",
					"text" : "reconstructed back into a string",
					"fontsize" : 7.9,
					"numinlets" : 1,
					"patching_rect" : [ 97.0, 357.0, 153.0, 17.0 ],
					"numoutlets" : 0,
					"fontname" : "Arial",
					"frgb" : [ 0.658824, 0.658824, 0.658824, 1.0 ],
					"id" : "obj-18"
				}

			}
, 			{
				"box" : 				{
					"maxclass" : "newobj",
					"text" : "tosymbol",
					"fontsize" : 7.9,
					"numinlets" : 1,
					"patching_rect" : [ 50.0, 207.0, 50.0, 17.0 ],
					"numoutlets" : 1,
					"fontname" : "Arial",
					"outlettype" : [ "" ],
					"id" : "obj-19"
				}

			}
, 			{
				"box" : 				{
					"maxclass" : "message",
					"text" : "what's-your-vector-Victor?",
					"fontsize" : 7.9,
					"numinlets" : 2,
					"patching_rect" : [ 15.0, 373.0, 230.0, 15.0 ],
					"numoutlets" : 1,
					"fontname" : "Arial",
					"outlettype" : [ "" ],
					"id" : "obj-20"
				}

			}
, 			{
				"box" : 				{
					"maxclass" : "newobj",
					"text" : "prepend set",
					"fontsize" : 7.9,
					"numinlets" : 1,
					"patching_rect" : [ 15.0, 352.0, 61.0, 17.0 ],
					"numoutlets" : 1,
					"fontname" : "Arial",
					"outlettype" : [ "" ],
					"id" : "obj-21"
				}

			}
, 			{
				"box" : 				{
					"maxclass" : "newobj",
					"text" : "tap.ascii @mode itoa",
					"fontsize" : 10.533333,
					"numinlets" : 1,
					"color" : [ 1.0, 0.890196, 0.090196, 1.0 ],
					"patching_rect" : [ 15.0, 321.0, 133.0, 21.0 ],
					"numoutlets" : 2,
					"fontname" : "Arial",
					"outlettype" : [ "list", "" ],
					"id" : "obj-22"
				}

			}
, 			{
				"box" : 				{
					"maxclass" : "message",
					"text" : "119 104 97 116 39 115 45 121 111 117 114 45 118 101 99 116 111 114 45 86 105 99 116 111 114 63",
					"linecount" : 2,
					"fontsize" : 7.9,
					"numinlets" : 2,
					"patching_rect" : [ 28.0, 290.0, 333.0, 26.0 ],
					"numoutlets" : 1,
					"fontname" : "Arial",
					"outlettype" : [ "" ],
					"id" : "obj-23"
				}

			}
, 			{
				"box" : 				{
					"maxclass" : "message",
					"text" : "what's-your-vector-Victor?",
					"fontsize" : 7.9,
					"numinlets" : 2,
					"patching_rect" : [ 15.0, 143.0, 115.0, 15.0 ],
					"numoutlets" : 1,
					"fontname" : "Arial",
					"outlettype" : [ "" ],
					"id" : "obj-24"
				}

			}
, 			{
				"box" : 				{
					"maxclass" : "newobj",
					"text" : "prepend set",
					"fontsize" : 7.9,
					"numinlets" : 1,
					"patching_rect" : [ 28.0, 269.0, 61.0, 17.0 ],
					"numoutlets" : 1,
					"fontname" : "Arial",
					"outlettype" : [ "" ],
					"id" : "obj-25"
				}

			}
, 			{
				"box" : 				{
					"maxclass" : "newobj",
					"text" : "tap.ascii",
					"fontsize" : 10.533333,
					"numinlets" : 1,
					"color" : [ 1.0, 0.890196, 0.090196, 1.0 ],
					"patching_rect" : [ 15.0, 237.0, 60.0, 21.0 ],
					"numoutlets" : 2,
					"fontname" : "Arial",
					"outlettype" : [ "list", "" ],
					"id" : "obj-26"
				}

			}
, 			{
				"box" : 				{
					"maxclass" : "message",
					"text" : "roger-Roger",
					"fontsize" : 7.9,
					"numinlets" : 2,
					"patching_rect" : [ 32.0, 172.0, 65.0, 15.0 ],
					"numoutlets" : 1,
					"fontname" : "Arial",
					"outlettype" : [ "" ],
					"id" : "obj-27"
				}

			}
, 			{
				"box" : 				{
					"maxclass" : "message",
					"text" : "52 34.5 x 17",
					"fontsize" : 7.9,
					"numinlets" : 2,
					"patching_rect" : [ 50.0, 189.0, 68.0, 15.0 ],
					"numoutlets" : 1,
					"fontname" : "Arial",
					"outlettype" : [ "" ],
					"id" : "obj-28"
				}

			}
, 			{
				"box" : 				{
					"maxclass" : "comment",
					"text" : "the symbol represented as ASCII character numbers",
					"fontsize" : 7.9,
					"numinlets" : 1,
					"patching_rect" : [ 93.0, 276.0, 263.0, 17.0 ],
					"numoutlets" : 0,
					"fontname" : "Arial",
					"frgb" : [ 0.658824, 0.658824, 0.658824, 1.0 ],
					"id" : "obj-29"
				}

			}
, 			{
				"box" : 				{
					"maxclass" : "fpic",
					"background" : 1,
					"numinlets" : 1,
					"pic" : "ttblue_icon.bmp",
					"patching_rect" : [ -1.0, -1.0, 130.0, 130.0 ],
					"numoutlets" : 0,
					"id" : "obj-30"
				}

			}
, 			{
				"box" : 				{
					"maxclass" : "newobj",
					"text" : "b 1",
					"fontsize" : 7.9,
					"background" : 1,
					"numinlets" : 1,
					"patching_rect" : [ 262.0, 60.0, 22.0, 17.0 ],
					"numoutlets" : 1,
					"fontname" : "Arial",
					"outlettype" : [ "bang" ],
					"hidden" : 1,
					"id" : "obj-31"
				}

			}
, 			{
				"box" : 				{
					"maxclass" : "message",
					"text" : ";\rmax launch_browser www.electrotap.com",
					"linecount" : 3,
					"fontsize" : 7.9,
					"background" : 1,
					"numinlets" : 2,
					"patching_rect" : [ 262.0, 86.0, 108.0, 36.0 ],
					"numoutlets" : 1,
					"fontname" : "Arial",
					"outlettype" : [ "" ],
					"hidden" : 1,
					"id" : "obj-32"
				}

			}
, 			{
				"box" : 				{
					"maxclass" : "umenu",
					"bgcolor" : [ 0.866667, 0.866667, 0.866667, 1.0 ],
					"menumode" : 2,
					"labelclick" : 1,
					"fontsize" : 10.533333,
					"background" : 1,
					"numinlets" : 1,
					"items" : "electrotap.com",
					"arrowlink" : 1,
					"patching_rect" : [ 133.0, 106.0, 126.0, 21.0 ],
					"numoutlets" : 3,
					"types" : [  ],
					"fontname" : "Arial",
					"outlettype" : [ "int", "", "" ],
					"id" : "obj-33",
					"textcolor" : [ 0.0, 0.0, 0.0, 1.0 ]
				}

			}
, 			{
				"box" : 				{
					"maxclass" : "comment",
					"text" : "by timothy place",
					"fontsize" : 12.288889,
					"background" : 1,
					"numinlets" : 1,
					"patching_rect" : [ 133.0, 87.0, 125.0, 23.0 ],
					"numoutlets" : 0,
					"fontname" : "Arial",
					"frgb" : [ 0.658824, 0.658824, 0.658824, 1.0 ],
					"id" : "obj-34"
				}

			}
, 			{
				"box" : 				{
					"maxclass" : "panel",
					"bgcolor" : [ 0.388235, 0.388235, 0.388235, 1.0 ],
					"background" : 1,
					"numinlets" : 1,
					"patching_rect" : [ 128.0, 0.0, 402.0, 128.0 ],
					"numoutlets" : 0,
					"rounded" : 0,
					"id" : "obj-35"
				}

			}
 ],
		"lines" : [ 			{
				"patchline" : 				{
					"source" : [ "obj-15", 0 ],
					"destination" : [ "obj-11", 0 ],
					"hidden" : 1
				}

			}
, 			{
				"patchline" : 				{
					"source" : [ "obj-15", 0 ],
					"destination" : [ "obj-12", 0 ],
					"hidden" : 1
				}

			}
, 			{
				"patchline" : 				{
					"source" : [ "obj-15", 0 ],
					"destination" : [ "obj-13", 0 ],
					"hidden" : 1
				}

			}
, 			{
				"patchline" : 				{
					"source" : [ "obj-15", 0 ],
					"destination" : [ "obj-14", 0 ],
					"hidden" : 1
				}

			}
, 			{
				"patchline" : 				{
					"source" : [ "obj-31", 0 ],
					"destination" : [ "obj-32", 0 ],
					"hidden" : 1
				}

			}
, 			{
				"patchline" : 				{
					"source" : [ "obj-33", 0 ],
					"destination" : [ "obj-31", 0 ],
					"hidden" : 1
				}

			}
, 			{
				"patchline" : 				{
					"source" : [ "obj-1", 1 ],
					"destination" : [ "obj-2", 0 ],
					"hidden" : 0,
					"midpoints" : [ 174.5, 172.0, 148.5, 172.0 ]
				}

			}
, 			{
				"patchline" : 				{
					"source" : [ "obj-28", 0 ],
					"destination" : [ "obj-19", 0 ],
					"hidden" : 0
				}

			}
, 			{
				"patchline" : 				{
					"source" : [ "obj-25", 0 ],
					"destination" : [ "obj-23", 0 ],
					"hidden" : 0
				}

			}
, 			{
				"patchline" : 				{
					"source" : [ "obj-26", 0 ],
					"destination" : [ "obj-25", 0 ],
					"hidden" : 0
				}

			}
, 			{
				"patchline" : 				{
					"source" : [ "obj-21", 0 ],
					"destination" : [ "obj-20", 0 ],
					"hidden" : 0
				}

			}
, 			{
				"patchline" : 				{
					"source" : [ "obj-22", 0 ],
					"destination" : [ "obj-21", 0 ],
					"hidden" : 0
				}

			}
, 			{
				"patchline" : 				{
					"source" : [ "obj-26", 0 ],
					"destination" : [ "obj-22", 0 ],
					"hidden" : 0
				}

			}
, 			{
				"patchline" : 				{
					"source" : [ "obj-19", 0 ],
					"destination" : [ "obj-26", 0 ],
					"hidden" : 0,
					"midpoints" : [ 59.5, 230.0, 24.5, 230.0 ]
				}

			}
, 			{
				"patchline" : 				{
					"source" : [ "obj-27", 0 ],
					"destination" : [ "obj-26", 0 ],
					"hidden" : 0,
					"midpoints" : [ 41.5, 219.0, 24.5, 219.0 ]
				}

			}
, 			{
				"patchline" : 				{
					"source" : [ "obj-24", 0 ],
					"destination" : [ "obj-26", 0 ],
					"hidden" : 0
				}

			}
, 			{
				"patchline" : 				{
					"source" : [ "obj-2", 0 ],
					"destination" : [ "obj-26", 0 ],
					"hidden" : 1
				}

			}
 ]
	}

}
