{
	"patcher" : 	{
		"rect" : [ 55.0, 75.0, 547.0, 515.0 ],
		"bgcolor" : [ 0.1, 0.1, 0.1, 1.0 ],
		"bglocked" : 0,
		"defrect" : [ 55.0, 75.0, 547.0, 515.0 ],
		"openrect" : [ 0.0, 0.0, 0.0, 0.0 ],
		"openinpresentation" : 0,
		"default_fontsize" : 9.0,
		"default_fontface" : 0,
		"default_fontname" : "Verdana",
		"gridonopen" : 0,
		"gridsize" : [ 10.0, 5.0 ],
		"gridsnaponopen" : 0,
		"toolbarvisible" : 1,
		"boxanimatetime" : 200,
		"imprint" : 0,
		"metadata" : [  ],
		"boxes" : [ 			{
				"box" : 				{
					"maxclass" : "comment",
					"text" : "Historical Note: these abstractions were developed back in the days of Max 3.5.9 and MSP 1. - before the advent of the pfft~ object.",
					"linecount" : 3,
					"fontsize" : 7.9,
					"numinlets" : 1,
					"patching_rect" : [ 275.0, 428.0, 242.0, 38.0 ],
					"numoutlets" : 0,
					"fontname" : "Arial",
					"frgb" : [ 0.658824, 0.658824, 0.658824, 1.0 ],
					"id" : "obj-1"
				}

			}
, 			{
				"box" : 				{
					"maxclass" : "comment",
					"text" : "windowed fft \/ ifft",
					"fontsize" : 10.533333,
					"numinlets" : 1,
					"patching_rect" : [ 133.0, 34.0, 309.0, 21.0 ],
					"numoutlets" : 0,
					"fontname" : "Arial",
					"frgb" : [ 0.87451, 0.87451, 0.87451, 1.0 ],
					"id" : "obj-2",
					"textcolor" : [ 0.87451, 0.87451, 0.87451, 1.0 ]
				}

			}
, 			{
				"box" : 				{
					"maxclass" : "comment",
					"text" : "tap.fft~ \/ tap.ifft~",
					"fontsize" : 21.066666,
					"numinlets" : 1,
					"patching_rect" : [ 133.0, 5.0, 309.0, 35.0 ],
					"numoutlets" : 0,
					"fontname" : "Arial",
					"frgb" : [ 0.87451, 0.87451, 0.87451, 1.0 ],
					"id" : "obj-3",
					"textcolor" : [ 0.87451, 0.87451, 0.87451, 1.0 ]
				}

			}
, 			{
				"box" : 				{
					"maxclass" : "message",
					"text" : "set 500",
					"fontsize" : 7.9,
					"numinlets" : 2,
					"patching_rect" : [ 466.0, 97.0, 44.0, 15.0 ],
					"numoutlets" : 1,
					"fontname" : "Arial",
					"outlettype" : [ "" ],
					"hidden" : 1,
					"id" : "obj-4"
				}

			}
, 			{
				"box" : 				{
					"maxclass" : "message",
					"text" : "set -6",
					"fontsize" : 7.9,
					"numinlets" : 2,
					"patching_rect" : [ 426.0, 97.0, 35.0, 15.0 ],
					"numoutlets" : 1,
					"fontname" : "Arial",
					"outlettype" : [ "" ],
					"hidden" : 1,
					"id" : "obj-5"
				}

			}
, 			{
				"box" : 				{
					"maxclass" : "message",
					"text" : "set 100",
					"fontsize" : 7.9,
					"numinlets" : 2,
					"patching_rect" : [ 404.0, 97.0, 44.0, 15.0 ],
					"numoutlets" : 1,
					"fontname" : "Arial",
					"outlettype" : [ "" ],
					"hidden" : 1,
					"id" : "obj-6"
				}

			}
, 			{
				"box" : 				{
					"maxclass" : "message",
					"text" : "set 50",
					"fontsize" : 7.9,
					"numinlets" : 2,
					"patching_rect" : [ 380.0, 97.0, 38.0, 15.0 ],
					"numoutlets" : 1,
					"fontname" : "Arial",
					"outlettype" : [ "" ],
					"hidden" : 1,
					"id" : "obj-7"
				}

			}
, 			{
				"box" : 				{
					"maxclass" : "newobj",
					"text" : "loadbang",
					"fontsize" : 7.9,
					"numinlets" : 1,
					"patching_rect" : [ 441.0, 55.0, 53.0, 17.0 ],
					"numoutlets" : 1,
					"fontname" : "Arial",
					"outlettype" : [ "bang" ],
					"hidden" : 1,
					"id" : "obj-8"
				}

			}
, 			{
				"box" : 				{
					"maxclass" : "comment",
					"text" : "FFT2sync",
					"linecount" : 3,
					"fontsize" : 7.9,
					"numinlets" : 1,
					"patching_rect" : [ 333.0, 238.0, 28.0, 38.0 ],
					"numoutlets" : 0,
					"fontname" : "Arial",
					"frgb" : [ 0.658824, 0.658824, 0.658824, 1.0 ],
					"id" : "obj-9"
				}

			}
, 			{
				"box" : 				{
					"maxclass" : "comment",
					"text" : "FFT1 sync",
					"linecount" : 3,
					"fontsize" : 7.9,
					"numinlets" : 1,
					"patching_rect" : [ 283.0, 238.0, 28.0, 38.0 ],
					"numoutlets" : 0,
					"fontname" : "Arial",
					"frgb" : [ 0.658824, 0.658824, 0.658824, 1.0 ],
					"id" : "obj-10"
				}

			}
, 			{
				"box" : 				{
					"maxclass" : "comment",
					"text" : "FFT2 imag.",
					"linecount" : 4,
					"fontsize" : 7.9,
					"numinlets" : 1,
					"patching_rect" : [ 237.0, 238.0, 28.0, 49.0 ],
					"numoutlets" : 0,
					"fontname" : "Arial",
					"frgb" : [ 0.658824, 0.658824, 0.658824, 1.0 ],
					"id" : "obj-11"
				}

			}
, 			{
				"box" : 				{
					"maxclass" : "comment",
					"text" : "FFT1 imag.",
					"linecount" : 4,
					"fontsize" : 7.9,
					"numinlets" : 1,
					"patching_rect" : [ 143.0, 238.0, 28.0, 49.0 ],
					"numoutlets" : 0,
					"fontname" : "Arial",
					"frgb" : [ 0.658824, 0.658824, 0.658824, 1.0 ],
					"id" : "obj-12"
				}

			}
, 			{
				"box" : 				{
					"maxclass" : "comment",
					"text" : "FFT2real",
					"linecount" : 3,
					"fontsize" : 7.9,
					"numinlets" : 1,
					"patching_rect" : [ 190.0, 238.0, 26.0, 38.0 ],
					"numoutlets" : 0,
					"fontname" : "Arial",
					"frgb" : [ 0.658824, 0.658824, 0.658824, 1.0 ],
					"id" : "obj-13"
				}

			}
, 			{
				"box" : 				{
					"maxclass" : "comment",
					"text" : "<-- Your algorithm here",
					"fontsize" : 10.533333,
					"numinlets" : 1,
					"patching_rect" : [ 251.0, 281.0, 180.0, 21.0 ],
					"numoutlets" : 0,
					"fontname" : "Arial",
					"frgb" : [ 0.658824, 0.658824, 0.658824, 1.0 ],
					"id" : "obj-14"
				}

			}
, 			{
				"box" : 				{
					"maxclass" : "comment",
					"text" : "required arguments: size of FFT and half the size of the FFT",
					"linecount" : 2,
					"fontsize" : 7.9,
					"numinlets" : 1,
					"patching_rect" : [ 244.0, 316.0, 152.0, 28.0 ],
					"numoutlets" : 0,
					"fontname" : "Arial",
					"frgb" : [ 0.658824, 0.658824, 0.658824, 1.0 ],
					"id" : "obj-15"
				}

			}
, 			{
				"box" : 				{
					"maxclass" : "newobj",
					"text" : "tap.ifft~ 4096 2048",
					"fontsize" : 10.533333,
					"numinlets" : 4,
					"patching_rect" : [ 88.0, 317.0, 153.0, 21.0 ],
					"numoutlets" : 3,
					"fontname" : "Arial",
					"outlettype" : [ "signal", "signal", "signal" ],
					"id" : "obj-16"
				}

			}
, 			{
				"box" : 				{
					"maxclass" : "newobj",
					"text" : "tap.fft~ 4096 2048",
					"fontsize" : 10.533333,
					"numinlets" : 1,
					"patching_rect" : [ 88.0, 216.0, 246.0, 21.0 ],
					"numoutlets" : 6,
					"fontname" : "Arial",
					"outlettype" : [ "signal", "signal", "signal", "signal", "signal", "signal" ],
					"id" : "obj-17"
				}

			}
, 			{
				"box" : 				{
					"maxclass" : "message",
					"text" : "open",
					"fontsize" : 7.9,
					"numinlets" : 2,
					"patching_rect" : [ 76.0, 454.0, 44.0, 15.0 ],
					"numoutlets" : 1,
					"fontname" : "Arial",
					"outlettype" : [ "" ],
					"id" : "obj-18"
				}

			}
, 			{
				"box" : 				{
					"maxclass" : "message",
					"text" : "open",
					"fontsize" : 7.9,
					"numinlets" : 2,
					"patching_rect" : [ 104.0, 139.0, 44.0, 15.0 ],
					"numoutlets" : 1,
					"fontname" : "Arial",
					"outlettype" : [ "" ],
					"id" : "obj-19"
				}

			}
, 			{
				"box" : 				{
					"maxclass" : "toggle",
					"numinlets" : 1,
					"patching_rect" : [ 88.0, 139.0, 15.0, 15.0 ],
					"numoutlets" : 1,
					"outlettype" : [ "int" ],
					"id" : "obj-20"
				}

			}
, 			{
				"box" : 				{
					"maxclass" : "ezdac~",
					"numinlets" : 2,
					"patching_rect" : [ 76.0, 422.0, 33.0, 33.0 ],
					"numoutlets" : 0,
					"id" : "obj-21"
				}

			}
, 			{
				"box" : 				{
					"maxclass" : "gain~",
					"bgcolor" : [ 0.380392, 0.611765, 0.611765, 1.0 ],
					"orientation" : 2,
					"numinlets" : 2,
					"stripecolor" : [ 0.66667, 0.66667, 0.66667, 1.0 ],
					"patching_rect" : [ 89.0, 352.0, 20.0, 58.0 ],
					"numoutlets" : 2,
					"outlettype" : [ "signal", "int" ],
					"id" : "obj-22"
				}

			}
, 			{
				"box" : 				{
					"maxclass" : "newobj",
					"text" : "sfplay~",
					"fontsize" : 10.533333,
					"numinlets" : 2,
					"patching_rect" : [ 88.0, 164.0, 60.0, 21.0 ],
					"numoutlets" : 2,
					"fontname" : "Arial",
					"outlettype" : [ "signal", "bang" ],
					"id" : "obj-23",
					"save" : [ "#N", "sfplay~", "", 1, 16384, 0, "", ";" ]
				}

			}
, 			{
				"box" : 				{
					"maxclass" : "message",
					"text" : "startwindow",
					"fontsize" : 7.9,
					"numinlets" : 2,
					"patching_rect" : [ 122.0, 432.0, 81.0, 15.0 ],
					"numoutlets" : 1,
					"fontname" : "Arial",
					"outlettype" : [ "" ],
					"id" : "obj-24"
				}

			}
, 			{
				"box" : 				{
					"maxclass" : "comment",
					"text" : "required arguments: size of FFT and half the size of the FFT",
					"linecount" : 2,
					"fontsize" : 7.9,
					"numinlets" : 1,
					"patching_rect" : [ 270.0, 191.0, 152.0, 28.0 ],
					"numoutlets" : 0,
					"fontname" : "Arial",
					"frgb" : [ 0.658824, 0.658824, 0.658824, 1.0 ],
					"id" : "obj-25"
				}

			}
, 			{
				"box" : 				{
					"maxclass" : "comment",
					"text" : "A wrapper for MSP's FFT and IFFT objects. These objects deal with creating, overlapping and windowing the FFTs and IFFTs.",
					"linecount" : 2,
					"fontsize" : 7.9,
					"numinlets" : 1,
					"patching_rect" : [ 154.0, 148.0, 269.0, 28.0 ],
					"numoutlets" : 0,
					"fontname" : "Arial",
					"frgb" : [ 0.658824, 0.658824, 0.658824, 1.0 ],
					"id" : "obj-26"
				}

			}
, 			{
				"box" : 				{
					"maxclass" : "comment",
					"text" : "FFT1 real",
					"linecount" : 3,
					"fontsize" : 7.9,
					"numinlets" : 1,
					"patching_rect" : [ 96.0, 238.0, 26.0, 38.0 ],
					"numoutlets" : 0,
					"fontname" : "Arial",
					"frgb" : [ 0.658824, 0.658824, 0.658824, 1.0 ],
					"id" : "obj-27"
				}

			}
, 			{
				"box" : 				{
					"maxclass" : "comment",
					"text" : "IFFT sync outlets",
					"fontsize" : 7.9,
					"numinlets" : 1,
					"patching_rect" : [ 159.0, 344.0, 82.0, 17.0 ],
					"numoutlets" : 0,
					"fontname" : "Arial",
					"frgb" : [ 0.658824, 0.658824, 0.658824, 1.0 ],
					"id" : "obj-28"
				}

			}
, 			{
				"box" : 				{
					"maxclass" : "fpic",
					"background" : 1,
					"numinlets" : 1,
					"pic" : "ttblue_icon.bmp",
					"patching_rect" : [ -1.0, -1.0, 130.0, 130.0 ],
					"numoutlets" : 0,
					"id" : "obj-29"
				}

			}
, 			{
				"box" : 				{
					"maxclass" : "newobj",
					"text" : "b 1",
					"fontsize" : 7.9,
					"background" : 1,
					"numinlets" : 1,
					"patching_rect" : [ 262.0, 60.0, 22.0, 17.0 ],
					"numoutlets" : 1,
					"fontname" : "Arial",
					"outlettype" : [ "bang" ],
					"hidden" : 1,
					"id" : "obj-30"
				}

			}
, 			{
				"box" : 				{
					"maxclass" : "message",
					"text" : ";\rmax launch_browser www.electrotap.com",
					"linecount" : 3,
					"fontsize" : 7.9,
					"background" : 1,
					"numinlets" : 2,
					"patching_rect" : [ 262.0, 86.0, 108.0, 36.0 ],
					"numoutlets" : 1,
					"fontname" : "Arial",
					"outlettype" : [ "" ],
					"hidden" : 1,
					"id" : "obj-31"
				}

			}
, 			{
				"box" : 				{
					"maxclass" : "umenu",
					"bgcolor" : [ 0.866667, 0.866667, 0.866667, 1.0 ],
					"menumode" : 2,
					"labelclick" : 1,
					"fontsize" : 10.533333,
					"background" : 1,
					"numinlets" : 1,
					"items" : "electrotap.com",
					"arrowlink" : 1,
					"patching_rect" : [ 133.0, 106.0, 126.0, 21.0 ],
					"numoutlets" : 3,
					"types" : [  ],
					"fontname" : "Arial",
					"outlettype" : [ "int", "", "" ],
					"id" : "obj-32",
					"textcolor" : [ 0.0, 0.0, 0.0, 1.0 ]
				}

			}
, 			{
				"box" : 				{
					"maxclass" : "comment",
					"text" : "by timothy place",
					"fontsize" : 12.288889,
					"background" : 1,
					"numinlets" : 1,
					"patching_rect" : [ 133.0, 87.0, 125.0, 23.0 ],
					"numoutlets" : 0,
					"fontname" : "Arial",
					"frgb" : [ 0.658824, 0.658824, 0.658824, 1.0 ],
					"id" : "obj-33"
				}

			}
, 			{
				"box" : 				{
					"maxclass" : "panel",
					"bgcolor" : [ 0.388235, 0.388235, 0.388235, 1.0 ],
					"background" : 1,
					"numinlets" : 1,
					"patching_rect" : [ 128.0, 0.0, 402.0, 128.0 ],
					"numoutlets" : 0,
					"rounded" : 0,
					"id" : "obj-34"
				}

			}
 ],
		"lines" : [ 			{
				"patchline" : 				{
					"source" : [ "obj-8", 0 ],
					"destination" : [ "obj-4", 0 ],
					"hidden" : 1
				}

			}
, 			{
				"patchline" : 				{
					"source" : [ "obj-8", 0 ],
					"destination" : [ "obj-5", 0 ],
					"hidden" : 1
				}

			}
, 			{
				"patchline" : 				{
					"source" : [ "obj-8", 0 ],
					"destination" : [ "obj-6", 0 ],
					"hidden" : 1
				}

			}
, 			{
				"patchline" : 				{
					"source" : [ "obj-8", 0 ],
					"destination" : [ "obj-7", 0 ],
					"hidden" : 1
				}

			}
, 			{
				"patchline" : 				{
					"source" : [ "obj-30", 0 ],
					"destination" : [ "obj-31", 0 ],
					"hidden" : 1
				}

			}
, 			{
				"patchline" : 				{
					"source" : [ "obj-32", 0 ],
					"destination" : [ "obj-30", 0 ],
					"hidden" : 1
				}

			}
, 			{
				"patchline" : 				{
					"source" : [ "obj-17", 3 ],
					"destination" : [ "obj-16", 3 ],
					"hidden" : 0
				}

			}
, 			{
				"patchline" : 				{
					"source" : [ "obj-17", 2 ],
					"destination" : [ "obj-16", 2 ],
					"hidden" : 0
				}

			}
, 			{
				"patchline" : 				{
					"source" : [ "obj-17", 1 ],
					"destination" : [ "obj-16", 1 ],
					"hidden" : 0
				}

			}
, 			{
				"patchline" : 				{
					"source" : [ "obj-22", 0 ],
					"destination" : [ "obj-21", 1 ],
					"hidden" : 0
				}

			}
, 			{
				"patchline" : 				{
					"source" : [ "obj-16", 0 ],
					"destination" : [ "obj-22", 0 ],
					"hidden" : 0
				}

			}
, 			{
				"patchline" : 				{
					"source" : [ "obj-17", 0 ],
					"destination" : [ "obj-16", 0 ],
					"hidden" : 0
				}

			}
, 			{
				"patchline" : 				{
					"source" : [ "obj-23", 0 ],
					"destination" : [ "obj-17", 0 ],
					"hidden" : 0
				}

			}
, 			{
				"patchline" : 				{
					"source" : [ "obj-19", 0 ],
					"destination" : [ "obj-23", 0 ],
					"hidden" : 0
				}

			}
, 			{
				"patchline" : 				{
					"source" : [ "obj-20", 0 ],
					"destination" : [ "obj-23", 0 ],
					"hidden" : 0
				}

			}
, 			{
				"patchline" : 				{
					"source" : [ "obj-24", 0 ],
					"destination" : [ "obj-21", 0 ],
					"hidden" : 1
				}

			}
, 			{
				"patchline" : 				{
					"source" : [ "obj-18", 0 ],
					"destination" : [ "obj-21", 0 ],
					"hidden" : 1
				}

			}
, 			{
				"patchline" : 				{
					"source" : [ "obj-22", 0 ],
					"destination" : [ "obj-21", 0 ],
					"hidden" : 0
				}

			}
 ]
	}

}
