{
	"patcher" : 	{
		"rect" : [ 253.0, 63.0, 549.0, 352.0 ],
		"bgcolor" : [ 0.1, 0.1, 0.1, 1.0 ],
		"bglocked" : 0,
		"defrect" : [ 253.0, 63.0, 549.0, 352.0 ],
		"openrect" : [ 0.0, 0.0, 0.0, 0.0 ],
		"openinpresentation" : 0,
		"default_fontsize" : 9.0,
		"default_fontface" : 0,
		"default_fontname" : "Verdana",
		"gridonopen" : 0,
		"gridsize" : [ 10.0, 5.0 ],
		"gridsnaponopen" : 0,
		"toolbarvisible" : 1,
		"boxanimatetime" : 200,
		"imprint" : 0,
		"metadata" : [  ],
		"boxes" : [ 			{
				"box" : 				{
					"maxclass" : "message",
					"text" : "5.",
					"fontsize" : 7.9,
					"numinlets" : 2,
					"patching_rect" : [ 413.0, 94.0, 17.0, 15.0 ],
					"numoutlets" : 1,
					"fontname" : "Arial",
					"outlettype" : [ "" ],
					"hidden" : 1,
					"id" : "obj-1"
				}

			}
, 			{
				"box" : 				{
					"maxclass" : "message",
					"text" : "1",
					"fontsize" : 7.9,
					"numinlets" : 2,
					"patching_rect" : [ 434.0, 94.0, 16.0, 15.0 ],
					"numoutlets" : 1,
					"fontname" : "Arial",
					"outlettype" : [ "" ],
					"hidden" : 1,
					"id" : "obj-2"
				}

			}
, 			{
				"box" : 				{
					"maxclass" : "newobj",
					"text" : "loadbang",
					"fontsize" : 7.9,
					"numinlets" : 1,
					"patching_rect" : [ 424.0, 67.0, 46.0, 17.0 ],
					"numoutlets" : 1,
					"fontname" : "Arial",
					"outlettype" : [ "bang" ],
					"hidden" : 1,
					"id" : "obj-3"
				}

			}
, 			{
				"box" : 				{
					"maxclass" : "message",
					"text" : "compile",
					"fontsize" : 7.9,
					"numinlets" : 2,
					"patching_rect" : [ 225.0, 212.0, 43.0, 15.0 ],
					"numoutlets" : 1,
					"fontname" : "Arial",
					"outlettype" : [ "" ],
					"id" : "obj-4"
				}

			}
, 			{
				"box" : 				{
					"maxclass" : "comment",
					"text" : "Example",
					"fontsize" : 10.533333,
					"numinlets" : 1,
					"patching_rect" : [ 130.0, 211.0, 253.0, 21.0 ],
					"numoutlets" : 0,
					"fontname" : "Arial",
					"frgb" : [ 0.658824, 0.658824, 0.658824, 1.0 ],
					"id" : "obj-5"
				}

			}
, 			{
				"box" : 				{
					"maxclass" : "panel",
					"bgcolor" : [ 0.501961, 0.54902, 0.733333, 1.0 ],
					"numinlets" : 1,
					"patching_rect" : [ 128.0, 209.0, 402.0, 20.0 ],
					"numoutlets" : 0,
					"rounded" : 0,
					"id" : "obj-6"
				}

			}
, 			{
				"box" : 				{
					"maxclass" : "flonum",
					"htextcolor" : [ 0.870588, 0.870588, 0.870588, 1.0 ],
					"bgcolor" : [ 0.866667, 0.866667, 0.866667, 1.0 ],
					"fontsize" : 7.9,
					"numinlets" : 1,
					"patching_rect" : [ 306.0, 272.0, 35.0, 17.0 ],
					"numoutlets" : 2,
					"fontname" : "Arial",
					"outlettype" : [ "float", "bang" ],
					"id" : "obj-7",
					"triscale" : 0.9,
					"textcolor" : [ 0.0, 0.0, 0.0, 1.0 ]
				}

			}
, 			{
				"box" : 				{
					"maxclass" : "message",
					"text" : "set -1 $1",
					"fontsize" : 7.9,
					"numinlets" : 2,
					"patching_rect" : [ 306.0, 251.0, 52.0, 15.0 ],
					"numoutlets" : 1,
					"fontname" : "Arial",
					"outlettype" : [ "" ],
					"id" : "obj-8"
				}

			}
, 			{
				"box" : 				{
					"maxclass" : "flonum",
					"htextcolor" : [ 0.870588, 0.870588, 0.870588, 1.0 ],
					"bgcolor" : [ 0.866667, 0.866667, 0.866667, 1.0 ],
					"fontsize" : 7.9,
					"numinlets" : 1,
					"patching_rect" : [ 306.0, 234.0, 35.0, 17.0 ],
					"numoutlets" : 2,
					"fontname" : "Arial",
					"outlettype" : [ "float", "bang" ],
					"id" : "obj-9",
					"triscale" : 0.9,
					"textcolor" : [ 0.0, 0.0, 0.0, 1.0 ]
				}

			}
, 			{
				"box" : 				{
					"maxclass" : "flonum",
					"htextcolor" : [ 0.870588, 0.870588, 0.870588, 1.0 ],
					"bgcolor" : [ 0.866667, 0.866667, 0.866667, 1.0 ],
					"fontsize" : 7.9,
					"numinlets" : 1,
					"patching_rect" : [ 382.0, 272.0, 35.0, 17.0 ],
					"numoutlets" : 2,
					"fontname" : "Arial",
					"outlettype" : [ "float", "bang" ],
					"id" : "obj-10",
					"triscale" : 0.9,
					"textcolor" : [ 0.0, 0.0, 0.0, 1.0 ]
				}

			}
, 			{
				"box" : 				{
					"maxclass" : "flonum",
					"htextcolor" : [ 0.870588, 0.870588, 0.870588, 1.0 ],
					"bgcolor" : [ 0.866667, 0.866667, 0.866667, 1.0 ],
					"fontsize" : 7.9,
					"numinlets" : 1,
					"patching_rect" : [ 454.0, 272.0, 35.0, 17.0 ],
					"numoutlets" : 2,
					"fontname" : "Arial",
					"outlettype" : [ "float", "bang" ],
					"id" : "obj-11",
					"triscale" : 0.9,
					"textcolor" : [ 0.0, 0.0, 0.0, 1.0 ]
				}

			}
, 			{
				"box" : 				{
					"maxclass" : "message",
					"text" : "set both $1",
					"fontsize" : 7.9,
					"numinlets" : 2,
					"patching_rect" : [ 306.0, 290.0, 60.0, 15.0 ],
					"numoutlets" : 1,
					"fontname" : "Arial",
					"outlettype" : [ "" ],
					"id" : "obj-12"
				}

			}
, 			{
				"box" : 				{
					"maxclass" : "message",
					"text" : "set bottom $1",
					"fontsize" : 7.9,
					"numinlets" : 2,
					"patching_rect" : [ 454.0, 289.0, 72.0, 15.0 ],
					"numoutlets" : 1,
					"fontname" : "Arial",
					"outlettype" : [ "" ],
					"id" : "obj-13"
				}

			}
, 			{
				"box" : 				{
					"maxclass" : "message",
					"text" : "set top $1",
					"fontsize" : 7.9,
					"numinlets" : 2,
					"patching_rect" : [ 382.0, 290.0, 55.0, 15.0 ],
					"numoutlets" : 1,
					"fontname" : "Arial",
					"outlettype" : [ "" ],
					"id" : "obj-14"
				}

			}
, 			{
				"box" : 				{
					"maxclass" : "comment",
					"text" : "Float sets slider values if they are linked, otherwise it sets the top value",
					"linecount" : 2,
					"fontsize" : 7.9,
					"numinlets" : 1,
					"patching_rect" : [ 185.0, 174.0, 180.0, 28.0 ],
					"numoutlets" : 0,
					"fontname" : "Arial",
					"frgb" : [ 0.658824, 0.658824, 0.658824, 1.0 ],
					"id" : "obj-15"
				}

			}
, 			{
				"box" : 				{
					"maxclass" : "comment",
					"text" : "Link sliders [default 1]",
					"fontsize" : 7.9,
					"numinlets" : 1,
					"patching_rect" : [ 416.0, 136.0, 116.0, 17.0 ],
					"numoutlets" : 0,
					"fontname" : "Arial",
					"frgb" : [ 0.658824, 0.658824, 0.658824, 1.0 ],
					"id" : "obj-16"
				}

			}
, 			{
				"box" : 				{
					"maxclass" : "flonum",
					"htextcolor" : [ 0.870588, 0.870588, 0.870588, 1.0 ],
					"bgcolor" : [ 0.866667, 0.866667, 0.866667, 1.0 ],
					"fontsize" : 7.9,
					"numinlets" : 1,
					"patching_rect" : [ 133.0, 180.0, 47.0, 17.0 ],
					"numoutlets" : 2,
					"fontname" : "Arial",
					"outlettype" : [ "float", "bang" ],
					"id" : "obj-17",
					"triscale" : 0.9,
					"textcolor" : [ 0.0, 0.0, 0.0, 1.0 ]
				}

			}
, 			{
				"box" : 				{
					"maxclass" : "panel",
					"bgcolor" : [ 0.807843, 0.807843, 0.807843, 1.0 ],
					"numinlets" : 1,
					"patching_rect" : [ 128.0, 170.0, 402.0, 36.0 ],
					"numoutlets" : 0,
					"rounded" : 0,
					"id" : "obj-18"
				}

			}
, 			{
				"box" : 				{
					"maxclass" : "flonum",
					"htextcolor" : [ 0.870588, 0.870588, 0.870588, 1.0 ],
					"bgcolor" : [ 0.866667, 0.866667, 0.866667, 1.0 ],
					"fontsize" : 7.9,
					"numinlets" : 1,
					"patching_rect" : [ 133.0, 287.0, 46.0, 17.0 ],
					"numoutlets" : 2,
					"fontname" : "Arial",
					"outlettype" : [ "float", "bang" ],
					"id" : "obj-19",
					"triscale" : 0.9,
					"textcolor" : [ 0.0, 0.0, 0.0, 1.0 ]
				}

			}
, 			{
				"box" : 				{
					"maxclass" : "flonum",
					"htextcolor" : [ 0.870588, 0.870588, 0.870588, 1.0 ],
					"bgcolor" : [ 0.866667, 0.866667, 0.866667, 1.0 ],
					"fontsize" : 7.9,
					"numinlets" : 1,
					"patching_rect" : [ 133.0, 134.0, 35.0, 17.0 ],
					"numoutlets" : 2,
					"fontname" : "Arial",
					"outlettype" : [ "float", "bang" ],
					"id" : "obj-20",
					"triscale" : 0.9,
					"textcolor" : [ 0.0, 0.0, 0.0, 1.0 ]
				}

			}
, 			{
				"box" : 				{
					"maxclass" : "message",
					"text" : "multiplier $1",
					"fontsize" : 7.9,
					"numinlets" : 2,
					"patching_rect" : [ 133.0, 151.0, 68.0, 15.0 ],
					"numoutlets" : 1,
					"fontname" : "Arial",
					"outlettype" : [ "" ],
					"id" : "obj-21"
				}

			}
, 			{
				"box" : 				{
					"maxclass" : "message",
					"text" : "set 0 $1",
					"fontsize" : 7.9,
					"numinlets" : 2,
					"patching_rect" : [ 382.0, 251.0, 45.0, 15.0 ],
					"numoutlets" : 1,
					"fontname" : "Arial",
					"outlettype" : [ "" ],
					"id" : "obj-22"
				}

			}
, 			{
				"box" : 				{
					"maxclass" : "flonum",
					"htextcolor" : [ 0.870588, 0.870588, 0.870588, 1.0 ],
					"bgcolor" : [ 0.866667, 0.866667, 0.866667, 1.0 ],
					"fontsize" : 7.9,
					"numinlets" : 1,
					"patching_rect" : [ 382.0, 234.0, 35.0, 17.0 ],
					"numoutlets" : 2,
					"fontname" : "Arial",
					"outlettype" : [ "float", "bang" ],
					"id" : "obj-23",
					"triscale" : 0.9,
					"textcolor" : [ 0.0, 0.0, 0.0, 1.0 ]
				}

			}
, 			{
				"box" : 				{
					"maxclass" : "toggle",
					"numinlets" : 1,
					"patching_rect" : [ 384.0, 133.0, 15.0, 15.0 ],
					"numoutlets" : 1,
					"outlettype" : [ "int" ],
					"id" : "obj-24"
				}

			}
, 			{
				"box" : 				{
					"maxclass" : "message",
					"text" : "link $1",
					"fontsize" : 7.9,
					"numinlets" : 2,
					"patching_rect" : [ 384.0, 150.0, 40.0, 15.0 ],
					"numoutlets" : 1,
					"fontname" : "Arial",
					"outlettype" : [ "" ],
					"id" : "obj-25"
				}

			}
, 			{
				"box" : 				{
					"maxclass" : "message",
					"text" : "set 1 $1",
					"fontsize" : 7.9,
					"numinlets" : 2,
					"patching_rect" : [ 454.0, 251.0, 45.0, 15.0 ],
					"numoutlets" : 1,
					"fontname" : "Arial",
					"outlettype" : [ "" ],
					"id" : "obj-26"
				}

			}
, 			{
				"box" : 				{
					"maxclass" : "flonum",
					"htextcolor" : [ 0.870588, 0.870588, 0.870588, 1.0 ],
					"bgcolor" : [ 0.866667, 0.866667, 0.866667, 1.0 ],
					"fontsize" : 7.9,
					"numinlets" : 1,
					"patching_rect" : [ 454.0, 234.0, 35.0, 17.0 ],
					"numoutlets" : 2,
					"fontname" : "Arial",
					"outlettype" : [ "float", "bang" ],
					"id" : "obj-27",
					"triscale" : 0.9,
					"textcolor" : [ 0.0, 0.0, 0.0, 1.0 ]
				}

			}
, 			{
				"box" : 				{
					"maxclass" : "jsui",
					"presentation_rect" : [ 0.0, 0.0, 161.0, 26.0 ],
					"numinlets" : 1,
					"patching_rect" : [ 133.0, 258.0, 161.0, 26.0 ],
					"numoutlets" : 1,
					"outlettype" : [ "" ],
					"id" : "obj-28",
					"jsarguments" : [ 5 ],
					"filename" : "tap.twinsliderui.js"
				}

			}
, 			{
				"box" : 				{
					"maxclass" : "comment",
					"text" : "dual slider with custom graphics",
					"fontsize" : 10.533333,
					"numinlets" : 1,
					"patching_rect" : [ 133.0, 34.0, 309.0, 21.0 ],
					"numoutlets" : 0,
					"fontname" : "Arial",
					"frgb" : [ 0.87451, 0.87451, 0.87451, 1.0 ],
					"id" : "obj-29",
					"textcolor" : [ 0.87451, 0.87451, 0.87451, 1.0 ]
				}

			}
, 			{
				"box" : 				{
					"maxclass" : "comment",
					"text" : "tap.twinsliderui",
					"fontsize" : 21.066666,
					"numinlets" : 1,
					"patching_rect" : [ 133.0, 5.0, 309.0, 35.0 ],
					"numoutlets" : 0,
					"fontname" : "Arial",
					"frgb" : [ 0.87451, 0.87451, 0.87451, 1.0 ],
					"id" : "obj-30",
					"textcolor" : [ 0.87451, 0.87451, 0.87451, 1.0 ]
				}

			}
, 			{
				"box" : 				{
					"maxclass" : "comment",
					"text" : "Output Multiplier (Can also be specified as an argument in get-info)",
					"linecount" : 2,
					"fontsize" : 7.9,
					"numinlets" : 1,
					"patching_rect" : [ 202.0, 138.0, 177.0, 28.0 ],
					"numoutlets" : 0,
					"fontname" : "Arial",
					"frgb" : [ 0.658824, 0.658824, 0.658824, 1.0 ],
					"id" : "obj-31"
				}

			}
, 			{
				"box" : 				{
					"maxclass" : "panel",
					"bgcolor" : [ 0.807843, 0.807843, 0.807843, 1.0 ],
					"numinlets" : 1,
					"patching_rect" : [ 128.0, 132.0, 402.0, 36.0 ],
					"numoutlets" : 0,
					"rounded" : 0,
					"id" : "obj-32"
				}

			}
, 			{
				"box" : 				{
					"maxclass" : "comment",
					"text" : "set sliders without output",
					"fontsize" : 7.9,
					"numinlets" : 1,
					"patching_rect" : [ 130.0, 238.0, 121.0, 17.0 ],
					"numoutlets" : 0,
					"fontname" : "Arial",
					"frgb" : [ 0.658824, 0.658824, 0.658824, 1.0 ],
					"id" : "obj-33"
				}

			}
, 			{
				"box" : 				{
					"maxclass" : "panel",
					"bgcolor" : [ 0.807843, 0.807843, 0.807843, 1.0 ],
					"numinlets" : 1,
					"patching_rect" : [ 128.0, 232.0, 402.0, 75.0 ],
					"numoutlets" : 0,
					"rounded" : 0,
					"id" : "obj-34"
				}

			}
, 			{
				"box" : 				{
					"maxclass" : "fpic",
					"background" : 1,
					"numinlets" : 1,
					"pic" : "ttblue_icon.bmp",
					"patching_rect" : [ -1.0, -1.0, 130.0, 130.0 ],
					"numoutlets" : 0,
					"id" : "obj-35"
				}

			}
, 			{
				"box" : 				{
					"maxclass" : "newobj",
					"text" : "b 1",
					"fontsize" : 7.9,
					"background" : 1,
					"numinlets" : 1,
					"patching_rect" : [ 262.0, 60.0, 22.0, 17.0 ],
					"numoutlets" : 1,
					"fontname" : "Arial",
					"outlettype" : [ "bang" ],
					"hidden" : 1,
					"id" : "obj-36"
				}

			}
, 			{
				"box" : 				{
					"maxclass" : "message",
					"text" : ";\rmax launch_browser www.electrotap.com",
					"linecount" : 3,
					"fontsize" : 7.9,
					"background" : 1,
					"numinlets" : 2,
					"patching_rect" : [ 262.0, 86.0, 108.0, 36.0 ],
					"numoutlets" : 1,
					"fontname" : "Arial",
					"outlettype" : [ "" ],
					"hidden" : 1,
					"id" : "obj-37"
				}

			}
, 			{
				"box" : 				{
					"maxclass" : "umenu",
					"bgcolor" : [ 0.866667, 0.866667, 0.866667, 1.0 ],
					"menumode" : 2,
					"labelclick" : 1,
					"fontsize" : 10.533333,
					"background" : 1,
					"numinlets" : 1,
					"items" : "electrotap.com",
					"arrowlink" : 1,
					"patching_rect" : [ 133.0, 106.0, 126.0, 21.0 ],
					"numoutlets" : 3,
					"types" : [  ],
					"fontname" : "Arial",
					"outlettype" : [ "int", "", "" ],
					"id" : "obj-38",
					"textcolor" : [ 0.0, 0.0, 0.0, 1.0 ]
				}

			}
, 			{
				"box" : 				{
					"maxclass" : "comment",
					"text" : "by jesse allison",
					"fontsize" : 12.288889,
					"background" : 1,
					"numinlets" : 1,
					"patching_rect" : [ 133.0, 87.0, 125.0, 23.0 ],
					"numoutlets" : 0,
					"fontname" : "Arial",
					"frgb" : [ 0.658824, 0.658824, 0.658824, 1.0 ],
					"id" : "obj-39"
				}

			}
, 			{
				"box" : 				{
					"maxclass" : "panel",
					"bgcolor" : [ 0.388235, 0.388235, 0.388235, 1.0 ],
					"background" : 1,
					"numinlets" : 1,
					"patching_rect" : [ 128.0, 0.0, 402.0, 128.0 ],
					"numoutlets" : 0,
					"rounded" : 0,
					"id" : "obj-40"
				}

			}
 ],
		"lines" : [ 			{
				"patchline" : 				{
					"source" : [ "obj-11", 0 ],
					"destination" : [ "obj-13", 0 ],
					"hidden" : 0
				}

			}
, 			{
				"patchline" : 				{
					"source" : [ "obj-27", 0 ],
					"destination" : [ "obj-26", 0 ],
					"hidden" : 0
				}

			}
, 			{
				"patchline" : 				{
					"source" : [ "obj-3", 0 ],
					"destination" : [ "obj-2", 0 ],
					"hidden" : 1
				}

			}
, 			{
				"patchline" : 				{
					"source" : [ "obj-3", 0 ],
					"destination" : [ "obj-1", 0 ],
					"hidden" : 1
				}

			}
, 			{
				"patchline" : 				{
					"source" : [ "obj-24", 0 ],
					"destination" : [ "obj-25", 0 ],
					"hidden" : 0
				}

			}
, 			{
				"patchline" : 				{
					"source" : [ "obj-2", 0 ],
					"destination" : [ "obj-24", 0 ],
					"hidden" : 1
				}

			}
, 			{
				"patchline" : 				{
					"source" : [ "obj-10", 0 ],
					"destination" : [ "obj-14", 0 ],
					"hidden" : 0
				}

			}
, 			{
				"patchline" : 				{
					"source" : [ "obj-23", 0 ],
					"destination" : [ "obj-22", 0 ],
					"hidden" : 0
				}

			}
, 			{
				"patchline" : 				{
					"source" : [ "obj-7", 0 ],
					"destination" : [ "obj-12", 0 ],
					"hidden" : 0
				}

			}
, 			{
				"patchline" : 				{
					"source" : [ "obj-9", 0 ],
					"destination" : [ "obj-8", 0 ],
					"hidden" : 0
				}

			}
, 			{
				"patchline" : 				{
					"source" : [ "obj-36", 0 ],
					"destination" : [ "obj-37", 0 ],
					"hidden" : 1
				}

			}
, 			{
				"patchline" : 				{
					"source" : [ "obj-38", 0 ],
					"destination" : [ "obj-36", 0 ],
					"hidden" : 1
				}

			}
, 			{
				"patchline" : 				{
					"source" : [ "obj-28", 0 ],
					"destination" : [ "obj-19", 0 ],
					"hidden" : 0
				}

			}
, 			{
				"patchline" : 				{
					"source" : [ "obj-4", 0 ],
					"destination" : [ "obj-28", 0 ],
					"hidden" : 1
				}

			}
, 			{
				"patchline" : 				{
					"source" : [ "obj-8", 0 ],
					"destination" : [ "obj-28", 0 ],
					"hidden" : 1
				}

			}
, 			{
				"patchline" : 				{
					"source" : [ "obj-12", 0 ],
					"destination" : [ "obj-28", 0 ],
					"hidden" : 1
				}

			}
, 			{
				"patchline" : 				{
					"source" : [ "obj-13", 0 ],
					"destination" : [ "obj-28", 0 ],
					"hidden" : 1
				}

			}
, 			{
				"patchline" : 				{
					"source" : [ "obj-14", 0 ],
					"destination" : [ "obj-28", 0 ],
					"hidden" : 1
				}

			}
, 			{
				"patchline" : 				{
					"source" : [ "obj-17", 0 ],
					"destination" : [ "obj-28", 0 ],
					"hidden" : 1
				}

			}
, 			{
				"patchline" : 				{
					"source" : [ "obj-21", 0 ],
					"destination" : [ "obj-28", 0 ],
					"hidden" : 1
				}

			}
, 			{
				"patchline" : 				{
					"source" : [ "obj-26", 0 ],
					"destination" : [ "obj-28", 0 ],
					"hidden" : 1
				}

			}
, 			{
				"patchline" : 				{
					"source" : [ "obj-25", 0 ],
					"destination" : [ "obj-28", 0 ],
					"hidden" : 1
				}

			}
, 			{
				"patchline" : 				{
					"source" : [ "obj-22", 0 ],
					"destination" : [ "obj-28", 0 ],
					"hidden" : 1
				}

			}
, 			{
				"patchline" : 				{
					"source" : [ "obj-20", 0 ],
					"destination" : [ "obj-21", 0 ],
					"hidden" : 0
				}

			}
, 			{
				"patchline" : 				{
					"source" : [ "obj-1", 0 ],
					"destination" : [ "obj-20", 0 ],
					"hidden" : 1
				}

			}
 ]
	}

}
