{
	"patcher" : 	{
		"rect" : [ 103.0, 65.0, 546.0, 481.0 ],
		"bgcolor" : [ 0.1, 0.1, 0.1, 1.0 ],
		"bglocked" : 0,
		"defrect" : [ 103.0, 65.0, 546.0, 481.0 ],
		"openrect" : [ 0.0, 0.0, 0.0, 0.0 ],
		"openinpresentation" : 0,
		"default_fontsize" : 9.0,
		"default_fontface" : 0,
		"default_fontname" : "Verdana",
		"gridonopen" : 0,
		"gridsize" : [ 10.0, 5.0 ],
		"gridsnaponopen" : 0,
		"toolbarvisible" : 1,
		"boxanimatetime" : 200,
		"imprint" : 0,
		"metadata" : [  ],
		"boxes" : [ 			{
				"box" : 				{
					"maxclass" : "comment",
					"text" : "Manually poll the envelope analysis (as done with the MSP avg~ object)",
					"linecount" : 2,
					"fontsize" : 7.9,
					"numinlets" : 1,
					"patching_rect" : [ 163.0, 408.0, 177.0, 28.0 ],
					"numoutlets" : 0,
					"fontname" : "Arial",
					"frgb" : [ 0.658824, 0.658824, 0.658824, 1.0 ],
					"id" : "obj-1"
				}

			}
, 			{
				"box" : 				{
					"maxclass" : "button",
					"numinlets" : 1,
					"patching_rect" : [ 138.0, 409.0, 24.0, 24.0 ],
					"numoutlets" : 1,
					"outlettype" : [ "bang" ],
					"id" : "obj-2"
				}

			}
, 			{
				"box" : 				{
					"maxclass" : "comment",
					"text" : "Messages",
					"fontsize" : 10.533333,
					"numinlets" : 1,
					"patching_rect" : [ 130.0, 383.0, 253.0, 21.0 ],
					"numoutlets" : 0,
					"fontname" : "Arial",
					"frgb" : [ 0.658824, 0.658824, 0.658824, 1.0 ],
					"id" : "obj-3"
				}

			}
, 			{
				"box" : 				{
					"maxclass" : "panel",
					"bgcolor" : [ 0.501961, 0.54902, 0.733333, 1.0 ],
					"numinlets" : 1,
					"patching_rect" : [ 128.0, 381.0, 402.0, 20.0 ],
					"numoutlets" : 0,
					"rounded" : 0,
					"id" : "obj-4"
				}

			}
, 			{
				"box" : 				{
					"maxclass" : "panel",
					"bgcolor" : [ 0.807843, 0.807843, 0.807843, 1.0 ],
					"numinlets" : 1,
					"patching_rect" : [ 128.0, 403.0, 402.0, 36.0 ],
					"numoutlets" : 0,
					"rounded" : 0,
					"id" : "obj-5"
				}

			}
, 			{
				"box" : 				{
					"maxclass" : "comment",
					"text" : "Toggle on\/off automatic polling.",
					"fontsize" : 7.9,
					"numinlets" : 1,
					"patching_rect" : [ 261.0, 350.0, 174.0, 17.0 ],
					"numoutlets" : 0,
					"fontname" : "Arial",
					"frgb" : [ 0.658824, 0.658824, 0.658824, 1.0 ],
					"id" : "obj-6"
				}

			}
, 			{
				"box" : 				{
					"maxclass" : "comment",
					"text" : "Time (in milliseconds) over which to perform linear interpolation. ( 0 = no interpolation )",
					"linecount" : 2,
					"fontsize" : 7.9,
					"numinlets" : 1,
					"patching_rect" : [ 260.0, 309.0, 220.0, 28.0 ],
					"numoutlets" : 0,
					"fontname" : "Arial",
					"frgb" : [ 0.658824, 0.658824, 0.658824, 1.0 ],
					"id" : "obj-7"
				}

			}
, 			{
				"box" : 				{
					"maxclass" : "flonum",
					"htextcolor" : [ 0.870588, 0.870588, 0.870588, 1.0 ],
					"bgcolor" : [ 0.866667, 0.866667, 0.866667, 1.0 ],
					"fontsize" : 7.9,
					"numinlets" : 1,
					"patching_rect" : [ 137.0, 305.0, 48.0, 17.0 ],
					"triangle" : 0,
					"transparent" : 1,
					"numoutlets" : 2,
					"fontname" : "Arial",
					"outlettype" : [ "float", "bang" ],
					"id" : "obj-8",
					"triscale" : 0.9,
					"textcolor" : [ 0.0, 0.0, 0.0, 1.0 ]
				}

			}
, 			{
				"box" : 				{
					"maxclass" : "message",
					"text" : "interpolation_period $1",
					"fontsize" : 7.9,
					"numinlets" : 2,
					"patching_rect" : [ 137.0, 322.0, 115.0, 15.0 ],
					"numoutlets" : 1,
					"fontname" : "Arial",
					"outlettype" : [ "" ],
					"id" : "obj-9"
				}

			}
, 			{
				"box" : 				{
					"maxclass" : "panel",
					"bgcolor" : [ 0.807843, 0.807843, 0.807843, 1.0 ],
					"numinlets" : 1,
					"patching_rect" : [ 128.0, 303.0, 402.0, 36.0 ],
					"numoutlets" : 0,
					"rounded" : 0,
					"id" : "obj-10"
				}

			}
, 			{
				"box" : 				{
					"maxclass" : "comment",
					"text" : "Time interval for auto-polling (in milliseconds)",
					"fontsize" : 7.9,
					"numinlets" : 1,
					"patching_rect" : [ 247.0, 277.0, 220.0, 17.0 ],
					"numoutlets" : 0,
					"fontname" : "Arial",
					"frgb" : [ 0.658824, 0.658824, 0.658824, 1.0 ],
					"id" : "obj-11"
				}

			}
, 			{
				"box" : 				{
					"maxclass" : "comment",
					"text" : "Sets the responsiveness of the RMS averaging",
					"fontsize" : 7.9,
					"numinlets" : 1,
					"patching_rect" : [ 240.0, 239.0, 233.0, 17.0 ],
					"numoutlets" : 0,
					"fontname" : "Arial",
					"frgb" : [ 0.658824, 0.658824, 0.658824, 1.0 ],
					"id" : "obj-12"
				}

			}
, 			{
				"box" : 				{
					"maxclass" : "message",
					"text" : "coef $1",
					"fontsize" : 7.9,
					"numinlets" : 2,
					"patching_rect" : [ 137.0, 249.0, 46.0, 15.0 ],
					"numoutlets" : 1,
					"fontname" : "Arial",
					"outlettype" : [ "" ],
					"id" : "obj-13"
				}

			}
, 			{
				"box" : 				{
					"maxclass" : "comment",
					"text" : "Route changes which outlet(s) the envelope is sent to, making it possible to optimize the object for different situations.",
					"linecount" : 2,
					"fontsize" : 7.9,
					"numinlets" : 1,
					"patching_rect" : [ 241.0, 195.0, 284.0, 28.0 ],
					"numoutlets" : 0,
					"fontname" : "Arial",
					"frgb" : [ 0.658824, 0.658824, 0.658824, 1.0 ],
					"id" : "obj-14"
				}

			}
, 			{
				"box" : 				{
					"maxclass" : "umenu",
					"fontsize" : 7.9,
					"numinlets" : 1,
					"items" : [ 0, "-", "both", "outlets", ",", 1, "-", "signal", "only", ",", 2, "-", "float", "only" ],
					"arrowlink" : 1,
					"patching_rect" : [ 137.0, 193.0, 103.0, 17.0 ],
					"numoutlets" : 3,
					"types" : [  ],
					"fontname" : "Arial",
					"outlettype" : [ "int", "", "" ],
					"id" : "obj-15"
				}

			}
, 			{
				"box" : 				{
					"maxclass" : "message",
					"text" : "route $1",
					"fontsize" : 7.9,
					"numinlets" : 2,
					"patching_rect" : [ 137.0, 211.0, 60.0, 15.0 ],
					"numoutlets" : 1,
					"fontname" : "Arial",
					"outlettype" : [ "" ],
					"id" : "obj-16"
				}

			}
, 			{
				"box" : 				{
					"maxclass" : "umenu",
					"fontsize" : 7.9,
					"numinlets" : 1,
					"items" : [ 0, "-", "Absolute", "Average", ",", 1, "-", "RMS", "Average" ],
					"arrowlink" : 1,
					"patching_rect" : [ 137.0, 156.0, 133.0, 17.0 ],
					"numoutlets" : 3,
					"types" : [  ],
					"fontname" : "Arial",
					"outlettype" : [ "int", "", "" ],
					"id" : "obj-17"
				}

			}
, 			{
				"box" : 				{
					"maxclass" : "message",
					"text" : "mode $1",
					"fontsize" : 7.9,
					"numinlets" : 2,
					"patching_rect" : [ 137.0, 173.0, 60.0, 15.0 ],
					"numoutlets" : 1,
					"fontname" : "Arial",
					"outlettype" : [ "" ],
					"id" : "obj-18"
				}

			}
, 			{
				"box" : 				{
					"maxclass" : "comment",
					"text" : "Type of envelope-following operation to use.",
					"linecount" : 2,
					"fontsize" : 7.9,
					"numinlets" : 1,
					"patching_rect" : [ 272.0, 158.0, 138.0, 28.0 ],
					"numoutlets" : 0,
					"fontname" : "Arial",
					"frgb" : [ 0.658824, 0.658824, 0.658824, 1.0 ],
					"id" : "obj-19"
				}

			}
, 			{
				"box" : 				{
					"maxclass" : "comment",
					"text" : "\"old-fashioned\" floating-point output",
					"linecount" : 2,
					"fontsize" : 7.9,
					"numinlets" : 1,
					"patching_rect" : [ 18.0, 310.0, 101.0, 28.0 ],
					"numoutlets" : 0,
					"fontname" : "Arial",
					"frgb" : [ 0.658824, 0.658824, 0.658824, 1.0 ],
					"id" : "obj-20"
				}

			}
, 			{
				"box" : 				{
					"maxclass" : "newobj",
					"text" : "tap.avg~ @interpolation_period 150 @analysis_period 500",
					"linecount" : 4,
					"fontsize" : 7.9,
					"numinlets" : 3,
					"patching_rect" : [ 6.0, 231.0, 107.0, 49.0 ],
					"numoutlets" : 3,
					"fontname" : "Arial",
					"outlettype" : [ "signal", "float", "" ],
					"id" : "obj-21"
				}

			}
, 			{
				"box" : 				{
					"maxclass" : "radiogroup",
					"numinlets" : 1,
					"patching_rect" : [ 151.0, 342.0, 65.0, 18.0 ],
					"numoutlets" : 1,
					"outlettype" : [ "" ],
					"id" : "obj-22",
					"itemtype" : 1,
					"size" : 1,
					"values" : [ 0 ],
					"disabled" : [ 0 ]
				}

			}
, 			{
				"box" : 				{
					"maxclass" : "message",
					"text" : "poll $1",
					"fontsize" : 7.9,
					"numinlets" : 2,
					"patching_rect" : [ 151.0, 359.0, 40.0, 15.0 ],
					"numoutlets" : 1,
					"fontname" : "Arial",
					"outlettype" : [ "" ],
					"id" : "obj-23"
				}

			}
, 			{
				"box" : 				{
					"maxclass" : "panel",
					"bgcolor" : [ 0.807843, 0.807843, 0.807843, 1.0 ],
					"numinlets" : 1,
					"patching_rect" : [ 128.0, 340.0, 402.0, 36.0 ],
					"numoutlets" : 0,
					"rounded" : 0,
					"id" : "obj-24"
				}

			}
, 			{
				"box" : 				{
					"maxclass" : "flonum",
					"htextcolor" : [ 0.870588, 0.870588, 0.870588, 1.0 ],
					"bgcolor" : [ 0.866667, 0.866667, 0.866667, 1.0 ],
					"fontsize" : 7.9,
					"numinlets" : 1,
					"patching_rect" : [ 137.0, 268.0, 48.0, 17.0 ],
					"triangle" : 0,
					"transparent" : 1,
					"numoutlets" : 2,
					"fontname" : "Arial",
					"outlettype" : [ "float", "bang" ],
					"id" : "obj-25",
					"triscale" : 0.9,
					"textcolor" : [ 0.0, 0.0, 0.0, 1.0 ]
				}

			}
, 			{
				"box" : 				{
					"maxclass" : "message",
					"text" : "analysis_period $1",
					"fontsize" : 7.9,
					"numinlets" : 2,
					"patching_rect" : [ 137.0, 285.0, 95.0, 15.0 ],
					"numoutlets" : 1,
					"fontname" : "Arial",
					"outlettype" : [ "" ],
					"id" : "obj-26"
				}

			}
, 			{
				"box" : 				{
					"maxclass" : "flonum",
					"htextcolor" : [ 0.870588, 0.870588, 0.870588, 1.0 ],
					"bgcolor" : [ 0.866667, 0.866667, 0.866667, 1.0 ],
					"fontsize" : 7.9,
					"numinlets" : 1,
					"patching_rect" : [ 137.0, 232.0, 48.0, 17.0 ],
					"triangle" : 0,
					"transparent" : 1,
					"numoutlets" : 2,
					"fontname" : "Arial",
					"outlettype" : [ "float", "bang" ],
					"id" : "obj-27",
					"triscale" : 0.9,
					"textcolor" : [ 0.0, 0.0, 0.0, 1.0 ]
				}

			}
, 			{
				"box" : 				{
					"maxclass" : "comment",
					"text" : "Attributes",
					"fontsize" : 10.533333,
					"numinlets" : 1,
					"patching_rect" : [ 130.0, 135.0, 253.0, 21.0 ],
					"numoutlets" : 0,
					"fontname" : "Arial",
					"frgb" : [ 0.658824, 0.658824, 0.658824, 1.0 ],
					"id" : "obj-28"
				}

			}
, 			{
				"box" : 				{
					"maxclass" : "comment",
					"text" : "envelope follower",
					"fontsize" : 10.533333,
					"numinlets" : 1,
					"patching_rect" : [ 133.0, 34.0, 309.0, 21.0 ],
					"numoutlets" : 0,
					"fontname" : "Arial",
					"frgb" : [ 0.87451, 0.87451, 0.87451, 1.0 ],
					"id" : "obj-29",
					"textcolor" : [ 0.87451, 0.87451, 0.87451, 1.0 ]
				}

			}
, 			{
				"box" : 				{
					"maxclass" : "comment",
					"text" : "tap.avg~",
					"fontsize" : 21.066666,
					"numinlets" : 1,
					"patching_rect" : [ 133.0, 5.0, 309.0, 35.0 ],
					"numoutlets" : 0,
					"fontname" : "Arial",
					"frgb" : [ 0.87451, 0.87451, 0.87451, 1.0 ],
					"id" : "obj-30",
					"textcolor" : [ 0.87451, 0.87451, 0.87451, 1.0 ]
				}

			}
, 			{
				"box" : 				{
					"maxclass" : "message",
					"text" : "set 500",
					"fontsize" : 7.9,
					"numinlets" : 2,
					"patching_rect" : [ 466.0, 97.0, 44.0, 15.0 ],
					"numoutlets" : 1,
					"fontname" : "Arial",
					"outlettype" : [ "" ],
					"hidden" : 1,
					"id" : "obj-31"
				}

			}
, 			{
				"box" : 				{
					"maxclass" : "message",
					"text" : "set -6",
					"fontsize" : 7.9,
					"numinlets" : 2,
					"patching_rect" : [ 426.0, 97.0, 35.0, 15.0 ],
					"numoutlets" : 1,
					"fontname" : "Arial",
					"outlettype" : [ "" ],
					"hidden" : 1,
					"id" : "obj-32"
				}

			}
, 			{
				"box" : 				{
					"maxclass" : "message",
					"text" : "set 100",
					"fontsize" : 7.9,
					"numinlets" : 2,
					"patching_rect" : [ 404.0, 97.0, 44.0, 15.0 ],
					"numoutlets" : 1,
					"fontname" : "Arial",
					"outlettype" : [ "" ],
					"hidden" : 1,
					"id" : "obj-33"
				}

			}
, 			{
				"box" : 				{
					"maxclass" : "message",
					"text" : "set 50",
					"fontsize" : 7.9,
					"numinlets" : 2,
					"patching_rect" : [ 380.0, 97.0, 38.0, 15.0 ],
					"numoutlets" : 1,
					"fontname" : "Arial",
					"outlettype" : [ "" ],
					"hidden" : 1,
					"id" : "obj-34"
				}

			}
, 			{
				"box" : 				{
					"maxclass" : "newobj",
					"text" : "loadbang",
					"fontsize" : 7.9,
					"numinlets" : 1,
					"patching_rect" : [ 441.0, 55.0, 53.0, 17.0 ],
					"numoutlets" : 1,
					"fontname" : "Arial",
					"outlettype" : [ "bang" ],
					"hidden" : 1,
					"id" : "obj-35"
				}

			}
, 			{
				"box" : 				{
					"maxclass" : "panel",
					"bgcolor" : [ 0.501961, 0.54902, 0.733333, 1.0 ],
					"numinlets" : 1,
					"patching_rect" : [ 128.0, 133.0, 402.0, 20.0 ],
					"numoutlets" : 0,
					"rounded" : 0,
					"id" : "obj-36"
				}

			}
, 			{
				"box" : 				{
					"maxclass" : "panel",
					"bgcolor" : [ 0.807843, 0.807843, 0.807843, 1.0 ],
					"numinlets" : 1,
					"patching_rect" : [ 128.0, 155.0, 402.0, 36.0 ],
					"numoutlets" : 0,
					"rounded" : 0,
					"id" : "obj-37"
				}

			}
, 			{
				"box" : 				{
					"maxclass" : "panel",
					"bgcolor" : [ 0.807843, 0.807843, 0.807843, 1.0 ],
					"numinlets" : 1,
					"patching_rect" : [ 128.0, 192.0, 402.0, 36.0 ],
					"numoutlets" : 0,
					"rounded" : 0,
					"id" : "obj-38"
				}

			}
, 			{
				"box" : 				{
					"maxclass" : "panel",
					"bgcolor" : [ 0.807843, 0.807843, 0.807843, 1.0 ],
					"numinlets" : 1,
					"patching_rect" : [ 128.0, 229.0, 402.0, 36.0 ],
					"numoutlets" : 0,
					"rounded" : 0,
					"id" : "obj-39"
				}

			}
, 			{
				"box" : 				{
					"maxclass" : "panel",
					"bgcolor" : [ 0.807843, 0.807843, 0.807843, 1.0 ],
					"numinlets" : 1,
					"patching_rect" : [ 128.0, 266.0, 402.0, 36.0 ],
					"numoutlets" : 0,
					"rounded" : 0,
					"id" : "obj-40"
				}

			}
, 			{
				"box" : 				{
					"maxclass" : "message",
					"text" : "startwindow",
					"fontsize" : 7.9,
					"numinlets" : 2,
					"patching_rect" : [ 55.0, 410.0, 65.0, 15.0 ],
					"numoutlets" : 1,
					"fontname" : "Arial",
					"outlettype" : [ "" ],
					"id" : "obj-41"
				}

			}
, 			{
				"box" : 				{
					"maxclass" : "ezdac~",
					"numinlets" : 2,
					"patching_rect" : [ 9.0, 400.0, 33.0, 33.0 ],
					"numoutlets" : 0,
					"id" : "obj-42"
				}

			}
, 			{
				"box" : 				{
					"maxclass" : "number~",
					"htextcolor" : [ 0.870588, 0.870588, 0.870588, 1.0 ],
					"sig" : 0.0,
					"bgcolor" : [ 0.866667, 0.866667, 0.866667, 1.0 ],
					"fontsize" : 7.9,
					"numinlets" : 2,
					"patching_rect" : [ 6.0, 344.0, 68.0, 17.0 ],
					"numoutlets" : 2,
					"fontname" : "Arial",
					"outlettype" : [ "signal", "float" ],
					"interval" : 50.0,
					"id" : "obj-43",
					"mode" : 2,
					"textcolor" : [ 0.0, 0.0, 0.0, 1.0 ]
				}

			}
, 			{
				"box" : 				{
					"maxclass" : "flonum",
					"htextcolor" : [ 0.870588, 0.870588, 0.870588, 1.0 ],
					"bgcolor" : [ 0.866667, 0.866667, 0.866667, 1.0 ],
					"fontsize" : 7.9,
					"numinlets" : 1,
					"patching_rect" : [ 18.0, 293.0, 67.0, 17.0 ],
					"numoutlets" : 2,
					"fontname" : "Arial",
					"outlettype" : [ "float", "bang" ],
					"id" : "obj-44",
					"triscale" : 0.9,
					"textcolor" : [ 0.0, 0.0, 0.0, 1.0 ]
				}

			}
, 			{
				"box" : 				{
					"maxclass" : "gain~",
					"orientation" : 2,
					"numinlets" : 2,
					"patching_rect" : [ 7.0, 163.0, 29.0, 54.0 ],
					"numoutlets" : 2,
					"outlettype" : [ "signal", "int" ],
					"id" : "obj-45"
				}

			}
, 			{
				"box" : 				{
					"maxclass" : "newobj",
					"text" : "cycle~ 100",
					"fontsize" : 7.9,
					"numinlets" : 2,
					"patching_rect" : [ 6.0, 137.0, 72.0, 17.0 ],
					"numoutlets" : 1,
					"fontname" : "Arial",
					"outlettype" : [ "signal" ],
					"id" : "obj-46"
				}

			}
, 			{
				"box" : 				{
					"maxclass" : "comment",
					"text" : "interpolated signal output",
					"linecount" : 2,
					"fontsize" : 7.9,
					"numinlets" : 1,
					"patching_rect" : [ 6.0, 361.0, 81.0, 28.0 ],
					"numoutlets" : 0,
					"fontname" : "Arial",
					"frgb" : [ 0.658824, 0.658824, 0.658824, 1.0 ],
					"id" : "obj-47"
				}

			}
, 			{
				"box" : 				{
					"maxclass" : "fpic",
					"background" : 1,
					"numinlets" : 1,
					"pic" : "ttblue_icon.bmp",
					"patching_rect" : [ -1.0, -1.0, 130.0, 130.0 ],
					"numoutlets" : 0,
					"id" : "obj-48"
				}

			}
, 			{
				"box" : 				{
					"maxclass" : "newobj",
					"text" : "b 1",
					"fontsize" : 7.9,
					"background" : 1,
					"numinlets" : 1,
					"patching_rect" : [ 262.0, 60.0, 22.0, 17.0 ],
					"numoutlets" : 1,
					"fontname" : "Arial",
					"outlettype" : [ "bang" ],
					"hidden" : 1,
					"id" : "obj-49"
				}

			}
, 			{
				"box" : 				{
					"maxclass" : "message",
					"text" : ";\rmax launch_browser www.electrotap.com",
					"linecount" : 3,
					"fontsize" : 7.9,
					"background" : 1,
					"numinlets" : 2,
					"patching_rect" : [ 262.0, 86.0, 108.0, 36.0 ],
					"numoutlets" : 1,
					"fontname" : "Arial",
					"outlettype" : [ "" ],
					"hidden" : 1,
					"id" : "obj-50"
				}

			}
, 			{
				"box" : 				{
					"maxclass" : "umenu",
					"bgcolor" : [ 0.866667, 0.866667, 0.866667, 1.0 ],
					"menumode" : 2,
					"labelclick" : 1,
					"fontsize" : 10.533333,
					"background" : 1,
					"numinlets" : 1,
					"items" : "electrotap.com",
					"arrowlink" : 1,
					"patching_rect" : [ 133.0, 106.0, 126.0, 21.0 ],
					"numoutlets" : 3,
					"types" : [  ],
					"fontname" : "Arial",
					"outlettype" : [ "int", "", "" ],
					"id" : "obj-51",
					"textcolor" : [ 0.0, 0.0, 0.0, 1.0 ]
				}

			}
, 			{
				"box" : 				{
					"maxclass" : "comment",
					"text" : "by timothy place",
					"fontsize" : 12.288889,
					"background" : 1,
					"numinlets" : 1,
					"patching_rect" : [ 133.0, 87.0, 125.0, 23.0 ],
					"numoutlets" : 0,
					"fontname" : "Arial",
					"frgb" : [ 0.658824, 0.658824, 0.658824, 1.0 ],
					"id" : "obj-52"
				}

			}
, 			{
				"box" : 				{
					"maxclass" : "panel",
					"bgcolor" : [ 0.388235, 0.388235, 0.388235, 1.0 ],
					"background" : 1,
					"numinlets" : 1,
					"patching_rect" : [ 128.0, 0.0, 402.0, 128.0 ],
					"numoutlets" : 0,
					"rounded" : 0,
					"id" : "obj-53"
				}

			}
 ],
		"lines" : [ 			{
				"patchline" : 				{
					"source" : [ "obj-35", 0 ],
					"destination" : [ "obj-31", 0 ],
					"hidden" : 1
				}

			}
, 			{
				"patchline" : 				{
					"source" : [ "obj-35", 0 ],
					"destination" : [ "obj-32", 0 ],
					"hidden" : 1
				}

			}
, 			{
				"patchline" : 				{
					"source" : [ "obj-35", 0 ],
					"destination" : [ "obj-33", 0 ],
					"hidden" : 1
				}

			}
, 			{
				"patchline" : 				{
					"source" : [ "obj-35", 0 ],
					"destination" : [ "obj-34", 0 ],
					"hidden" : 1
				}

			}
, 			{
				"patchline" : 				{
					"source" : [ "obj-49", 0 ],
					"destination" : [ "obj-50", 0 ],
					"hidden" : 1
				}

			}
, 			{
				"patchline" : 				{
					"source" : [ "obj-51", 0 ],
					"destination" : [ "obj-49", 0 ],
					"hidden" : 1
				}

			}
, 			{
				"patchline" : 				{
					"source" : [ "obj-22", 0 ],
					"destination" : [ "obj-23", 0 ],
					"hidden" : 0
				}

			}
, 			{
				"patchline" : 				{
					"source" : [ "obj-8", 0 ],
					"destination" : [ "obj-9", 0 ],
					"hidden" : 0
				}

			}
, 			{
				"patchline" : 				{
					"source" : [ "obj-25", 0 ],
					"destination" : [ "obj-26", 0 ],
					"hidden" : 0
				}

			}
, 			{
				"patchline" : 				{
					"source" : [ "obj-27", 0 ],
					"destination" : [ "obj-13", 0 ],
					"hidden" : 0
				}

			}
, 			{
				"patchline" : 				{
					"source" : [ "obj-15", 0 ],
					"destination" : [ "obj-16", 0 ],
					"hidden" : 0
				}

			}
, 			{
				"patchline" : 				{
					"source" : [ "obj-17", 0 ],
					"destination" : [ "obj-18", 0 ],
					"hidden" : 0
				}

			}
, 			{
				"patchline" : 				{
					"source" : [ "obj-21", 1 ],
					"destination" : [ "obj-44", 0 ],
					"hidden" : 0,
					"midpoints" : [ 59.5, 287.0, 27.5, 287.0 ]
				}

			}
, 			{
				"patchline" : 				{
					"source" : [ "obj-41", 0 ],
					"destination" : [ "obj-42", 0 ],
					"hidden" : 1
				}

			}
, 			{
				"patchline" : 				{
					"source" : [ "obj-21", 0 ],
					"destination" : [ "obj-43", 0 ],
					"hidden" : 0
				}

			}
, 			{
				"patchline" : 				{
					"source" : [ "obj-18", 0 ],
					"destination" : [ "obj-21", 0 ],
					"hidden" : 1
				}

			}
, 			{
				"patchline" : 				{
					"source" : [ "obj-2", 0 ],
					"destination" : [ "obj-21", 0 ],
					"hidden" : 1
				}

			}
, 			{
				"patchline" : 				{
					"source" : [ "obj-45", 0 ],
					"destination" : [ "obj-21", 0 ],
					"hidden" : 0
				}

			}
, 			{
				"patchline" : 				{
					"source" : [ "obj-13", 0 ],
					"destination" : [ "obj-21", 0 ],
					"hidden" : 1
				}

			}
, 			{
				"patchline" : 				{
					"source" : [ "obj-16", 0 ],
					"destination" : [ "obj-21", 0 ],
					"hidden" : 1
				}

			}
, 			{
				"patchline" : 				{
					"source" : [ "obj-23", 0 ],
					"destination" : [ "obj-21", 0 ],
					"hidden" : 1
				}

			}
, 			{
				"patchline" : 				{
					"source" : [ "obj-9", 0 ],
					"destination" : [ "obj-21", 0 ],
					"hidden" : 1
				}

			}
, 			{
				"patchline" : 				{
					"source" : [ "obj-26", 0 ],
					"destination" : [ "obj-21", 0 ],
					"hidden" : 1
				}

			}
, 			{
				"patchline" : 				{
					"source" : [ "obj-46", 0 ],
					"destination" : [ "obj-45", 0 ],
					"hidden" : 0
				}

			}
 ]
	}

}
